<?xml version="1.0" encoding="UTF-8"?>
<svg xmlns="http://www.w3.org/2000/svg" xmlns:xlink="http://www.w3.org/1999/xlink" width="271pt" height="216pt" viewBox="0 0 271 216" version="1.1">
<g id="surface1">
<rect x="0" y="0" width="271" height="216" style="fill:rgb(100%,100%,100%);fill-opacity:1;stroke:none;"/>
<path style="fill:none;stroke-width:10;stroke-linecap:butt;stroke-linejoin:miter;stroke:rgb(0%,0%,0%);stroke-opacity:1;stroke-miterlimit:10;" d="M 281.875 2150.625 L 281.875 -9.335938 " transform="matrix(0.1,0,0,-0.1,0,216)"/>
<path style="fill:none;stroke-width:10;stroke-linecap:butt;stroke-linejoin:miter;stroke:rgb(0%,0%,0%);stroke-opacity:1;stroke-miterlimit:10;" d="M 281.875 2155.3125 L 263.125 2136.5625 " transform="matrix(0.1,0,0,-0.1,0,216)"/>
<path style="fill:none;stroke-width:10;stroke-linecap:butt;stroke-linejoin:miter;stroke:rgb(0%,0%,0%);stroke-opacity:1;stroke-miterlimit:10;" d="M 281.875 2155.3125 L 300.625 2136.5625 " transform="matrix(0.1,0,0,-0.1,0,216)"/>
<path style="fill:none;stroke-width:10;stroke-linecap:butt;stroke-linejoin:miter;stroke:rgb(0%,0%,0%);stroke-opacity:1;stroke-miterlimit:10;" d="M 0 376.171875 L 2708.125 376.171875 " transform="matrix(0.1,0,0,-0.1,0,216)"/>
<path style="fill:none;stroke-width:10;stroke-linecap:butt;stroke-linejoin:miter;stroke:rgb(0%,0%,0%);stroke-opacity:1;stroke-miterlimit:10;" d="M 2712.8125 376.171875 L 2694.101562 394.921875 " transform="matrix(0.1,0,0,-0.1,0,216)"/>
<path style="fill:none;stroke-width:10;stroke-linecap:butt;stroke-linejoin:miter;stroke:rgb(0%,0%,0%);stroke-opacity:1;stroke-miterlimit:10;" d="M 2712.8125 376.171875 L 2694.101562 357.421875 " transform="matrix(0.1,0,0,-0.1,0,216)"/>
<path style="fill:none;stroke-width:25;stroke-linecap:round;stroke-linejoin:round;stroke:rgb(30.200195%,30.200195%,100%);stroke-opacity:1;stroke-miterlimit:10;" d="M 565.351562 1498.398438 L 573.242188 1505.273438 M 573.242188 1505.273438 L 594.453125 1523.554688 M 594.453125 1523.554688 L 615.703125 1541.445312 L 636.914062 1558.867188 L 658.164062 1575.820312 L 679.375 1592.304688 M 679.375 1592.304688 L 700.625 1608.242188 L 721.835938 1623.671875 L 743.085938 1638.554688 L 764.296875 1652.851562 L 785.546875 1666.523438 L 806.757812 1679.609375 L 828.007812 1692.070312 L 849.21875 1703.867188 L 870.46875 1714.960938 L 891.679688 1725.390625 L 912.929688 1735.15625 L 934.140625 1744.179688 L 955.390625 1752.460938 L 976.601562 1760.039062 L 997.851562 1766.835938 L 1019.0625 1772.890625 L 1040.3125 1778.164062 L 1061.523438 1782.695312 L 1082.773438 1786.445312 L 1103.984375 1789.375 L 1125.234375 1791.523438 L 1146.445312 1792.890625 L 1167.695312 1793.476562 L 1188.90625 1793.242188 L 1210.15625 1792.265625 L 1231.367188 1790.429688 L 1252.617188 1787.851562 L 1273.828125 1784.453125 L 1295.078125 1780.273438 L 1316.289062 1775.351562 L 1337.539062 1769.648438 L 1358.75 1763.164062 M 1358.75 1763.164062 L 1380 1755.9375 L 1401.210938 1747.96875 L 1422.460938 1739.257812 L 1443.671875 1729.84375 L 1464.921875 1719.6875 L 1486.132812 1708.90625 L 1507.382812 1697.382812 L 1528.59375 1685.234375 L 1549.84375 1672.421875 L 1571.054688 1659.023438 L 1592.304688 1645 L 1613.515625 1630.390625 L 1634.765625 1615.195312 L 1655.976562 1599.453125 L 1677.226562 1583.203125 L 1698.4375 1566.484375 L 1719.6875 1549.257812 L 1740.898438 1531.5625 L 1762.148438 1513.476562 L 1783.359375 1494.960938 L 1804.609375 1476.054688 L 1825.820312 1456.835938 L 1847.070312 1437.265625 L 1868.28125 1417.421875 L 1889.53125 1397.304688 L 1910.742188 1376.953125 L 1931.992188 1356.367188 L 1953.203125 1335.625 L 1974.453125 1314.726562 L 1995.664062 1293.671875 L 2016.914062 1272.539062 L 2038.125 1251.367188 M 2038.125 1251.367188 L 2059.375 1230.15625 L 2080.585938 1208.90625 L 2101.835938 1187.695312 L 2123.046875 1166.5625 L 2144.296875 1145.507812 L 2165.507812 1124.53125 L 2186.757812 1103.75 L 2207.96875 1083.125 L 2229.21875 1062.695312 L 2250.429688 1042.460938 L 2271.679688 1022.539062 L 2292.890625 1002.851562 L 2314.140625 983.515625 L 2335.351562 964.53125 L 2356.601562 945.859375 L 2377.8125 927.617188 M 2377.8125 927.617188 L 2399.0625 909.804688 L 2420.273438 892.421875 L 2441.523438 875.507812 L 2462.734375 859.101562 L 2483.984375 843.203125 L 2505.195312 827.8125 L 2526.445312 813.007812 L 2547.65625 798.789062 M 2547.65625 798.789062 L 2549.609375 797.539062 " transform="matrix(0.1,0,0,-0.1,0,216)"/>
<path style="fill:none;stroke-width:25;stroke-linecap:butt;stroke-linejoin:round;stroke:rgb(30.200195%,30.200195%,30.200195%);stroke-opacity:1;stroke-dasharray:105,80;stroke-miterlimit:10;" d="M 565.351562 376.171875 L 2549.609375 376.171875 " transform="matrix(0.1,0,0,-0.1,0,216)"/>
<path style="fill:none;stroke-width:25;stroke-linecap:butt;stroke-linejoin:round;stroke:rgb(30.200195%,30.200195%,30.200195%);stroke-opacity:1;stroke-dasharray:105,80;stroke-miterlimit:10;" d="M 565.351562 1498.398438 L 2549.609375 797.539062 " transform="matrix(0.1,0,0,-0.1,0,216)"/>
<path style="fill:none;stroke-width:25;stroke-linecap:round;stroke-linejoin:round;stroke:rgb(30.200195%,30.200195%,30.200195%);stroke-opacity:1;stroke-miterlimit:10;" d="M 253.515625 1498.398438 L 310.234375 1498.398438 " transform="matrix(0.1,0,0,-0.1,0,216)"/>
<path style="fill:none;stroke-width:25;stroke-linecap:round;stroke-linejoin:round;stroke:rgb(30.200195%,30.200195%,30.200195%);stroke-opacity:1;stroke-miterlimit:10;" d="M 253.515625 797.539062 L 310.234375 797.539062 " transform="matrix(0.1,0,0,-0.1,0,216)"/>
<path style=" stroke:none;fill-rule:nonzero;fill:rgb(0%,0%,0%);fill-opacity:1;" d="M 57.941406 178.382812 C 57.941406 179.15625 57.308594 179.789062 56.535156 179.789062 C 55.757812 179.789062 55.128906 179.15625 55.128906 178.382812 C 55.128906 177.605469 55.757812 176.976562 56.535156 176.976562 C 57.308594 176.976562 57.941406 177.605469 57.941406 178.382812 "/>
<path style="fill:none;stroke-width:10;stroke-linecap:round;stroke-linejoin:round;stroke:rgb(0%,0%,0%);stroke-opacity:1;stroke-miterlimit:10;" d="M 579.414062 376.171875 C 579.414062 368.4375 573.085938 362.109375 565.351562 362.109375 C 557.578125 362.109375 551.289062 368.4375 551.289062 376.171875 C 551.289062 383.945312 557.578125 390.234375 565.351562 390.234375 C 573.085938 390.234375 579.414062 383.945312 579.414062 376.171875 Z M 579.414062 376.171875 " transform="matrix(0.1,0,0,-0.1,0,216)"/>
<path style=" stroke:none;fill-rule:nonzero;fill:rgb(0%,0%,0%);fill-opacity:1;" d="M 256.363281 178.382812 C 256.363281 179.15625 255.734375 179.789062 254.960938 179.789062 C 254.183594 179.789062 253.554688 179.15625 253.554688 178.382812 C 253.554688 177.605469 254.183594 176.976562 254.960938 176.976562 C 255.734375 176.976562 256.363281 177.605469 256.363281 178.382812 "/>
<path style="fill:none;stroke-width:10;stroke-linecap:round;stroke-linejoin:round;stroke:rgb(0%,0%,0%);stroke-opacity:1;stroke-miterlimit:10;" d="M 2563.632812 376.171875 C 2563.632812 368.4375 2557.34375 362.109375 2549.609375 362.109375 C 2541.835938 362.109375 2535.546875 368.4375 2535.546875 376.171875 C 2535.546875 383.945312 2541.835938 390.234375 2549.609375 390.234375 C 2557.34375 390.234375 2563.632812 383.945312 2563.632812 376.171875 Z M 2563.632812 376.171875 " transform="matrix(0.1,0,0,-0.1,0,216)"/>
<path style=" stroke:none;fill-rule:nonzero;fill:rgb(0%,0%,0%);fill-opacity:1;" d="M 57.941406 66.160156 C 57.941406 66.9375 57.308594 67.566406 56.535156 67.566406 C 55.757812 67.566406 55.128906 66.9375 55.128906 66.160156 C 55.128906 65.386719 55.757812 64.757812 56.535156 64.757812 C 57.308594 64.757812 57.941406 65.386719 57.941406 66.160156 "/>
<path style="fill:none;stroke-width:10;stroke-linecap:round;stroke-linejoin:round;stroke:rgb(0%,0%,0%);stroke-opacity:1;stroke-miterlimit:10;" d="M 579.414062 1498.398438 C 579.414062 1490.625 573.085938 1484.335938 565.351562 1484.335938 C 557.578125 1484.335938 551.289062 1490.625 551.289062 1498.398438 C 551.289062 1506.132812 557.578125 1512.421875 565.351562 1512.421875 C 573.085938 1512.421875 579.414062 1506.132812 579.414062 1498.398438 Z M 579.414062 1498.398438 " transform="matrix(0.1,0,0,-0.1,0,216)"/>
<path style=" stroke:none;fill-rule:nonzero;fill:rgb(0%,0%,0%);fill-opacity:1;" d="M 256.363281 136.246094 C 256.363281 137.023438 255.734375 137.652344 254.960938 137.652344 C 254.183594 137.652344 253.554688 137.023438 253.554688 136.246094 C 253.554688 135.472656 254.183594 134.84375 254.960938 134.84375 C 255.734375 134.84375 256.363281 135.472656 256.363281 136.246094 "/>
<path style="fill:none;stroke-width:10;stroke-linecap:round;stroke-linejoin:round;stroke:rgb(0%,0%,0%);stroke-opacity:1;stroke-miterlimit:10;" d="M 2563.632812 797.539062 C 2563.632812 789.765625 2557.34375 783.476562 2549.609375 783.476562 C 2541.835938 783.476562 2535.546875 789.765625 2535.546875 797.539062 C 2535.546875 805.273438 2541.835938 811.5625 2549.609375 811.5625 C 2557.34375 811.5625 2563.632812 805.273438 2563.632812 797.539062 Z M 2563.632812 797.539062 " transform="matrix(0.1,0,0,-0.1,0,216)"/>
<path style=" stroke:none;fill-rule:nonzero;fill:rgb(0%,0%,0%);fill-opacity:1;" d="M 116.421875 196.992188 C 116.421875 197.105469 116.421875 197.160156 116.421875 197.160156 C 116.3125 197.160156 116.089844 196.992188 115.753906 196.660156 C 115.308594 196.214844 114.976562 195.714844 114.753906 195.15625 C 114.195312 194.15625 113.917969 193.042969 113.917969 191.820312 C 113.917969 190.59375 114.140625 189.480469 114.585938 188.480469 C 115.03125 187.703125 115.53125 187.089844 116.089844 186.644531 C 116.199219 186.53125 116.3125 186.476562 116.421875 186.476562 C 116.421875 186.476562 116.421875 186.53125 116.421875 186.644531 C 116.421875 186.644531 116.367188 186.699219 116.253906 186.8125 C 115.144531 187.925781 114.585938 189.59375 114.585938 191.820312 C 114.585938 194.042969 115.144531 195.714844 116.253906 196.828125 C 116.367188 196.9375 116.421875 196.992188 116.421875 196.992188 "/>
<path style=" stroke:none;fill-rule:nonzero;fill:rgb(0%,0%,0%);fill-opacity:1;" d="M 120.242188 187.644531 L 120.242188 193.65625 C 120.242188 193.878906 120.300781 193.988281 120.410156 193.988281 C 120.519531 194.101562 120.800781 194.15625 121.246094 194.15625 L 121.578125 194.15625 L 121.578125 194.488281 C 121.355469 194.488281 120.742188 194.488281 119.742188 194.488281 C 118.851562 194.488281 118.296875 194.488281 118.074219 194.488281 L 118.074219 194.15625 L 118.40625 194.15625 C 118.964844 194.15625 119.296875 194.101562 119.410156 193.988281 C 119.410156 193.878906 119.410156 193.765625 119.410156 193.65625 L 119.410156 188.148438 C 119.074219 188.257812 118.628906 188.3125 118.074219 188.3125 L 118.074219 187.980469 C 118.851562 187.980469 119.464844 187.757812 119.910156 187.3125 C 120.132812 187.3125 120.242188 187.367188 120.242188 187.480469 C 120.242188 187.480469 120.242188 187.535156 120.242188 187.644531 "/>
<path style=" stroke:none;fill-rule:nonzero;fill:rgb(0%,0%,0%);fill-opacity:1;" d="M 131.796875 191.984375 L 125.953125 191.984375 C 125.734375 191.984375 125.621094 191.929688 125.621094 191.820312 C 125.621094 191.707031 125.734375 191.652344 125.953125 191.652344 L 131.796875 191.652344 C 132.019531 191.652344 132.132812 191.707031 132.132812 191.820312 C 132.132812 191.929688 132.019531 191.984375 131.796875 191.984375 "/>
<path style=" stroke:none;fill-rule:nonzero;fill:rgb(0%,0%,0%);fill-opacity:1;" d="M 140.644531 191.984375 L 140.644531 192.652344 C 141.089844 192.097656 141.421875 191.375 141.644531 190.484375 C 141.644531 190.371094 141.699219 190.316406 141.8125 190.316406 C 141.925781 190.316406 141.980469 190.316406 141.980469 190.316406 C 141.980469 190.539062 141.867188 190.816406 141.644531 191.152344 C 141.421875 191.820312 141.089844 192.429688 140.644531 192.988281 C 140.644531 193.097656 140.644531 193.210938 140.644531 193.320312 C 140.644531 193.988281 140.726562 194.324219 140.894531 194.324219 C 141.0625 194.324219 141.257812 194.210938 141.480469 193.988281 C 141.480469 193.988281 141.480469 193.933594 141.480469 193.820312 C 141.480469 193.820312 141.535156 193.820312 141.644531 193.820312 C 141.757812 193.820312 141.8125 193.820312 141.8125 193.820312 C 141.8125 193.933594 141.699219 194.101562 141.480469 194.324219 C 141.257812 194.546875 141.035156 194.65625 140.8125 194.65625 C 140.367188 194.65625 140.089844 194.378906 139.976562 193.820312 C 139.976562 193.820312 139.921875 193.765625 139.808594 193.65625 C 139.140625 194.324219 138.417969 194.65625 137.640625 194.65625 C 136.972656 194.65625 136.472656 194.378906 136.136719 193.820312 C 136.027344 193.488281 135.96875 193.15625 135.96875 192.820312 C 135.96875 192.042969 136.246094 191.375 136.804688 190.816406 C 137.359375 190.148438 137.972656 189.816406 138.640625 189.816406 C 138.640625 189.816406 138.695312 189.816406 138.808594 189.816406 C 139.363281 189.816406 139.808594 190.039062 140.144531 190.484375 C 140.476562 190.816406 140.644531 191.316406 140.644531 191.984375 Z M 139.808594 193.488281 C 139.808594 193.375 139.808594 192.929688 139.808594 192.152344 C 139.808594 191.375 139.699219 190.816406 139.476562 190.484375 C 139.476562 190.261719 139.421875 190.148438 139.308594 190.148438 L 139.140625 190.148438 C 139.03125 190.039062 138.917969 189.984375 138.808594 189.984375 C 138.253906 189.984375 137.804688 190.261719 137.472656 190.816406 L 137.304688 190.984375 C 137.082031 191.429688 136.914062 191.984375 136.804688 192.652344 C 136.695312 192.875 136.636719 193.042969 136.636719 193.15625 C 136.636719 193.820312 136.859375 194.210938 137.304688 194.324219 C 137.417969 194.324219 137.527344 194.324219 137.640625 194.324219 C 138.417969 194.324219 139.140625 194.042969 139.808594 193.488281 "/>
<path style=" stroke:none;fill-rule:nonzero;fill:rgb(0%,0%,0%);fill-opacity:1;" d="M 145.308594 191.820312 C 145.308594 193.042969 145.085938 194.15625 144.640625 195.15625 C 144.304688 195.9375 143.859375 196.546875 143.304688 196.992188 C 143.191406 197.105469 143.082031 197.160156 142.972656 197.160156 C 142.972656 197.160156 142.972656 197.105469 142.972656 196.992188 C 142.972656 196.992188 142.972656 196.9375 142.972656 196.828125 C 144.195312 195.714844 144.808594 194.042969 144.808594 191.820312 C 144.808594 189.59375 144.25 187.925781 143.136719 186.8125 C 143.027344 186.699219 142.972656 186.644531 142.972656 186.644531 C 142.972656 186.53125 142.972656 186.476562 142.972656 186.476562 C 143.082031 186.476562 143.304688 186.644531 143.640625 186.976562 C 144.085938 187.421875 144.417969 187.925781 144.640625 188.480469 C 145.085938 189.480469 145.308594 190.59375 145.308594 191.820312 "/>
<path style=" stroke:none;fill-rule:nonzero;fill:rgb(0%,0%,0%);fill-opacity:1;" d="M 149.964844 191.316406 L 149.628906 192.652344 C 149.519531 193.210938 149.460938 193.542969 149.460938 193.65625 C 149.460938 193.988281 149.574219 194.210938 149.796875 194.324219 C 149.90625 194.324219 150.019531 194.324219 150.128906 194.324219 C 150.464844 194.324219 150.742188 194.15625 150.964844 193.820312 C 151.1875 193.597656 151.355469 193.320312 151.464844 192.988281 C 151.464844 192.875 151.519531 192.820312 151.632812 192.820312 C 151.742188 192.820312 151.800781 192.875 151.800781 192.988281 C 151.800781 193.097656 151.6875 193.320312 151.464844 193.65625 C 151.019531 194.324219 150.574219 194.65625 150.128906 194.65625 C 149.574219 194.65625 149.183594 194.433594 148.960938 193.988281 C 148.960938 193.878906 148.960938 193.820312 148.960938 193.820312 C 148.738281 194.15625 148.460938 194.378906 148.128906 194.488281 C 148.015625 194.601562 147.902344 194.65625 147.792969 194.65625 C 147.347656 194.65625 147.015625 194.488281 146.789062 194.15625 C 146.789062 194.15625 146.789062 194.042969 146.789062 193.820312 C 146.789062 193.597656 146.902344 193.433594 147.125 193.320312 C 147.238281 193.320312 147.292969 193.320312 147.292969 193.320312 C 147.515625 193.320312 147.683594 193.375 147.792969 193.488281 C 147.792969 193.597656 147.792969 193.65625 147.792969 193.65625 C 147.792969 193.878906 147.683594 194.042969 147.460938 194.15625 C 147.347656 194.15625 147.292969 194.15625 147.292969 194.15625 C 147.402344 194.265625 147.570312 194.324219 147.792969 194.324219 C 148.128906 194.324219 148.40625 194.101562 148.628906 193.65625 C 148.738281 193.542969 148.796875 193.433594 148.796875 193.320312 C 149.128906 191.875 149.296875 190.984375 149.296875 190.652344 C 149.296875 190.207031 149.128906 189.984375 148.796875 189.984375 C 148.460938 189.984375 148.128906 190.207031 147.792969 190.652344 C 147.683594 190.761719 147.570312 190.929688 147.460938 191.152344 C 147.460938 191.152344 147.460938 191.207031 147.460938 191.316406 L 147.292969 191.484375 C 147.179688 191.484375 147.125 191.484375 147.125 191.484375 C 147.125 191.261719 147.238281 190.984375 147.460938 190.652344 C 147.792969 190.09375 148.238281 189.816406 148.796875 189.816406 C 149.351562 189.816406 149.738281 190.09375 149.964844 190.652344 C 150.1875 190.207031 150.464844 189.925781 150.796875 189.816406 C 150.910156 189.816406 151.019531 189.816406 151.132812 189.816406 C 151.578125 189.816406 151.855469 189.925781 151.964844 190.148438 C 152.078125 190.261719 152.132812 190.371094 152.132812 190.484375 C 152.132812 190.816406 151.964844 190.984375 151.632812 190.984375 C 151.632812 191.09375 151.578125 191.152344 151.464844 191.152344 C 151.242188 191.152344 151.132812 191.039062 151.132812 190.816406 C 151.132812 190.816406 151.132812 190.761719 151.132812 190.652344 C 151.132812 190.425781 151.242188 190.261719 151.464844 190.148438 C 151.464844 190.148438 151.519531 190.148438 151.632812 190.148438 C 151.519531 190.039062 151.355469 189.984375 151.132812 189.984375 C 150.574219 189.984375 150.242188 190.371094 150.128906 191.152344 C 150.019531 191.152344 149.964844 191.207031 149.964844 191.316406 "/>
<path style=" stroke:none;fill-rule:nonzero;fill:rgb(0%,0%,0%);fill-opacity:1;" d="M 159.277344 191.984375 L 159.277344 194.988281 C 159.277344 195.214844 159.222656 195.324219 159.109375 195.324219 C 159 195.324219 158.941406 195.214844 158.941406 194.988281 L 158.941406 191.984375 L 155.9375 191.984375 C 155.714844 191.984375 155.605469 191.929688 155.605469 191.820312 C 155.605469 191.707031 155.714844 191.652344 155.9375 191.652344 L 158.941406 191.652344 L 158.941406 188.648438 C 158.941406 188.425781 159 188.3125 159.109375 188.3125 C 159.222656 188.3125 159.277344 188.425781 159.277344 188.648438 L 159.277344 191.652344 L 162.28125 191.652344 C 162.503906 191.652344 162.613281 191.707031 162.613281 191.820312 C 162.613281 191.929688 162.503906 191.984375 162.28125 191.984375 L 159.277344 191.984375 "/>
<path style=" stroke:none;fill-rule:nonzero;fill:rgb(0%,0%,0%);fill-opacity:1;" d="M 170.792969 191.984375 L 170.792969 192.652344 C 171.238281 192.097656 171.574219 191.375 171.796875 190.484375 C 171.796875 190.371094 171.851562 190.316406 171.964844 190.316406 C 172.074219 190.316406 172.128906 190.316406 172.128906 190.316406 C 172.128906 190.539062 172.019531 190.816406 171.796875 191.152344 C 171.574219 191.820312 171.238281 192.429688 170.792969 192.988281 C 170.792969 193.097656 170.792969 193.210938 170.792969 193.320312 C 170.792969 193.988281 170.878906 194.324219 171.046875 194.324219 C 171.210938 194.324219 171.40625 194.210938 171.628906 193.988281 C 171.628906 193.988281 171.628906 193.933594 171.628906 193.820312 C 171.628906 193.820312 171.683594 193.820312 171.796875 193.820312 C 171.90625 193.820312 171.964844 193.820312 171.964844 193.820312 C 171.964844 193.933594 171.851562 194.101562 171.628906 194.324219 C 171.40625 194.546875 171.183594 194.65625 170.960938 194.65625 C 170.515625 194.65625 170.238281 194.378906 170.128906 193.820312 C 170.128906 193.820312 170.070312 193.765625 169.960938 193.65625 C 169.292969 194.324219 168.566406 194.65625 167.789062 194.65625 C 167.121094 194.65625 166.621094 194.378906 166.289062 193.820312 C 166.175781 193.488281 166.121094 193.15625 166.121094 192.820312 C 166.121094 192.042969 166.398438 191.375 166.953125 190.816406 C 167.511719 190.148438 168.121094 189.816406 168.789062 189.816406 C 168.789062 189.816406 168.847656 189.816406 168.957031 189.816406 C 169.515625 189.816406 169.960938 190.039062 170.292969 190.484375 C 170.628906 190.816406 170.792969 191.316406 170.792969 191.984375 Z M 169.960938 193.488281 C 169.960938 193.375 169.960938 192.929688 169.960938 192.152344 C 169.960938 191.375 169.847656 190.816406 169.625 190.484375 C 169.625 190.261719 169.570312 190.148438 169.460938 190.148438 L 169.292969 190.148438 C 169.179688 190.039062 169.070312 189.984375 168.957031 189.984375 C 168.402344 189.984375 167.957031 190.261719 167.621094 190.816406 L 167.457031 190.984375 C 167.234375 191.429688 167.066406 191.984375 166.953125 192.652344 C 166.84375 192.875 166.789062 193.042969 166.789062 193.15625 C 166.789062 193.820312 167.011719 194.210938 167.457031 194.324219 C 167.566406 194.324219 167.679688 194.324219 167.789062 194.324219 C 168.566406 194.324219 169.292969 194.042969 169.960938 193.488281 "/>
<path style=" stroke:none;fill-rule:nonzero;fill:rgb(0%,0%,0%);fill-opacity:1;" d="M 177.628906 190.484375 L 176.625 194.488281 C 176.402344 195.15625 176.015625 195.714844 175.457031 196.160156 C 175.011719 196.492188 174.566406 196.660156 174.121094 196.660156 C 173.675781 196.660156 173.34375 196.492188 173.121094 196.160156 C 173.011719 196.046875 172.953125 195.9375 172.953125 195.824219 C 172.953125 195.378906 173.121094 195.15625 173.453125 195.15625 C 173.453125 195.046875 173.511719 194.988281 173.621094 194.988281 C 173.84375 194.988281 173.953125 195.101562 173.953125 195.324219 C 173.953125 195.324219 173.953125 195.378906 173.953125 195.492188 C 173.953125 195.601562 173.898438 195.714844 173.789062 195.824219 C 173.675781 195.9375 173.511719 195.992188 173.289062 195.992188 C 173.398438 196.324219 173.675781 196.492188 174.121094 196.492188 C 174.566406 196.492188 174.957031 196.269531 175.289062 195.824219 C 175.625 195.378906 175.847656 194.878906 175.960938 194.324219 C 175.960938 194.210938 175.960938 194.15625 175.960938 194.15625 C 175.625 194.488281 175.289062 194.65625 174.957031 194.65625 C 174.402344 194.65625 174.011719 194.433594 173.789062 193.988281 C 173.675781 193.765625 173.621094 193.542969 173.621094 193.320312 C 173.621094 192.988281 173.789062 192.265625 174.121094 191.152344 C 174.121094 191.152344 174.179688 191.152344 174.289062 191.152344 C 174.402344 190.816406 174.457031 190.539062 174.457031 190.316406 C 174.457031 190.09375 174.34375 189.984375 174.121094 189.984375 C 173.789062 189.984375 173.453125 190.316406 173.121094 190.984375 C 173.121094 191.09375 173.121094 191.207031 173.121094 191.316406 C 173.011719 191.429688 172.953125 191.484375 172.953125 191.484375 C 172.84375 191.484375 172.785156 191.484375 172.785156 191.484375 C 172.785156 191.261719 172.84375 191.039062 172.953125 190.816406 C 173.289062 190.148438 173.675781 189.816406 174.121094 189.816406 C 174.566406 189.816406 174.847656 189.984375 174.957031 190.316406 C 175.066406 190.425781 175.125 190.539062 175.125 190.652344 C 175.125 190.761719 175.011719 191.039062 174.789062 191.484375 C 174.457031 192.375 174.289062 193.042969 174.289062 193.488281 C 174.289062 194.042969 174.511719 194.324219 174.957031 194.324219 C 175.402344 194.324219 175.734375 194.101562 175.960938 193.65625 C 176.070312 193.542969 176.125 193.488281 176.125 193.488281 L 176.625 191.484375 C 176.738281 191.261719 176.792969 190.984375 176.792969 190.652344 C 176.902344 190.316406 176.960938 190.148438 176.960938 190.148438 C 177.070312 189.925781 177.238281 189.816406 177.460938 189.816406 C 177.570312 189.925781 177.628906 190.039062 177.628906 190.148438 C 177.628906 190.261719 177.628906 190.371094 177.628906 190.484375 "/>
<path style=" stroke:none;fill-rule:nonzero;fill:rgb(0%,0%,0%);fill-opacity:1;" d="M 77.066406 118.277344 C 77.066406 118.390625 77.066406 118.445312 77.066406 118.445312 C 76.953125 118.445312 76.730469 118.277344 76.398438 117.945312 C 75.953125 117.5 75.617188 117 75.398438 116.441406 C 74.839844 115.441406 74.5625 114.328125 74.5625 113.105469 C 74.5625 111.878906 74.785156 110.769531 75.230469 109.765625 C 75.675781 108.988281 76.175781 108.375 76.730469 107.929688 C 76.84375 107.820312 76.953125 107.761719 77.066406 107.761719 C 77.066406 107.761719 77.066406 107.820312 77.066406 107.929688 C 77.066406 107.929688 77.011719 107.984375 76.898438 108.097656 C 75.785156 109.210938 75.230469 110.878906 75.230469 113.105469 C 75.230469 115.328125 75.785156 117 76.898438 118.113281 C 77.011719 118.222656 77.066406 118.277344 77.066406 118.277344 "/>
<path style=" stroke:none;fill-rule:nonzero;fill:rgb(0%,0%,0%);fill-opacity:1;" d="M 80.886719 108.933594 L 80.886719 114.941406 C 80.886719 115.164062 80.941406 115.273438 81.050781 115.273438 C 81.164062 115.386719 81.441406 115.441406 81.886719 115.441406 L 82.222656 115.441406 L 82.222656 115.773438 C 82 115.773438 81.386719 115.773438 80.386719 115.773438 C 79.496094 115.773438 78.9375 115.773438 78.714844 115.773438 L 78.714844 115.441406 L 79.050781 115.441406 C 79.605469 115.441406 79.941406 115.386719 80.050781 115.273438 C 80.050781 115.164062 80.050781 115.050781 80.050781 114.941406 L 80.050781 109.433594 C 79.71875 109.542969 79.273438 109.601562 78.714844 109.601562 L 78.714844 109.265625 C 79.496094 109.265625 80.105469 109.042969 80.550781 108.597656 C 80.773438 108.597656 80.886719 108.652344 80.886719 108.765625 C 80.886719 108.765625 80.886719 108.820312 80.886719 108.933594 "/>
<path style=" stroke:none;fill-rule:nonzero;fill:rgb(0%,0%,0%);fill-opacity:1;" d="M 92.441406 113.269531 L 86.597656 113.269531 C 86.375 113.269531 86.265625 113.214844 86.265625 113.105469 C 86.265625 112.992188 86.375 112.9375 86.597656 112.9375 L 92.441406 112.9375 C 92.664062 112.9375 92.773438 112.992188 92.773438 113.105469 C 92.773438 113.214844 92.664062 113.269531 92.441406 113.269531 "/>
<path style=" stroke:none;fill-rule:nonzero;fill:rgb(0%,0%,0%);fill-opacity:1;" d="M 101.285156 113.269531 L 101.285156 113.9375 C 101.730469 113.382812 102.066406 112.660156 102.289062 111.769531 C 102.289062 111.65625 102.34375 111.601562 102.453125 111.601562 C 102.566406 111.601562 102.621094 111.601562 102.621094 111.601562 C 102.621094 111.824219 102.511719 112.101562 102.289062 112.4375 C 102.066406 113.105469 101.730469 113.71875 101.285156 114.273438 C 101.285156 114.382812 101.285156 114.496094 101.285156 114.605469 C 101.285156 115.273438 101.371094 115.609375 101.539062 115.609375 C 101.703125 115.609375 101.898438 115.496094 102.121094 115.273438 C 102.121094 115.273438 102.121094 115.21875 102.121094 115.109375 C 102.121094 115.109375 102.175781 115.109375 102.289062 115.109375 C 102.398438 115.109375 102.453125 115.109375 102.453125 115.109375 C 102.453125 115.21875 102.34375 115.386719 102.121094 115.609375 C 101.898438 115.832031 101.675781 115.941406 101.453125 115.941406 C 101.007812 115.941406 100.730469 115.664062 100.617188 115.109375 C 100.617188 115.109375 100.5625 115.050781 100.453125 114.941406 C 99.785156 115.609375 99.0625 115.941406 98.28125 115.941406 C 97.613281 115.941406 97.113281 115.664062 96.78125 115.109375 C 96.667969 114.773438 96.613281 114.441406 96.613281 114.105469 C 96.613281 113.328125 96.890625 112.660156 97.449219 112.101562 C 98.003906 111.4375 98.617188 111.101562 99.285156 111.101562 C 99.285156 111.101562 99.339844 111.101562 99.449219 111.101562 C 100.007812 111.101562 100.453125 111.324219 100.785156 111.769531 C 101.121094 112.101562 101.285156 112.605469 101.285156 113.269531 Z M 100.453125 114.773438 C 100.453125 114.660156 100.453125 114.21875 100.453125 113.4375 C 100.453125 112.660156 100.339844 112.101562 100.117188 111.769531 C 100.117188 111.546875 100.0625 111.4375 99.953125 111.4375 L 99.785156 111.4375 C 99.671875 111.324219 99.5625 111.269531 99.449219 111.269531 C 98.894531 111.269531 98.449219 111.546875 98.117188 112.101562 L 97.949219 112.269531 C 97.726562 112.714844 97.558594 113.269531 97.449219 113.9375 C 97.335938 114.160156 97.28125 114.328125 97.28125 114.441406 C 97.28125 115.109375 97.503906 115.496094 97.949219 115.609375 C 98.058594 115.609375 98.171875 115.609375 98.28125 115.609375 C 99.0625 115.609375 99.785156 115.328125 100.453125 114.773438 "/>
<path style=" stroke:none;fill-rule:nonzero;fill:rgb(0%,0%,0%);fill-opacity:1;" d="M 105.949219 113.105469 C 105.949219 114.328125 105.726562 115.441406 105.28125 116.441406 C 104.949219 117.222656 104.503906 117.835938 103.949219 118.277344 C 103.835938 118.390625 103.726562 118.445312 103.613281 118.445312 C 103.613281 118.445312 103.613281 118.390625 103.613281 118.277344 C 103.613281 118.277344 103.613281 118.222656 103.613281 118.113281 C 104.839844 117 105.449219 115.328125 105.449219 113.105469 C 105.449219 110.878906 104.894531 109.210938 103.78125 108.097656 C 103.671875 107.984375 103.613281 107.929688 103.613281 107.929688 C 103.613281 107.820312 103.613281 107.761719 103.613281 107.761719 C 103.726562 107.761719 103.949219 107.929688 104.28125 108.265625 C 104.726562 108.710938 105.0625 109.210938 105.28125 109.765625 C 105.726562 110.769531 105.949219 111.878906 105.949219 113.105469 "/>
<path style=" stroke:none;fill-rule:nonzero;fill:rgb(0%,0%,0%);fill-opacity:1;" d="M 110.941406 111.4375 L 110.4375 114.941406 C 110.328125 115.386719 110.160156 115.886719 109.9375 116.441406 C 109.9375 116.664062 109.882812 116.832031 109.769531 116.945312 C 109.550781 117.5 109.214844 117.835938 108.769531 117.945312 C 108.769531 117.945312 108.714844 117.945312 108.601562 117.945312 C 108.269531 117.945312 107.992188 117.835938 107.769531 117.609375 C 107.65625 117.5 107.601562 117.390625 107.601562 117.277344 C 107.601562 116.945312 107.769531 116.722656 108.101562 116.609375 C 108.101562 116.609375 108.15625 116.609375 108.269531 116.609375 C 108.492188 116.609375 108.601562 116.664062 108.601562 116.777344 C 108.601562 116.886719 108.601562 116.945312 108.601562 116.945312 C 108.601562 117.167969 108.492188 117.332031 108.269531 117.445312 C 108.269531 117.445312 108.214844 117.5 108.101562 117.609375 C 108.214844 117.722656 108.378906 117.777344 108.601562 117.777344 C 108.9375 117.777344 109.160156 117.390625 109.269531 116.609375 C 109.382812 116.5 109.4375 116.332031 109.4375 116.109375 L 109.4375 115.773438 L 110.273438 111.4375 L 109.605469 111.4375 C 109.382812 111.4375 109.269531 111.4375 109.269531 111.4375 C 109.269531 111.324219 109.324219 111.214844 109.4375 111.101562 L 110.4375 111.101562 C 110.550781 110.210938 110.660156 109.65625 110.773438 109.433594 C 110.996094 108.765625 111.328125 108.375 111.773438 108.265625 C 111.886719 108.265625 111.996094 108.265625 112.109375 108.265625 C 112.441406 108.265625 112.71875 108.375 112.941406 108.597656 C 112.941406 108.710938 112.941406 108.820312 112.941406 108.933594 C 112.941406 109.265625 112.832031 109.488281 112.609375 109.601562 C 112.609375 109.601562 112.554688 109.601562 112.441406 109.601562 C 112.21875 109.601562 112.109375 109.542969 112.109375 109.433594 C 111.996094 109.320312 111.941406 109.265625 111.941406 109.265625 C 111.941406 109.042969 112.050781 108.875 112.273438 108.765625 C 112.386719 108.765625 112.496094 108.710938 112.609375 108.597656 C 112.496094 108.488281 112.328125 108.429688 112.109375 108.429688 C 111.886719 108.429688 111.71875 108.542969 111.605469 108.765625 C 111.496094 108.875 111.386719 109.265625 111.273438 109.933594 L 111.105469 111.101562 L 111.941406 111.101562 C 112.164062 111.101562 112.273438 111.15625 112.273438 111.269531 C 112.273438 111.378906 112.21875 111.4375 112.109375 111.4375 L 110.941406 111.4375 "/>
<path style=" stroke:none;fill-rule:nonzero;fill:rgb(0%,0%,0%);fill-opacity:1;" d="M 116.984375 118.277344 C 116.984375 118.390625 116.984375 118.445312 116.984375 118.445312 C 116.875 118.445312 116.652344 118.277344 116.316406 117.945312 C 115.871094 117.5 115.539062 117 115.316406 116.441406 C 114.761719 115.441406 114.480469 114.328125 114.480469 113.105469 C 114.480469 111.878906 114.703125 110.769531 115.148438 109.765625 C 115.59375 108.988281 116.097656 108.375 116.652344 107.929688 C 116.761719 107.820312 116.875 107.761719 116.984375 107.761719 C 116.984375 107.761719 116.984375 107.820312 116.984375 107.929688 C 116.984375 107.929688 116.929688 107.984375 116.820312 108.097656 C 115.707031 109.210938 115.148438 110.878906 115.148438 113.105469 C 115.148438 115.328125 115.707031 117 116.820312 118.113281 C 116.929688 118.222656 116.984375 118.277344 116.984375 118.277344 "/>
<path style=" stroke:none;fill-rule:nonzero;fill:rgb(0%,0%,0%);fill-opacity:1;" d="M 121.140625 112.605469 L 120.804688 113.9375 C 120.695312 114.496094 120.640625 114.828125 120.640625 114.941406 C 120.640625 115.273438 120.75 115.496094 120.972656 115.609375 C 121.085938 115.609375 121.195312 115.609375 121.308594 115.609375 C 121.640625 115.609375 121.917969 115.441406 122.140625 115.109375 C 122.363281 114.886719 122.53125 114.605469 122.644531 114.273438 C 122.644531 114.160156 122.699219 114.105469 122.808594 114.105469 C 122.921875 114.105469 122.976562 114.160156 122.976562 114.273438 C 122.976562 114.382812 122.863281 114.605469 122.644531 114.941406 C 122.195312 115.609375 121.753906 115.941406 121.308594 115.941406 C 120.75 115.941406 120.359375 115.71875 120.140625 115.273438 C 120.140625 115.164062 120.140625 115.109375 120.140625 115.109375 C 119.914062 115.441406 119.636719 115.664062 119.304688 115.773438 C 119.191406 115.886719 119.082031 115.941406 118.96875 115.941406 C 118.523438 115.941406 118.191406 115.773438 117.96875 115.441406 C 117.96875 115.441406 117.96875 115.328125 117.96875 115.109375 C 117.96875 114.886719 118.078125 114.71875 118.304688 114.605469 C 118.414062 114.605469 118.46875 114.605469 118.46875 114.605469 C 118.691406 114.605469 118.859375 114.660156 118.96875 114.773438 C 118.96875 114.886719 118.96875 114.941406 118.96875 114.941406 C 118.96875 115.164062 118.859375 115.328125 118.636719 115.441406 C 118.523438 115.441406 118.46875 115.441406 118.46875 115.441406 C 118.582031 115.554688 118.746094 115.609375 118.96875 115.609375 C 119.304688 115.609375 119.582031 115.386719 119.804688 114.941406 C 119.914062 114.828125 119.972656 114.71875 119.972656 114.605469 C 120.304688 113.160156 120.472656 112.269531 120.472656 111.9375 C 120.472656 111.492188 120.304688 111.269531 119.972656 111.269531 C 119.636719 111.269531 119.304688 111.492188 118.96875 111.9375 C 118.859375 112.046875 118.746094 112.214844 118.636719 112.4375 C 118.636719 112.4375 118.636719 112.492188 118.636719 112.605469 L 118.46875 112.769531 C 118.359375 112.769531 118.304688 112.769531 118.304688 112.769531 C 118.304688 112.546875 118.414062 112.269531 118.636719 111.9375 C 118.96875 111.378906 119.414062 111.101562 119.972656 111.101562 C 120.527344 111.101562 120.917969 111.378906 121.140625 111.9375 C 121.363281 111.492188 121.640625 111.214844 121.976562 111.101562 C 122.085938 111.101562 122.195312 111.101562 122.308594 111.101562 C 122.753906 111.101562 123.03125 111.214844 123.144531 111.4375 C 123.253906 111.546875 123.308594 111.65625 123.308594 111.769531 C 123.308594 112.101562 123.144531 112.269531 122.808594 112.269531 C 122.808594 112.382812 122.753906 112.4375 122.644531 112.4375 C 122.421875 112.4375 122.308594 112.324219 122.308594 112.101562 C 122.308594 112.101562 122.308594 112.046875 122.308594 111.9375 C 122.308594 111.714844 122.421875 111.546875 122.644531 111.4375 C 122.644531 111.4375 122.699219 111.4375 122.808594 111.4375 C 122.699219 111.324219 122.53125 111.269531 122.308594 111.269531 C 121.753906 111.269531 121.417969 111.65625 121.308594 112.4375 C 121.195312 112.4375 121.140625 112.492188 121.140625 112.605469 "/>
<path style=" stroke:none;fill-rule:nonzero;fill:rgb(0%,0%,0%);fill-opacity:1;" d="M 126.746094 113.105469 C 126.746094 114.328125 126.523438 115.441406 126.078125 116.441406 C 125.742188 117.222656 125.296875 117.835938 124.742188 118.277344 C 124.628906 118.390625 124.519531 118.445312 124.40625 118.445312 C 124.40625 118.445312 124.40625 118.390625 124.40625 118.277344 C 124.40625 118.277344 124.40625 118.222656 124.40625 118.113281 C 125.632812 117 126.242188 115.328125 126.242188 113.105469 C 126.242188 110.878906 125.6875 109.210938 124.574219 108.097656 C 124.464844 107.984375 124.40625 107.929688 124.40625 107.929688 C 124.40625 107.820312 124.40625 107.761719 124.40625 107.761719 C 124.519531 107.761719 124.742188 107.929688 125.074219 108.265625 C 125.519531 108.710938 125.855469 109.210938 126.078125 109.765625 C 126.523438 110.769531 126.746094 111.878906 126.746094 113.105469 "/>
<path style=" stroke:none;fill-rule:nonzero;fill:rgb(0%,0%,0%);fill-opacity:1;" d="M 134.609375 113.269531 L 134.609375 116.277344 C 134.609375 116.5 134.554688 116.609375 134.441406 116.609375 C 134.328125 116.609375 134.273438 116.5 134.273438 116.277344 L 134.273438 113.269531 L 131.269531 113.269531 C 131.046875 113.269531 130.9375 113.214844 130.9375 113.105469 C 130.9375 112.992188 131.046875 112.9375 131.269531 112.9375 L 134.273438 112.9375 L 134.273438 109.933594 C 134.273438 109.710938 134.328125 109.601562 134.441406 109.601562 C 134.554688 109.601562 134.609375 109.710938 134.609375 109.933594 L 134.609375 112.9375 L 137.613281 112.9375 C 137.835938 112.9375 137.945312 112.992188 137.945312 113.105469 C 137.945312 113.214844 137.835938 113.269531 137.613281 113.269531 L 134.609375 113.269531 "/>
<path style=" stroke:none;fill-rule:nonzero;fill:rgb(0%,0%,0%);fill-opacity:1;" d="M 146.125 113.269531 L 146.125 113.9375 C 146.570312 113.382812 146.90625 112.660156 147.128906 111.769531 C 147.128906 111.65625 147.183594 111.601562 147.292969 111.601562 C 147.40625 111.601562 147.460938 111.601562 147.460938 111.601562 C 147.460938 111.824219 147.351562 112.101562 147.128906 112.4375 C 146.90625 113.105469 146.570312 113.71875 146.125 114.273438 C 146.125 114.382812 146.125 114.496094 146.125 114.605469 C 146.125 115.273438 146.210938 115.609375 146.375 115.609375 C 146.542969 115.609375 146.738281 115.496094 146.960938 115.273438 C 146.960938 115.273438 146.960938 115.21875 146.960938 115.109375 C 146.960938 115.109375 147.015625 115.109375 147.128906 115.109375 C 147.238281 115.109375 147.292969 115.109375 147.292969 115.109375 C 147.292969 115.21875 147.183594 115.386719 146.960938 115.609375 C 146.738281 115.832031 146.515625 115.941406 146.292969 115.941406 C 145.847656 115.941406 145.570312 115.664062 145.457031 115.109375 C 145.457031 115.109375 145.402344 115.050781 145.289062 114.941406 C 144.621094 115.609375 143.898438 115.941406 143.121094 115.941406 C 142.453125 115.941406 141.953125 115.664062 141.617188 115.109375 C 141.507812 114.773438 141.453125 114.441406 141.453125 114.105469 C 141.453125 113.328125 141.730469 112.660156 142.285156 112.101562 C 142.84375 111.4375 143.453125 111.101562 144.121094 111.101562 C 144.121094 111.101562 144.179688 111.101562 144.289062 111.101562 C 144.847656 111.101562 145.289062 111.324219 145.625 111.769531 C 145.960938 112.101562 146.125 112.605469 146.125 113.269531 Z M 145.289062 114.773438 C 145.289062 114.660156 145.289062 114.21875 145.289062 113.4375 C 145.289062 112.660156 145.179688 112.101562 144.957031 111.769531 C 144.957031 111.546875 144.902344 111.4375 144.789062 111.4375 L 144.621094 111.4375 C 144.511719 111.324219 144.402344 111.269531 144.289062 111.269531 C 143.734375 111.269531 143.289062 111.546875 142.953125 112.101562 L 142.789062 112.269531 C 142.566406 112.714844 142.398438 113.269531 142.285156 113.9375 C 142.175781 114.160156 142.121094 114.328125 142.121094 114.441406 C 142.121094 115.109375 142.34375 115.496094 142.789062 115.609375 C 142.898438 115.609375 143.011719 115.609375 143.121094 115.609375 C 143.898438 115.609375 144.621094 115.328125 145.289062 114.773438 "/>
<path style=" stroke:none;fill-rule:nonzero;fill:rgb(0%,0%,0%);fill-opacity:1;" d="M 151.625 111.4375 L 151.121094 114.941406 C 151.011719 115.386719 150.84375 115.886719 150.621094 116.441406 C 150.621094 116.664062 150.566406 116.832031 150.457031 116.945312 C 150.234375 117.5 149.898438 117.835938 149.453125 117.945312 C 149.453125 117.945312 149.398438 117.945312 149.285156 117.945312 C 148.953125 117.945312 148.675781 117.835938 148.453125 117.609375 C 148.339844 117.5 148.285156 117.390625 148.285156 117.277344 C 148.285156 116.945312 148.453125 116.722656 148.785156 116.609375 C 148.785156 116.609375 148.84375 116.609375 148.953125 116.609375 C 149.175781 116.609375 149.285156 116.664062 149.285156 116.777344 C 149.285156 116.886719 149.285156 116.945312 149.285156 116.945312 C 149.285156 117.167969 149.175781 117.332031 148.953125 117.445312 C 148.953125 117.445312 148.898438 117.5 148.785156 117.609375 C 148.898438 117.722656 149.066406 117.777344 149.285156 117.777344 C 149.621094 117.777344 149.84375 117.390625 149.953125 116.609375 C 150.066406 116.5 150.121094 116.332031 150.121094 116.109375 L 150.121094 115.773438 L 150.957031 111.4375 L 150.289062 111.4375 C 150.066406 111.4375 149.953125 111.4375 149.953125 111.4375 C 149.953125 111.324219 150.011719 111.214844 150.121094 111.101562 L 151.121094 111.101562 C 151.234375 110.210938 151.347656 109.65625 151.457031 109.433594 C 151.679688 108.765625 152.015625 108.375 152.460938 108.265625 C 152.570312 108.265625 152.679688 108.265625 152.792969 108.265625 C 153.125 108.265625 153.40625 108.375 153.628906 108.597656 C 153.628906 108.710938 153.628906 108.820312 153.628906 108.933594 C 153.628906 109.265625 153.515625 109.488281 153.292969 109.601562 C 153.292969 109.601562 153.238281 109.601562 153.125 109.601562 C 152.902344 109.601562 152.792969 109.542969 152.792969 109.433594 C 152.679688 109.320312 152.625 109.265625 152.625 109.265625 C 152.625 109.042969 152.738281 108.875 152.960938 108.765625 C 153.070312 108.765625 153.183594 108.710938 153.292969 108.597656 C 153.183594 108.488281 153.015625 108.429688 152.792969 108.429688 C 152.570312 108.429688 152.402344 108.542969 152.292969 108.765625 C 152.179688 108.875 152.070312 109.265625 151.957031 109.933594 L 151.789062 111.101562 L 152.625 111.101562 C 152.847656 111.101562 152.960938 111.15625 152.960938 111.269531 C 152.960938 111.378906 152.902344 111.4375 152.792969 111.4375 L 151.625 111.4375 "/>
<path style=" stroke:none;fill-rule:nonzero;fill:rgb(0%,0%,0%);fill-opacity:1;" d="M 157.671875 118.277344 C 157.671875 118.390625 157.671875 118.445312 157.671875 118.445312 C 157.558594 118.445312 157.335938 118.277344 157.003906 117.945312 C 156.558594 117.5 156.222656 117 156 116.441406 C 155.445312 115.441406 155.164062 114.328125 155.164062 113.105469 C 155.164062 111.878906 155.390625 110.769531 155.835938 109.765625 C 156.277344 108.988281 156.78125 108.375 157.335938 107.929688 C 157.449219 107.820312 157.558594 107.761719 157.671875 107.761719 C 157.671875 107.761719 157.671875 107.820312 157.671875 107.929688 C 157.671875 107.929688 157.613281 107.984375 157.503906 108.097656 C 156.390625 109.210938 155.835938 110.878906 155.835938 113.105469 C 155.835938 115.328125 156.390625 117 157.503906 118.113281 C 157.613281 118.222656 157.671875 118.277344 157.671875 118.277344 "/>
<path style=" stroke:none;fill-rule:nonzero;fill:rgb(0%,0%,0%);fill-opacity:1;" d="M 163.492188 111.769531 L 162.492188 115.773438 C 162.269531 116.441406 161.878906 117 161.324219 117.445312 C 160.878906 117.777344 160.433594 117.945312 159.988281 117.945312 C 159.542969 117.945312 159.210938 117.777344 158.988281 117.445312 C 158.875 117.332031 158.820312 117.222656 158.820312 117.109375 C 158.820312 116.664062 158.988281 116.441406 159.320312 116.441406 C 159.320312 116.332031 159.378906 116.277344 159.488281 116.277344 C 159.710938 116.277344 159.820312 116.386719 159.820312 116.609375 C 159.820312 116.609375 159.820312 116.664062 159.820312 116.777344 C 159.820312 116.886719 159.765625 117 159.65625 117.109375 C 159.542969 117.222656 159.378906 117.277344 159.152344 117.277344 C 159.265625 117.609375 159.542969 117.777344 159.988281 117.777344 C 160.433594 117.777344 160.824219 117.554688 161.15625 117.109375 C 161.492188 116.664062 161.714844 116.164062 161.824219 115.609375 C 161.824219 115.496094 161.824219 115.441406 161.824219 115.441406 C 161.492188 115.773438 161.15625 115.941406 160.824219 115.941406 C 160.265625 115.941406 159.878906 115.71875 159.65625 115.273438 C 159.542969 115.050781 159.488281 114.828125 159.488281 114.605469 C 159.488281 114.273438 159.65625 113.550781 159.988281 112.4375 C 159.988281 112.4375 160.042969 112.4375 160.15625 112.4375 C 160.265625 112.101562 160.320312 111.824219 160.320312 111.601562 C 160.320312 111.378906 160.210938 111.269531 159.988281 111.269531 C 159.65625 111.269531 159.320312 111.601562 158.988281 112.269531 C 158.988281 112.382812 158.988281 112.492188 158.988281 112.605469 C 158.875 112.714844 158.820312 112.769531 158.820312 112.769531 C 158.710938 112.769531 158.652344 112.769531 158.652344 112.769531 C 158.652344 112.546875 158.710938 112.324219 158.820312 112.101562 C 159.152344 111.4375 159.542969 111.101562 159.988281 111.101562 C 160.433594 111.101562 160.710938 111.269531 160.824219 111.601562 C 160.933594 111.714844 160.988281 111.824219 160.988281 111.9375 C 160.988281 112.046875 160.878906 112.324219 160.65625 112.769531 C 160.320312 113.660156 160.15625 114.328125 160.15625 114.773438 C 160.15625 115.328125 160.378906 115.609375 160.824219 115.609375 C 161.269531 115.609375 161.601562 115.386719 161.824219 114.941406 C 161.9375 114.828125 161.992188 114.773438 161.992188 114.773438 L 162.492188 112.769531 C 162.605469 112.546875 162.660156 112.269531 162.660156 111.9375 C 162.769531 111.601562 162.824219 111.4375 162.824219 111.4375 C 162.9375 111.214844 163.105469 111.101562 163.328125 111.101562 C 163.4375 111.214844 163.492188 111.324219 163.492188 111.4375 C 163.492188 111.546875 163.492188 111.65625 163.492188 111.769531 "/>
<path style=" stroke:none;fill-rule:nonzero;fill:rgb(0%,0%,0%);fill-opacity:1;" d="M 166.945312 113.105469 C 166.945312 114.328125 166.722656 115.441406 166.277344 116.441406 C 165.941406 117.222656 165.496094 117.835938 164.941406 118.277344 C 164.828125 118.390625 164.71875 118.445312 164.609375 118.445312 C 164.609375 118.445312 164.609375 118.390625 164.609375 118.277344 C 164.609375 118.277344 164.609375 118.222656 164.609375 118.113281 C 165.832031 117 166.445312 115.328125 166.445312 113.105469 C 166.445312 110.878906 165.886719 109.210938 164.773438 108.097656 C 164.664062 107.984375 164.609375 107.929688 164.609375 107.929688 C 164.609375 107.820312 164.609375 107.761719 164.609375 107.761719 C 164.71875 107.761719 164.941406 107.929688 165.273438 108.265625 C 165.722656 108.710938 166.054688 109.210938 166.277344 109.765625 C 166.722656 110.769531 166.945312 111.878906 166.945312 113.105469 "/>
<path style=" stroke:none;fill-rule:nonzero;fill:rgb(0%,0%,0%);fill-opacity:1;" d="M 56.917969 184.625 L 56.585938 185.960938 C 56.472656 186.519531 56.417969 186.851562 56.417969 186.960938 C 56.417969 187.296875 56.527344 187.519531 56.75 187.628906 C 56.863281 187.628906 56.972656 187.628906 57.085938 187.628906 C 57.417969 187.628906 57.699219 187.464844 57.917969 187.128906 C 58.144531 186.90625 58.308594 186.628906 58.421875 186.292969 C 58.421875 186.183594 58.476562 186.128906 58.585938 186.128906 C 58.699219 186.128906 58.753906 186.183594 58.753906 186.292969 C 58.753906 186.40625 58.644531 186.628906 58.421875 186.960938 C 57.976562 187.628906 57.53125 187.964844 57.085938 187.964844 C 56.527344 187.964844 56.140625 187.742188 55.917969 187.296875 C 55.917969 187.183594 55.917969 187.128906 55.917969 187.128906 C 55.695312 187.464844 55.414062 187.6875 55.082031 187.796875 C 54.972656 187.910156 54.859375 187.964844 54.75 187.964844 C 54.304688 187.964844 53.96875 187.796875 53.746094 187.464844 C 53.746094 187.464844 53.746094 187.351562 53.746094 187.128906 C 53.746094 186.90625 53.859375 186.738281 54.082031 186.628906 C 54.191406 186.628906 54.246094 186.628906 54.246094 186.628906 C 54.46875 186.628906 54.636719 186.683594 54.75 186.796875 C 54.75 186.90625 54.75 186.960938 54.75 186.960938 C 54.75 187.183594 54.636719 187.351562 54.414062 187.464844 C 54.304688 187.464844 54.246094 187.464844 54.246094 187.464844 C 54.359375 187.574219 54.527344 187.628906 54.75 187.628906 C 55.082031 187.628906 55.359375 187.40625 55.582031 186.960938 C 55.695312 186.851562 55.75 186.738281 55.75 186.628906 C 56.085938 185.183594 56.25 184.292969 56.25 183.957031 C 56.25 183.511719 56.085938 183.289062 55.75 183.289062 C 55.414062 183.289062 55.082031 183.511719 54.75 183.957031 C 54.636719 184.070312 54.527344 184.234375 54.414062 184.460938 C 54.414062 184.460938 54.414062 184.515625 54.414062 184.625 L 54.246094 184.792969 C 54.136719 184.792969 54.082031 184.792969 54.082031 184.792969 C 54.082031 184.570312 54.191406 184.292969 54.414062 183.957031 C 54.75 183.402344 55.195312 183.125 55.75 183.125 C 56.304688 183.125 56.695312 183.402344 56.917969 183.957031 C 57.140625 183.511719 57.417969 183.234375 57.753906 183.125 C 57.863281 183.125 57.976562 183.125 58.085938 183.125 C 58.53125 183.125 58.808594 183.234375 58.921875 183.457031 C 59.03125 183.570312 59.089844 183.679688 59.089844 183.792969 C 59.089844 184.125 58.921875 184.292969 58.585938 184.292969 C 58.585938 184.402344 58.53125 184.460938 58.421875 184.460938 C 58.199219 184.460938 58.085938 184.347656 58.085938 184.125 C 58.085938 184.125 58.085938 184.070312 58.085938 183.957031 C 58.085938 183.734375 58.199219 183.570312 58.421875 183.457031 C 58.421875 183.457031 58.476562 183.457031 58.585938 183.457031 C 58.476562 183.347656 58.308594 183.289062 58.085938 183.289062 C 57.53125 183.289062 57.195312 183.679688 57.085938 184.460938 C 56.972656 184.460938 56.917969 184.515625 56.917969 184.625 "/>
<path style=" stroke:none;fill-rule:nonzero;fill:rgb(0%,0%,0%);fill-opacity:1;" d="M 257.714844 182.386719 L 256.714844 186.390625 C 256.492188 187.058594 256.101562 187.617188 255.546875 188.0625 C 255.101562 188.394531 254.65625 188.5625 254.210938 188.5625 C 253.765625 188.5625 253.429688 188.394531 253.210938 188.0625 C 253.097656 187.949219 253.042969 187.839844 253.042969 187.726562 C 253.042969 187.28125 253.210938 187.058594 253.542969 187.058594 C 253.542969 186.949219 253.597656 186.890625 253.710938 186.890625 C 253.933594 186.890625 254.042969 187.003906 254.042969 187.226562 C 254.042969 187.226562 254.042969 187.28125 254.042969 187.394531 C 254.042969 187.503906 253.988281 187.617188 253.878906 187.726562 C 253.765625 187.839844 253.597656 187.894531 253.375 187.894531 C 253.488281 188.226562 253.765625 188.394531 254.210938 188.394531 C 254.65625 188.394531 255.046875 188.171875 255.378906 187.726562 C 255.714844 187.28125 255.933594 186.78125 256.046875 186.222656 C 256.046875 186.113281 256.046875 186.058594 256.046875 186.058594 C 255.714844 186.390625 255.378906 186.558594 255.046875 186.558594 C 254.488281 186.558594 254.097656 186.335938 253.878906 185.890625 C 253.765625 185.667969 253.710938 185.445312 253.710938 185.222656 C 253.710938 184.890625 253.878906 184.164062 254.210938 183.054688 C 254.210938 183.054688 254.265625 183.054688 254.378906 183.054688 C 254.488281 182.71875 254.542969 182.441406 254.542969 182.21875 C 254.542969 181.996094 254.433594 181.886719 254.210938 181.886719 C 253.878906 181.886719 253.542969 182.21875 253.210938 182.886719 C 253.210938 182.996094 253.210938 183.109375 253.210938 183.21875 C 253.097656 183.332031 253.042969 183.386719 253.042969 183.386719 C 252.929688 183.386719 252.875 183.386719 252.875 183.386719 C 252.875 183.164062 252.929688 182.941406 253.042969 182.71875 C 253.375 182.050781 253.765625 181.71875 254.210938 181.71875 C 254.65625 181.71875 254.933594 181.886719 255.046875 182.21875 C 255.15625 182.332031 255.210938 182.441406 255.210938 182.550781 C 255.210938 182.664062 255.101562 182.941406 254.878906 183.386719 C 254.542969 184.277344 254.378906 184.945312 254.378906 185.390625 C 254.378906 185.945312 254.601562 186.222656 255.046875 186.222656 C 255.488281 186.222656 255.824219 186.003906 256.046875 185.558594 C 256.15625 185.445312 256.214844 185.390625 256.214844 185.390625 L 256.714844 183.386719 C 256.824219 183.164062 256.882812 182.886719 256.882812 182.550781 C 256.992188 182.21875 257.046875 182.050781 257.046875 182.050781 C 257.160156 181.828125 257.324219 181.71875 257.550781 181.71875 C 257.660156 181.828125 257.714844 181.941406 257.714844 182.050781 C 257.714844 182.164062 257.714844 182.273438 257.714844 182.386719 "/>
<path style=" stroke:none;fill-rule:nonzero;fill:rgb(0%,0%,0%);fill-opacity:1;" d="M 7.585938 64.582031 L 7.085938 68.085938 C 6.976562 68.53125 6.808594 69.03125 6.585938 69.589844 C 6.585938 69.8125 6.53125 69.980469 6.417969 70.089844 C 6.195312 70.644531 5.863281 70.980469 5.417969 71.09375 C 5.417969 71.09375 5.363281 71.09375 5.25 71.09375 C 4.917969 71.09375 4.636719 70.980469 4.417969 70.757812 C 4.304688 70.644531 4.25 70.535156 4.25 70.425781 C 4.25 70.089844 4.417969 69.867188 4.75 69.757812 C 4.75 69.757812 4.804688 69.757812 4.917969 69.757812 C 5.140625 69.757812 5.25 69.8125 5.25 69.921875 C 5.25 70.035156 5.25 70.089844 5.25 70.089844 C 5.25 70.3125 5.140625 70.480469 4.917969 70.589844 C 4.917969 70.589844 4.859375 70.644531 4.75 70.757812 C 4.859375 70.867188 5.027344 70.925781 5.25 70.925781 C 5.585938 70.925781 5.808594 70.535156 5.917969 69.757812 C 6.03125 69.644531 6.085938 69.476562 6.085938 69.253906 L 6.085938 68.921875 L 6.917969 64.582031 L 6.25 64.582031 C 6.03125 64.582031 5.917969 64.582031 5.917969 64.582031 C 5.917969 64.472656 5.972656 64.359375 6.085938 64.246094 L 7.085938 64.246094 C 7.199219 63.359375 7.308594 62.800781 7.421875 62.578125 C 7.644531 61.910156 7.976562 61.523438 8.421875 61.410156 C 8.53125 61.410156 8.644531 61.410156 8.757812 61.410156 C 9.089844 61.410156 9.367188 61.523438 9.589844 61.742188 C 9.589844 61.855469 9.589844 61.96875 9.589844 62.078125 C 9.589844 62.410156 9.480469 62.632812 9.257812 62.746094 C 9.257812 62.746094 9.199219 62.746094 9.089844 62.746094 C 8.867188 62.746094 8.757812 62.691406 8.757812 62.578125 C 8.644531 62.46875 8.589844 62.410156 8.589844 62.410156 C 8.589844 62.1875 8.699219 62.023438 8.921875 61.910156 C 9.035156 61.910156 9.144531 61.855469 9.257812 61.742188 C 9.144531 61.632812 8.980469 61.578125 8.757812 61.578125 C 8.53125 61.578125 8.367188 61.6875 8.253906 61.910156 C 8.144531 62.023438 8.03125 62.410156 7.921875 63.078125 L 7.753906 64.246094 L 8.589844 64.246094 C 8.8125 64.246094 8.921875 64.304688 8.921875 64.414062 C 8.921875 64.527344 8.867188 64.582031 8.757812 64.582031 L 7.585938 64.582031 "/>
<path style=" stroke:none;fill-rule:nonzero;fill:rgb(0%,0%,0%);fill-opacity:1;" d="M 13.632812 71.425781 C 13.632812 71.535156 13.632812 71.59375 13.632812 71.59375 C 13.523438 71.59375 13.300781 71.425781 12.964844 71.09375 C 12.519531 70.644531 12.1875 70.144531 11.964844 69.589844 C 11.40625 68.589844 11.128906 67.476562 11.128906 66.25 C 11.128906 65.027344 11.351562 63.914062 11.796875 62.914062 C 12.242188 62.132812 12.742188 61.523438 13.300781 61.078125 C 13.410156 60.964844 13.523438 60.910156 13.632812 60.910156 C 13.632812 60.910156 13.632812 60.964844 13.632812 61.078125 C 13.632812 61.078125 13.578125 61.132812 13.464844 61.242188 C 12.355469 62.355469 11.796875 64.023438 11.796875 66.25 C 11.796875 68.476562 12.355469 70.144531 13.464844 71.257812 C 13.578125 71.371094 13.632812 71.425781 13.632812 71.425781 "/>
<path style=" stroke:none;fill-rule:nonzero;fill:rgb(0%,0%,0%);fill-opacity:1;" d="M 17.789062 65.75 L 17.453125 67.085938 C 17.34375 67.640625 17.285156 67.976562 17.285156 68.085938 C 17.285156 68.421875 17.398438 68.644531 17.621094 68.753906 C 17.730469 68.753906 17.84375 68.753906 17.953125 68.753906 C 18.289062 68.753906 18.566406 68.589844 18.789062 68.253906 C 19.011719 68.03125 19.179688 67.753906 19.289062 67.421875 C 19.289062 67.308594 19.34375 67.253906 19.457031 67.253906 C 19.570312 67.253906 19.625 67.308594 19.625 67.421875 C 19.625 67.53125 19.511719 67.753906 19.289062 68.085938 C 18.84375 68.753906 18.398438 69.089844 17.953125 69.089844 C 17.398438 69.089844 17.007812 68.867188 16.785156 68.421875 C 16.785156 68.308594 16.785156 68.253906 16.785156 68.253906 C 16.5625 68.589844 16.285156 68.8125 15.953125 68.921875 C 15.839844 69.03125 15.730469 69.089844 15.617188 69.089844 C 15.171875 69.089844 14.839844 68.921875 14.617188 68.589844 C 14.617188 68.589844 14.617188 68.476562 14.617188 68.253906 C 14.617188 68.03125 14.726562 67.863281 14.949219 67.753906 C 15.0625 67.753906 15.117188 67.753906 15.117188 67.753906 C 15.339844 67.753906 15.507812 67.808594 15.617188 67.921875 C 15.617188 68.03125 15.617188 68.085938 15.617188 68.085938 C 15.617188 68.308594 15.507812 68.476562 15.285156 68.589844 C 15.171875 68.589844 15.117188 68.589844 15.117188 68.589844 C 15.226562 68.699219 15.394531 68.753906 15.617188 68.753906 C 15.953125 68.753906 16.230469 68.53125 16.453125 68.085938 C 16.5625 67.976562 16.621094 67.863281 16.621094 67.753906 C 16.953125 66.308594 17.121094 65.414062 17.121094 65.082031 C 17.121094 64.636719 16.953125 64.414062 16.621094 64.414062 C 16.285156 64.414062 15.953125 64.636719 15.617188 65.082031 C 15.507812 65.195312 15.394531 65.359375 15.285156 65.582031 C 15.285156 65.582031 15.285156 65.640625 15.285156 65.75 L 15.117188 65.917969 C 15.007812 65.917969 14.949219 65.917969 14.949219 65.917969 C 14.949219 65.695312 15.0625 65.414062 15.285156 65.082031 C 15.617188 64.527344 16.0625 64.246094 16.621094 64.246094 C 17.175781 64.246094 17.566406 64.527344 17.789062 65.082031 C 18.011719 64.636719 18.289062 64.359375 18.621094 64.246094 C 18.734375 64.246094 18.84375 64.246094 18.957031 64.246094 C 19.402344 64.246094 19.679688 64.359375 19.789062 64.582031 C 19.902344 64.691406 19.957031 64.804688 19.957031 64.914062 C 19.957031 65.25 19.789062 65.414062 19.457031 65.414062 C 19.457031 65.527344 19.402344 65.582031 19.289062 65.582031 C 19.066406 65.582031 18.957031 65.472656 18.957031 65.25 C 18.957031 65.25 18.957031 65.195312 18.957031 65.082031 C 18.957031 64.859375 19.066406 64.691406 19.289062 64.582031 C 19.289062 64.582031 19.34375 64.582031 19.457031 64.582031 C 19.34375 64.472656 19.179688 64.414062 18.957031 64.414062 C 18.398438 64.414062 18.066406 64.804688 17.953125 65.582031 C 17.84375 65.582031 17.789062 65.640625 17.789062 65.75 "/>
<path style=" stroke:none;fill-rule:nonzero;fill:rgb(0%,0%,0%);fill-opacity:1;" d="M 23.394531 66.25 C 23.394531 67.476562 23.167969 68.589844 22.726562 69.589844 C 22.390625 70.367188 21.945312 70.980469 21.390625 71.425781 C 21.277344 71.535156 21.167969 71.59375 21.054688 71.59375 C 21.054688 71.59375 21.054688 71.535156 21.054688 71.425781 C 21.054688 71.425781 21.054688 71.371094 21.054688 71.257812 C 22.28125 70.144531 22.890625 68.476562 22.890625 66.25 C 22.890625 64.023438 22.335938 62.355469 21.222656 61.242188 C 21.109375 61.132812 21.054688 61.078125 21.054688 61.078125 C 21.054688 60.964844 21.054688 60.910156 21.054688 60.910156 C 21.167969 60.910156 21.390625 61.078125 21.722656 61.410156 C 22.167969 61.855469 22.503906 62.355469 22.726562 62.914062 C 23.167969 63.914062 23.394531 65.027344 23.394531 66.25 "/>
<path style=" stroke:none;fill-rule:nonzero;fill:rgb(0%,0%,0%);fill-opacity:1;" d="M 8.054688 134.863281 L 7.554688 138.367188 C 7.445312 138.8125 7.277344 139.3125 7.054688 139.871094 C 7.054688 140.09375 7 140.257812 6.886719 140.371094 C 6.664062 140.925781 6.332031 141.261719 5.886719 141.371094 C 5.886719 141.371094 5.832031 141.371094 5.71875 141.371094 C 5.386719 141.371094 5.105469 141.261719 4.882812 141.039062 C 4.773438 140.925781 4.71875 140.816406 4.71875 140.703125 C 4.71875 140.371094 4.882812 140.148438 5.21875 140.035156 C 5.21875 140.035156 5.273438 140.035156 5.386719 140.035156 C 5.609375 140.035156 5.71875 140.09375 5.71875 140.203125 C 5.71875 140.316406 5.71875 140.371094 5.71875 140.371094 C 5.71875 140.59375 5.609375 140.761719 5.386719 140.871094 C 5.386719 140.871094 5.328125 140.925781 5.21875 141.039062 C 5.328125 141.148438 5.496094 141.207031 5.71875 141.207031 C 6.050781 141.207031 6.273438 140.816406 6.386719 140.035156 C 6.5 139.925781 6.554688 139.757812 6.554688 139.535156 L 6.554688 139.203125 L 7.386719 134.863281 L 6.71875 134.863281 C 6.5 134.863281 6.386719 134.863281 6.386719 134.863281 C 6.386719 134.75 6.441406 134.640625 6.554688 134.527344 L 7.554688 134.527344 C 7.667969 133.636719 7.777344 133.082031 7.890625 132.859375 C 8.113281 132.191406 8.445312 131.800781 8.890625 131.691406 C 9 131.691406 9.113281 131.691406 9.222656 131.691406 C 9.558594 131.691406 9.835938 131.800781 10.058594 132.023438 C 10.058594 132.136719 10.058594 132.246094 10.058594 132.359375 C 10.058594 132.691406 9.949219 132.914062 9.726562 133.027344 C 9.726562 133.027344 9.667969 133.027344 9.558594 133.027344 C 9.335938 133.027344 9.222656 132.96875 9.222656 132.859375 C 9.113281 132.746094 9.058594 132.691406 9.058594 132.691406 C 9.058594 132.46875 9.167969 132.304688 9.390625 132.191406 C 9.503906 132.191406 9.613281 132.136719 9.726562 132.023438 C 9.613281 131.914062 9.445312 131.859375 9.222656 131.859375 C 9 131.859375 8.835938 131.96875 8.722656 132.191406 C 8.613281 132.304688 8.5 132.691406 8.390625 133.359375 L 8.222656 134.527344 L 9.058594 134.527344 C 9.28125 134.527344 9.390625 134.585938 9.390625 134.695312 C 9.390625 134.804688 9.335938 134.863281 9.222656 134.863281 L 8.054688 134.863281 "/>
<path style=" stroke:none;fill-rule:nonzero;fill:rgb(0%,0%,0%);fill-opacity:1;" d="M 14.101562 141.707031 C 14.101562 141.816406 14.101562 141.871094 14.101562 141.871094 C 13.992188 141.871094 13.769531 141.707031 13.433594 141.371094 C 12.988281 140.925781 12.65625 140.425781 12.433594 139.871094 C 11.875 138.867188 11.597656 137.753906 11.597656 136.53125 C 11.597656 135.308594 11.820312 134.195312 12.265625 133.195312 C 12.710938 132.414062 13.210938 131.800781 13.769531 131.355469 C 13.878906 131.246094 13.992188 131.191406 14.101562 131.191406 C 14.101562 131.191406 14.101562 131.246094 14.101562 131.355469 C 14.101562 131.355469 14.046875 131.414062 13.933594 131.523438 C 12.824219 132.636719 12.265625 134.304688 12.265625 136.53125 C 12.265625 138.757812 12.824219 140.425781 13.933594 141.539062 C 14.046875 141.652344 14.101562 141.707031 14.101562 141.707031 "/>
<path style=" stroke:none;fill-rule:nonzero;fill:rgb(0%,0%,0%);fill-opacity:1;" d="M 19.925781 135.195312 L 18.925781 139.203125 C 18.703125 139.871094 18.3125 140.425781 17.753906 140.871094 C 17.308594 141.207031 16.863281 141.371094 16.421875 141.371094 C 15.976562 141.371094 15.640625 141.207031 15.417969 140.871094 C 15.308594 140.761719 15.253906 140.648438 15.253906 140.539062 C 15.253906 140.09375 15.417969 139.871094 15.753906 139.871094 C 15.753906 139.757812 15.808594 139.703125 15.917969 139.703125 C 16.140625 139.703125 16.253906 139.8125 16.253906 140.035156 C 16.253906 140.035156 16.253906 140.09375 16.253906 140.203125 C 16.253906 140.316406 16.199219 140.425781 16.085938 140.539062 C 15.976562 140.648438 15.808594 140.703125 15.585938 140.703125 C 15.695312 141.039062 15.976562 141.207031 16.421875 141.207031 C 16.863281 141.207031 17.253906 140.980469 17.589844 140.539062 C 17.921875 140.09375 18.144531 139.59375 18.257812 139.035156 C 18.257812 138.921875 18.257812 138.867188 18.257812 138.867188 C 17.921875 139.203125 17.589844 139.367188 17.253906 139.367188 C 16.699219 139.367188 16.308594 139.148438 16.085938 138.703125 C 15.976562 138.480469 15.917969 138.257812 15.917969 138.035156 C 15.917969 137.699219 16.085938 136.976562 16.421875 135.863281 C 16.421875 135.863281 16.476562 135.863281 16.585938 135.863281 C 16.699219 135.53125 16.753906 135.253906 16.753906 135.03125 C 16.753906 134.804688 16.644531 134.695312 16.421875 134.695312 C 16.085938 134.695312 15.753906 135.03125 15.417969 135.695312 C 15.417969 135.808594 15.417969 135.917969 15.417969 136.03125 C 15.308594 136.140625 15.253906 136.199219 15.253906 136.199219 C 15.140625 136.199219 15.085938 136.199219 15.085938 136.199219 C 15.085938 135.976562 15.140625 135.753906 15.253906 135.53125 C 15.585938 134.863281 15.976562 134.527344 16.421875 134.527344 C 16.863281 134.527344 17.144531 134.695312 17.253906 135.03125 C 17.367188 135.140625 17.421875 135.253906 17.421875 135.363281 C 17.421875 135.472656 17.308594 135.753906 17.089844 136.199219 C 16.753906 137.089844 16.585938 137.753906 16.585938 138.199219 C 16.585938 138.757812 16.808594 139.035156 17.253906 139.035156 C 17.699219 139.035156 18.035156 138.8125 18.257812 138.367188 C 18.367188 138.257812 18.421875 138.199219 18.421875 138.199219 L 18.925781 136.199219 C 19.035156 135.976562 19.089844 135.695312 19.089844 135.363281 C 19.203125 135.03125 19.257812 134.863281 19.257812 134.863281 C 19.367188 134.640625 19.535156 134.527344 19.757812 134.527344 C 19.871094 134.640625 19.925781 134.75 19.925781 134.863281 C 19.925781 134.972656 19.925781 135.085938 19.925781 135.195312 "/>
<path style=" stroke:none;fill-rule:nonzero;fill:rgb(0%,0%,0%);fill-opacity:1;" d="M 23.375 136.53125 C 23.375 137.753906 23.152344 138.867188 22.707031 139.871094 C 22.375 140.648438 21.929688 141.261719 21.375 141.707031 C 21.261719 141.816406 21.152344 141.871094 21.039062 141.871094 C 21.039062 141.871094 21.039062 141.816406 21.039062 141.707031 C 21.039062 141.707031 21.039062 141.652344 21.039062 141.539062 C 22.265625 140.425781 22.875 138.757812 22.875 136.53125 C 22.875 134.304688 22.320312 132.636719 21.207031 131.523438 C 21.09375 131.414062 21.039062 131.355469 21.039062 131.355469 C 21.039062 131.246094 21.039062 131.191406 21.039062 131.191406 C 21.152344 131.191406 21.375 131.355469 21.707031 131.691406 C 22.152344 132.136719 22.484375 132.636719 22.707031 133.195312 C 23.152344 134.195312 23.375 135.308594 23.375 136.53125 "/>
</g>
</svg>
