<?xml version="1.0" encoding="UTF-8"?>
<svg xmlns="http://www.w3.org/2000/svg" xmlns:xlink="http://www.w3.org/1999/xlink" width="555pt" height="555pt" viewBox="0 0 555 555" version="1.1">
<defs>
<clipPath id="clip1">
  <path d="M 76 251 L 95.738281 251 L 95.738281 254 L 76 254 Z M 76 251 "/>
</clipPath>
<clipPath id="clip2">
  <path d="M 158 530 L 177.601562 530 L 177.601562 533 L 158 533 Z M 158 530 "/>
</clipPath>
</defs>
<g id="surface1">
<rect x="0" y="0" width="555" height="555" style="fill:rgb(100%,100%,100%);fill-opacity:1;stroke:none;"/>
<path style="fill:none;stroke-width:20.8125;stroke-linecap:butt;stroke-linejoin:round;stroke:rgb(100%,0%,0%);stroke-opacity:1;stroke-dasharray:208.125,69.375;stroke-miterlimit:10;" d="M 1662.03125 569.179688 L 1662.03125 5347.109375 " transform="matrix(0.1,0,0,-0.1,0,555)"/>
<path style="fill:none;stroke-width:20.8125;stroke-linecap:butt;stroke-linejoin:round;stroke:rgb(100%,0%,0%);stroke-opacity:1;stroke-dasharray:208.125,69.375;stroke-miterlimit:10;" d="M 3340.664062 569.179688 L 3340.664062 5347.109375 " transform="matrix(0.1,0,0,-0.1,0,555)"/>
<path style="fill:none;stroke-width:27.75;stroke-linecap:butt;stroke-linejoin:round;stroke:rgb(0%,0%,0%);stroke-opacity:1;stroke-miterlimit:10;" d="M 1662.03125 345.9375 L 1662.03125 569.179688 " transform="matrix(0.1,0,0,-0.1,0,555)"/>
<path style="fill:none;stroke-width:27.75;stroke-linecap:butt;stroke-linejoin:round;stroke:rgb(0%,0%,0%);stroke-opacity:1;stroke-miterlimit:10;" d="M 3340.664062 345.9375 L 3340.664062 569.179688 " transform="matrix(0.1,0,0,-0.1,0,555)"/>
<path style="fill:none;stroke-width:20.8125;stroke-linecap:butt;stroke-linejoin:round;stroke:rgb(100%,0%,100%);stroke-opacity:1;stroke-dasharray:208.125,69.375;stroke-miterlimit:10;" d="M 1284.335938 5242.65625 L 5438.945312 5242.65625 " transform="matrix(0.1,0,0,-0.1,0,555)"/>
<path style="fill:none;stroke-width:20.8125;stroke-linecap:butt;stroke-linejoin:round;stroke:rgb(100%,0%,100%);stroke-opacity:1;stroke-dasharray:208.125,69.375;stroke-miterlimit:10;" d="M 1284.335938 3010.273438 L 5438.945312 3010.273438 " transform="matrix(0.1,0,0,-0.1,0,555)"/>
<path style="fill:none;stroke-width:13.875;stroke-linecap:square;stroke-linejoin:miter;stroke:rgb(0%,0%,0%);stroke-opacity:1;stroke-miterlimit:10;" d="M 2542.96875 4133.398438 C 2542.96875 4106.601562 2521.210938 4084.84375 2494.414062 4084.84375 C 2467.578125 4084.84375 2445.859375 4106.601562 2445.859375 4133.398438 C 2445.859375 4160.234375 2467.578125 4181.992188 2494.414062 4181.992188 C 2521.210938 4181.992188 2542.96875 4160.234375 2542.96875 4133.398438 Z M 2542.96875 4133.398438 " transform="matrix(0.1,0,0,-0.1,0,555)"/>
<path style=" stroke:none;fill-rule:nonzero;fill:rgb(0%,0%,0%);fill-opacity:1;" d="M 254.296875 141.660156 C 254.296875 144.339844 252.121094 146.515625 249.441406 146.515625 C 246.757812 146.515625 244.585938 144.339844 244.585938 141.660156 C 244.585938 138.976562 246.757812 136.800781 249.441406 136.800781 C 252.121094 136.800781 254.296875 138.976562 254.296875 141.660156 "/>
<path style="fill:none;stroke-width:13.875;stroke-linecap:square;stroke-linejoin:miter;stroke:rgb(0%,0%,0%);stroke-opacity:1;stroke-miterlimit:10;" d="M 2542.96875 464.492188 C 2542.96875 437.695312 2521.210938 415.9375 2494.414062 415.9375 C 2467.578125 415.9375 2445.859375 437.695312 2445.859375 464.492188 C 2445.859375 491.328125 2467.578125 513.085938 2494.414062 513.085938 C 2521.210938 513.085938 2542.96875 491.328125 2542.96875 464.492188 Z M 2542.96875 464.492188 " transform="matrix(0.1,0,0,-0.1,0,555)"/>
<path style=" stroke:none;fill-rule:nonzero;fill:rgb(0%,0%,0%);fill-opacity:1;" d="M 254.296875 508.550781 C 254.296875 511.230469 252.121094 513.40625 249.441406 513.40625 C 246.757812 513.40625 244.585938 511.230469 244.585938 508.550781 C 244.585938 505.867188 246.757812 503.691406 249.441406 503.691406 C 252.121094 503.691406 254.296875 505.867188 254.296875 508.550781 "/>
<path style="fill:none;stroke-width:27.75;stroke-linecap:butt;stroke-linejoin:round;stroke:rgb(0%,0%,100%);stroke-opacity:1;stroke-miterlimit:10;" d="M 403.046875 1654.921875 L 429.53125 1683.242188 L 452.578125 1708.203125 L 478.476562 1736.5625 L 504.53125 1765.46875 L 530.507812 1794.570312 L 554.570312 1821.835938 L 579.492188 1850.351562 L 605.273438 1880.15625 L 630.9375 1910.15625 L 657.34375 1941.367188 L 680.625 1969.0625 L 706.835938 2000.546875 L 733.125 2032.421875 L 758.476562 2063.4375 L 781.523438 2091.796875 L 808.90625 2125.78125 L 832.070312 2154.804688 L 859.0625 2188.789062 L 882.929688 2219.0625 L 909.140625 2252.460938 L 934.0625 2284.492188 L 960.117188 2318.046875 L 984.023438 2349.023438 L 1009.804688 2382.617188 L 1036.5625 2417.617188 L 1059.882812 2448.203125 L 1085.078125 2481.367188 L 1111.054688 2515.703125 L 1136.523438 2549.375 L 1161.132812 2581.992188 L 1188.476562 2618.320312 L 1313.476562 2784.453125 L 1339.023438 2818.359375 L 1364.023438 2851.445312 L 1390.15625 2886.015625 L 1415.351562 2919.21875 L 1441.132812 2953.046875 L 1466.679688 2986.484375 L 1490.15625 3017.109375 L 1517.03125 3052.03125 L 1541.132812 3083.164062 L 1566.796875 3116.132812 L 1591.328125 3147.539062 L 1618.632812 3182.1875 L 1642.226562 3211.992188 L 1669.023438 3245.585938 L 1693.476562 3276.015625 L 1720.15625 3309.023438 L 1743.242188 3337.265625 L 1769.492188 3369.179688 L 1794.84375 3399.765625 L 1820.195312 3430.039062 L 1845.46875 3459.921875 L 1869.726562 3488.359375 L 1895.9375 3518.789062 L 1920.9375 3547.539062 L 1947.226562 3577.421875 L 1971.054688 3604.21875 L 1997.34375 3633.476562 L 2022.578125 3661.210938 L 2047.695312 3688.554688 L 2073.984375 3716.796875 L 2098.164062 3742.460938 L 2122.96875 3768.476562 L 2150.3125 3796.796875 L 2175.078125 3822.109375 L 2200.390625 3847.695312 L 2226.171875 3873.359375 L 2249.84375 3896.640625 L 2275.078125 3921.171875 L 2300.117188 3945.195312 L 2326.914062 3970.507812 L 2350.546875 3992.539062 L 2377.851562 4017.617188 L 2402.460938 4039.921875 L 2426.835938 4061.71875 L 2453.007812 4084.804688 L 2479.335938 4107.617188 L 2503.242188 4128.125 L 2528.671875 4149.53125 L 2553.476562 4170.195312 L 2580.351562 4192.226562 L 2603.59375 4211.015625 L 2630.3125 4232.265625 L 2655.429688 4251.953125 L 2680.3125 4271.171875 L 2705.195312 4290.15625 L 2730.585938 4309.179688 L 2757.5 4329.0625 L 2782.1875 4346.992188 L 2806.523438 4364.492188 L 2832.578125 4382.851562 L 2858.554688 4400.9375 L 2881.875 4416.914062 L 2909.492188 4435.546875 L 2932.578125 4450.9375 L 2959.648438 4468.632812 L 2985.429688 4485.273438 L 3008.476562 4499.921875 L 3034.375 4516.132812 L 3060.46875 4532.226562 L 3086.40625 4548.007812 L 3110.46875 4562.382812 L 3135.390625 4577.109375 L 3161.171875 4592.070312 L 3186.835938 4606.757812 L 3213.28125 4621.640625 L 3236.5625 4634.570312 L 3262.734375 4648.90625 L 3289.0625 4663.085938 L 3314.414062 4676.5625 L 3337.421875 4688.59375 L 3364.804688 4702.734375 L 3387.96875 4714.492188 L 3414.960938 4728.007812 L 3438.867188 4739.804688 L 3465.039062 4752.578125 L 3490 4764.53125 L 3516.015625 4776.835938 L 3539.921875 4787.96875 L 3565.703125 4799.804688 L 3592.5 4811.914062 L 3615.78125 4822.34375 L 3640.976562 4833.4375 L 3666.992188 4844.726562 L 3692.421875 4855.625 L 3717.070312 4865.976562 L 3744.375 4877.34375 L 3768.945312 4887.421875 L 3795.195312 4898.046875 L 3818.945312 4907.539062 L 3844.921875 4917.734375 L 3869.375 4927.226562 L 3894.921875 4937.03125 L 3919.921875 4946.445312 L 3946.09375 4956.210938 L 3971.289062 4965.46875 L 3997.03125 4974.804688 L 4022.578125 4983.945312 L 4046.054688 4992.226562 L 4072.96875 5001.601562 L 4097.03125 5009.882812 L 4122.695312 5018.59375 L 4147.265625 5026.835938 L 4174.53125 5035.859375 L 4198.125 5043.554688 L 4224.921875 5052.1875 L 4249.375 5059.921875 L 4276.09375 5068.320312 L 4299.140625 5075.46875 L 4325.390625 5083.515625 L 4350.78125 5091.171875 L 4376.09375 5098.710938 L 4401.367188 5106.171875 L 4425.625 5113.242188 L 4451.835938 5120.78125 L 4476.835938 5127.890625 L 4503.125 5135.234375 L 4526.953125 5141.835938 L 4553.28125 5149.0625 L 4578.476562 5155.859375 L 4603.632812 5162.578125 L 4629.921875 5169.492188 L 4654.101562 5175.820312 L 4678.867188 5182.1875 L 4706.210938 5189.140625 L 4730.976562 5195.390625 L 4756.328125 5201.679688 L 4782.109375 5208.007812 L 4805.742188 5213.75 L 4831.015625 5219.804688 L 4856.054688 5225.78125 L 4882.851562 5232.03125 L 4906.484375 5237.539062 L 4933.789062 5243.789062 L 4958.398438 5249.375 L 4982.734375 5254.84375 L 5008.945312 5260.625 L 5035.234375 5266.40625 L 5059.179688 5271.601562 L 5084.570312 5277.03125 L 5109.375 5282.304688 L 5136.25 5287.929688 L 5159.53125 5292.734375 L 5186.25 5298.242188 L 5211.367188 5303.320312 L 5236.210938 5308.320312 L 5261.09375 5313.242188 L 5286.484375 5318.242188 L 5313.4375 5323.476562 L 5338.085938 5328.242188 L 5362.421875 5332.851562 L 5388.476562 5337.773438 L 5414.453125 5342.617188 L 5438.945312 5347.109375 " transform="matrix(0.1,0,0,-0.1,0,555)"/>
<path style="fill:none;stroke-width:27.75;stroke-linecap:butt;stroke-linejoin:round;stroke:rgb(0%,0%,0%);stroke-opacity:1;stroke-miterlimit:10;" d="M 1200.390625 5242.65625 L 1284.335938 5242.65625 " transform="matrix(0.1,0,0,-0.1,0,555)"/>
<path style="fill:none;stroke-width:27.75;stroke-linecap:butt;stroke-linejoin:round;stroke:rgb(0%,0%,0%);stroke-opacity:1;stroke-miterlimit:10;" d="M 1200.390625 3010.273438 L 1284.335938 3010.273438 " transform="matrix(0.1,0,0,-0.1,0,555)"/>
<path style=" stroke:none;fill-rule:nonzero;fill:rgb(0%,0%,0%);fill-opacity:1;" d="M 20.703125 248.902344 L 20.464844 249.8125 L 18.492188 249.8125 L 16.996094 255.734375 C 16.347656 258.335938 15.679688 260.351562 15.003906 261.78125 C 14.0625 263.804688 13.042969 265.199219 11.945312 265.964844 C 11.105469 266.542969 10.277344 266.832031 9.453125 266.832031 C 8.902344 266.832031 8.441406 266.671875 8.066406 266.355469 C 7.789062 266.125 7.652344 265.828125 7.652344 265.46875 C 7.652344 265.179688 7.769531 264.929688 8 264.71875 C 8.230469 264.511719 8.511719 264.40625 8.84375 264.40625 C 9.089844 264.40625 9.296875 264.480469 9.464844 264.632812 C 9.628906 264.785156 9.710938 264.960938 9.710938 265.164062 C 9.710938 265.367188 9.617188 265.546875 9.429688 265.707031 C 9.285156 265.835938 9.214844 265.9375 9.214844 266.007812 C 9.214844 266.082031 9.242188 266.140625 9.300781 266.183594 C 9.386719 266.253906 9.515625 266.289062 9.691406 266.289062 C 10.066406 266.289062 10.472656 266.167969 10.90625 265.921875 C 11.339844 265.675781 11.722656 265.3125 12.054688 264.828125 C 12.386719 264.34375 12.703125 263.644531 13.007812 262.734375 C 13.136719 262.359375 13.476562 261.109375 14.027344 258.984375 L 16.367188 249.8125 L 14.027344 249.8125 L 14.199219 248.902344 C 14.953125 248.902344 15.480469 248.855469 15.78125 248.753906 C 16.085938 248.652344 16.359375 248.453125 16.605469 248.15625 C 16.851562 247.859375 17.171875 247.3125 17.558594 246.519531 C 18.09375 245.433594 18.609375 244.589844 19.097656 243.980469 C 19.765625 243.1875 20.464844 242.589844 21.203125 242.183594 C 21.941406 241.777344 22.632812 241.574219 23.285156 241.574219 C 23.976562 241.574219 24.53125 241.75 24.941406 242.097656 C 25.355469 242.441406 25.558594 242.820312 25.558594 243.222656 C 25.558594 243.542969 25.457031 243.808594 25.246094 244.027344 C 25.035156 244.242188 24.773438 244.351562 24.453125 244.351562 C 24.179688 244.351562 23.953125 244.273438 23.773438 244.113281 C 23.589844 243.953125 23.5 243.757812 23.5 243.527344 C 23.5 243.382812 23.558594 243.203125 23.675781 242.996094 C 23.789062 242.785156 23.847656 242.644531 23.847656 242.574219 C 23.847656 242.441406 23.8125 242.347656 23.738281 242.292969 C 23.625 242.191406 23.449219 242.140625 23.21875 242.140625 C 22.65625 242.140625 22.140625 242.320312 21.679688 242.683594 C 21.085938 243.171875 20.542969 243.925781 20.054688 244.9375 C 19.824219 245.472656 19.382812 246.792969 18.730469 248.902344 L 20.703125 248.902344 "/>
<path style=" stroke:none;fill-rule:nonzero;fill:rgb(0%,0%,0%);fill-opacity:1;" d="M 50.492188 248.578125 L 47.847656 257.769531 L 47.542969 259.007812 C 47.515625 259.121094 47.5 259.222656 47.5 259.308594 C 47.5 259.453125 47.542969 259.578125 47.628906 259.679688 C 47.703125 259.765625 47.796875 259.808594 47.910156 259.808594 C 48.027344 259.808594 48.179688 259.734375 48.367188 259.589844 C 48.726562 259.332031 49.199219 258.789062 49.777344 257.964844 L 50.230469 258.289062 C 49.609375 259.230469 48.96875 259.945312 48.3125 260.4375 C 47.65625 260.929688 47.042969 261.175781 46.480469 261.175781 C 46.089844 261.175781 45.800781 261.078125 45.613281 260.882812 C 45.425781 260.6875 45.332031 260.402344 45.332031 260.027344 C 45.332031 259.589844 45.425781 259.015625 45.613281 258.289062 L 45.894531 257.269531 C 44.726562 258.820312 43.640625 259.894531 42.644531 260.503906 C 41.921875 260.949219 41.21875 261.175781 40.539062 261.175781 C 39.875 261.175781 39.304688 260.898438 38.828125 260.351562 C 38.351562 259.800781 38.113281 259.050781 38.113281 258.097656 C 38.113281 256.664062 38.542969 255.152344 39.402344 253.554688 C 40.261719 251.957031 41.355469 250.679688 42.6875 249.726562 C 43.726562 248.960938 44.710938 248.578125 45.636719 248.578125 C 46.183594 248.578125 46.644531 248.722656 47.011719 249.011719 C 47.382812 249.300781 47.660156 249.785156 47.847656 250.464844 L 48.324219 248.902344 Z M 45.65625 249.292969 C 45.078125 249.292969 44.464844 249.5625 43.816406 250.097656 C 42.890625 250.863281 42.070312 252 41.355469 253.511719 C 40.640625 255.019531 40.28125 256.390625 40.28125 257.617188 C 40.28125 258.226562 40.4375 258.707031 40.746094 259.058594 C 41.058594 259.414062 41.40625 259.589844 41.796875 259.589844 C 42.78125 259.589844 43.851562 258.867188 45.007812 257.425781 C 46.554688 255.488281 47.328125 253.5 47.328125 251.460938 C 47.328125 250.695312 47.179688 250.144531 46.882812 249.804688 C 46.585938 249.464844 46.175781 249.292969 45.65625 249.292969 "/>
<path style=" stroke:none;fill-rule:nonzero;fill:rgb(0%,0%,0%);fill-opacity:1;" d="M 33.28125 265.761719 L 32.878906 266.398438 C 29.460938 264.277344 27.75 260.03125 27.75 253.664062 L 27.75 254.160156 C 27.75 247.769531 29.460938 243.527344 32.878906 241.425781 L 33.28125 242.027344 C 31.761719 243.324219 30.746094 245.144531 30.230469 247.492188 C 29.917969 248.945312 29.761719 251.003906 29.761719 253.664062 L 29.761719 254.160156 C 29.761719 256.800781 29.917969 258.847656 30.230469 260.296875 C 30.746094 262.644531 31.761719 264.46875 33.28125 265.761719 "/>
<path style=" stroke:none;fill-rule:nonzero;fill:rgb(0%,0%,0%);fill-opacity:1;" d="M 55.5 242.0625 L 55.902344 241.425781 C 59.320312 243.546875 61.03125 247.792969 61.03125 254.160156 L 61.03125 253.664062 C 61.03125 260.054688 59.320312 264.300781 55.902344 266.398438 L 55.5 265.796875 C 57.019531 264.5 58.035156 262.679688 58.550781 260.332031 C 58.863281 258.878906 59.019531 256.824219 59.019531 254.160156 L 59.019531 253.664062 C 59.019531 251.023438 58.863281 248.980469 58.550781 247.527344 C 58.035156 245.179688 57.019531 243.359375 55.5 242.0625 "/>
<g clip-path="url(#clip1)" clip-rule="nonzero">
<path style=" stroke:none;fill-rule:nonzero;fill:rgb(0%,0%,0%);fill-opacity:1;" d="M 95.128906 253.238281 L 76.832031 253.238281 L 77.070312 251.808594 L 95.367188 251.808594 L 95.128906 253.238281 "/>
</g>
<path style=" stroke:none;fill-rule:nonzero;fill:rgb(0%,0%,0%);fill-opacity:1;" d="M 115.054688 257.878906 C 114.894531 258.53125 114.589844 259.089844 114.144531 259.558594 C 113.695312 260.027344 113.183594 260.394531 112.605469 260.652344 C 112.316406 260.785156 112.011719 260.894531 111.695312 260.988281 C 111.375 261.085938 111.050781 261.164062 110.71875 261.230469 C 110.386719 261.292969 110.066406 261.339844 109.765625 261.371094 C 109.460938 261.398438 109.191406 261.414062 108.960938 261.414062 C 107.964844 261.414062 107.0625 261.257812 106.253906 260.945312 C 105.441406 260.636719 104.863281 260.269531 104.519531 259.851562 C 103.9375 259.144531 103.730469 258.3125 103.890625 257.359375 C 104.035156 256.5625 104.410156 255.84375 105.015625 255.203125 C 105.621094 254.558594 106.484375 254.105469 107.597656 253.847656 C 107.265625 253.703125 106.949219 253.546875 106.652344 253.382812 C 106.355469 253.214844 106.105469 253.015625 105.90625 252.785156 C 105.703125 252.554688 105.554688 252.273438 105.460938 251.949219 C 105.367188 251.625 105.355469 251.230469 105.429688 250.769531 C 105.542969 250.160156 105.824219 249.585938 106.273438 249.046875 C 106.722656 248.503906 107.386719 248.023438 108.269531 247.605469 C 108.714844 247.402344 109.238281 247.234375 109.839844 247.105469 C 110.441406 246.976562 111.09375 246.910156 111.800781 246.910156 C 112.351562 246.910156 112.824219 246.941406 113.222656 247.007812 C 113.621094 247.070312 114.046875 247.234375 114.5 247.496094 C 114.957031 247.753906 115.277344 248.0625 115.464844 248.417969 C 115.652344 248.769531 115.71875 249.105469 115.660156 249.425781 C 115.601562 249.785156 115.425781 250.09375 115.128906 250.34375 C 114.835938 250.597656 114.519531 250.726562 114.1875 250.726562 C 113.652344 250.726562 113.3125 250.5625 113.167969 250.238281 C 113.023438 249.910156 112.921875 249.546875 112.863281 249.140625 C 112.792969 248.824219 112.609375 248.542969 112.320312 248.296875 C 112.03125 248.050781 111.621094 247.929688 111.085938 247.929688 C 110.726562 247.929688 110.371094 248 110.023438 248.144531 C 109.675781 248.289062 109.359375 248.484375 109.070312 248.730469 C 108.492188 249.222656 108.125 249.921875 107.964844 250.835938 C 107.835938 251.539062 107.921875 252.132812 108.226562 252.601562 C 108.527344 253.070312 109.105469 253.304688 109.960938 253.304688 C 110.234375 253.304688 110.597656 253.277344 111.054688 253.21875 C 111.507812 253.160156 111.875 253.132812 112.148438 253.132812 C 112.523438 253.132812 112.785156 253.195312 112.929688 253.328125 C 113.074219 253.457031 113.140625 253.59375 113.125 253.738281 C 113.082031 253.925781 112.898438 254.117188 112.582031 254.3125 C 112.265625 254.507812 111.910156 254.605469 111.519531 254.605469 C 111.261719 254.605469 110.972656 254.574219 110.652344 254.507812 C 110.335938 254.441406 110.039062 254.410156 109.765625 254.410156 C 109.039062 254.410156 108.414062 254.652344 107.878906 255.136719 C 107.34375 255.621094 107.003906 256.304688 106.859375 257.1875 C 106.773438 257.648438 106.757812 258.011719 106.816406 258.269531 C 106.871094 258.53125 107.011719 258.789062 107.226562 259.050781 C 107.472656 259.367188 107.867188 259.628906 108.410156 259.828125 C 108.949219 260.03125 109.597656 260.132812 110.351562 260.132812 C 111.203125 260.132812 111.972656 259.972656 112.660156 259.644531 C 113.34375 259.320312 113.910156 258.667969 114.359375 257.683594 L 115.054688 257.878906 "/>
<path style=" stroke:none;fill-rule:nonzero;fill:rgb(0%,0%,0%);fill-opacity:1;" d="M 20.703125 25.515625 L 20.464844 26.425781 L 18.492188 26.425781 L 16.996094 32.347656 C 16.347656 34.949219 15.679688 36.964844 15.003906 38.394531 C 14.0625 40.417969 13.042969 41.8125 11.945312 42.578125 C 11.105469 43.15625 10.277344 43.445312 9.453125 43.445312 C 8.902344 43.445312 8.441406 43.285156 8.066406 42.96875 C 7.789062 42.738281 7.652344 42.441406 7.652344 42.078125 C 7.652344 41.789062 7.769531 41.542969 8 41.332031 C 8.230469 41.121094 8.511719 41.019531 8.84375 41.019531 C 9.089844 41.019531 9.296875 41.09375 9.464844 41.246094 C 9.628906 41.398438 9.710938 41.574219 9.710938 41.777344 C 9.710938 41.980469 9.617188 42.160156 9.429688 42.320312 C 9.285156 42.449219 9.214844 42.550781 9.214844 42.621094 C 9.214844 42.695312 9.242188 42.753906 9.300781 42.796875 C 9.386719 42.867188 9.515625 42.902344 9.691406 42.902344 C 10.066406 42.902344 10.472656 42.78125 10.90625 42.535156 C 11.339844 42.289062 11.722656 41.925781 12.054688 41.441406 C 12.386719 40.957031 12.703125 40.257812 13.007812 39.347656 C 13.136719 38.972656 13.476562 37.722656 14.027344 35.597656 L 16.367188 26.425781 L 14.027344 26.425781 L 14.199219 25.515625 C 14.953125 25.515625 15.480469 25.464844 15.78125 25.363281 C 16.085938 25.265625 16.359375 25.066406 16.605469 24.769531 C 16.851562 24.472656 17.171875 23.925781 17.558594 23.132812 C 18.09375 22.046875 18.609375 21.203125 19.097656 20.597656 C 19.765625 19.800781 20.464844 19.199219 21.203125 18.796875 C 21.941406 18.390625 22.632812 18.1875 23.285156 18.1875 C 23.976562 18.1875 24.53125 18.363281 24.941406 18.710938 C 25.355469 19.054688 25.558594 19.433594 25.558594 19.835938 C 25.558594 20.15625 25.457031 20.421875 25.246094 20.640625 C 25.035156 20.855469 24.773438 20.964844 24.453125 20.964844 C 24.179688 20.964844 23.953125 20.886719 23.773438 20.726562 C 23.589844 20.566406 23.5 20.371094 23.5 20.140625 C 23.5 19.996094 23.558594 19.820312 23.675781 19.609375 C 23.789062 19.398438 23.847656 19.257812 23.847656 19.1875 C 23.847656 19.054688 23.8125 18.960938 23.738281 18.90625 C 23.625 18.804688 23.449219 18.753906 23.21875 18.753906 C 22.65625 18.753906 22.140625 18.933594 21.679688 19.296875 C 21.085938 19.785156 20.542969 20.539062 20.054688 21.550781 C 19.824219 22.085938 19.382812 23.40625 18.730469 25.515625 L 20.703125 25.515625 "/>
<path style=" stroke:none;fill-rule:nonzero;fill:rgb(0%,0%,0%);fill-opacity:1;" d="M 50.492188 25.191406 L 47.847656 34.382812 L 47.542969 35.621094 C 47.515625 35.734375 47.5 35.835938 47.5 35.921875 C 47.5 36.066406 47.542969 36.191406 47.628906 36.292969 C 47.703125 36.378906 47.796875 36.421875 47.910156 36.421875 C 48.027344 36.421875 48.179688 36.351562 48.367188 36.203125 C 48.726562 35.945312 49.199219 35.402344 49.777344 34.578125 L 50.230469 34.902344 C 49.609375 35.84375 48.96875 36.558594 48.3125 37.050781 C 47.65625 37.542969 47.042969 37.785156 46.480469 37.785156 C 46.089844 37.785156 45.800781 37.691406 45.613281 37.496094 C 45.425781 37.300781 45.332031 37.015625 45.332031 36.640625 C 45.332031 36.203125 45.425781 35.628906 45.613281 34.902344 L 45.894531 33.886719 C 44.726562 35.433594 43.640625 36.507812 42.644531 37.117188 C 41.921875 37.5625 41.21875 37.785156 40.539062 37.785156 C 39.875 37.785156 39.304688 37.511719 38.828125 36.964844 C 38.351562 36.414062 38.113281 35.664062 38.113281 34.710938 C 38.113281 33.277344 38.542969 31.765625 39.402344 30.167969 C 40.261719 28.570312 41.355469 27.296875 42.6875 26.339844 C 43.726562 25.574219 44.710938 25.191406 45.636719 25.191406 C 46.183594 25.191406 46.644531 25.335938 47.011719 25.625 C 47.382812 25.914062 47.660156 26.398438 47.847656 27.078125 L 48.324219 25.515625 Z M 45.65625 25.90625 C 45.078125 25.90625 44.464844 26.175781 43.816406 26.710938 C 42.890625 27.476562 42.070312 28.613281 41.355469 30.125 C 40.640625 31.632812 40.28125 33.003906 40.28125 34.230469 C 40.28125 34.839844 40.4375 35.320312 40.746094 35.675781 C 41.058594 36.027344 41.40625 36.203125 41.796875 36.203125 C 42.78125 36.203125 43.851562 35.480469 45.007812 34.035156 C 46.554688 32.101562 47.328125 30.113281 47.328125 28.074219 C 47.328125 27.308594 47.179688 26.757812 46.882812 26.414062 C 46.585938 26.078125 46.175781 25.90625 45.65625 25.90625 "/>
<path style=" stroke:none;fill-rule:nonzero;fill:rgb(0%,0%,0%);fill-opacity:1;" d="M 33.28125 42.375 L 32.878906 43.011719 C 29.460938 40.890625 27.75 36.644531 27.75 30.273438 L 27.75 30.773438 C 27.75 24.382812 29.460938 20.136719 32.878906 18.035156 L 33.28125 18.640625 C 31.761719 19.9375 30.746094 21.757812 30.230469 24.105469 C 29.917969 25.558594 29.761719 27.613281 29.761719 30.273438 L 29.761719 30.773438 C 29.761719 33.414062 29.917969 35.460938 30.230469 36.910156 C 30.746094 39.257812 31.761719 41.078125 33.28125 42.375 "/>
<path style=" stroke:none;fill-rule:nonzero;fill:rgb(0%,0%,0%);fill-opacity:1;" d="M 55.5 18.675781 L 55.902344 18.035156 C 59.320312 20.160156 61.03125 24.40625 61.03125 30.773438 L 61.03125 30.273438 C 61.03125 36.664062 59.320312 40.910156 55.902344 43.011719 L 55.5 42.410156 C 57.019531 41.113281 58.035156 39.289062 58.550781 36.945312 C 58.863281 35.492188 59.019531 33.433594 59.019531 30.773438 L 59.019531 30.273438 C 59.019531 27.636719 58.863281 25.589844 58.550781 24.140625 C 58.035156 21.792969 57.019531 19.972656 55.5 18.675781 "/>
<path style=" stroke:none;fill-rule:nonzero;fill:rgb(0%,0%,0%);fill-opacity:1;" d="M 95.128906 29.851562 L 86.695312 29.851562 L 85.203125 38.285156 L 83.769531 38.285156 L 85.265625 29.851562 L 76.832031 29.851562 L 77.070312 28.421875 L 85.503906 28.421875 L 86.980469 19.988281 L 88.410156 19.988281 L 86.933594 28.421875 L 95.367188 28.421875 L 95.128906 29.851562 "/>
<path style=" stroke:none;fill-rule:nonzero;fill:rgb(0%,0%,0%);fill-opacity:1;" d="M 115.054688 34.492188 C 114.894531 35.144531 114.589844 35.703125 114.144531 36.171875 C 113.695312 36.640625 113.183594 37.007812 112.605469 37.265625 C 112.316406 37.398438 112.011719 37.507812 111.695312 37.601562 C 111.375 37.695312 111.050781 37.777344 110.71875 37.84375 C 110.386719 37.90625 110.066406 37.953125 109.765625 37.984375 C 109.460938 38.011719 109.191406 38.027344 108.960938 38.027344 C 107.964844 38.027344 107.0625 37.871094 106.253906 37.558594 C 105.441406 37.25 104.863281 36.882812 104.519531 36.464844 C 103.9375 35.757812 103.730469 34.925781 103.890625 33.972656 C 104.035156 33.175781 104.410156 32.457031 105.015625 31.816406 C 105.621094 31.171875 106.484375 30.71875 107.597656 30.460938 C 107.265625 30.316406 106.949219 30.160156 106.652344 29.992188 C 106.355469 29.828125 106.105469 29.628906 105.90625 29.398438 C 105.703125 29.164062 105.554688 28.886719 105.460938 28.5625 C 105.367188 28.238281 105.355469 27.84375 105.429688 27.382812 C 105.542969 26.773438 105.824219 26.199219 106.273438 25.65625 C 106.722656 25.117188 107.386719 24.636719 108.269531 24.214844 C 108.714844 24.015625 109.238281 23.847656 109.839844 23.71875 C 110.441406 23.585938 111.09375 23.523438 111.800781 23.523438 C 112.351562 23.523438 112.824219 23.554688 113.222656 23.621094 C 113.621094 23.683594 114.046875 23.847656 114.5 24.109375 C 114.957031 24.367188 115.277344 24.675781 115.464844 25.027344 C 115.652344 25.382812 115.71875 25.71875 115.660156 26.035156 C 115.601562 26.398438 115.425781 26.707031 115.128906 26.960938 C 114.835938 27.210938 114.519531 27.339844 114.1875 27.339844 C 113.652344 27.339844 113.3125 27.175781 113.167969 26.851562 C 113.023438 26.523438 112.921875 26.160156 112.863281 25.753906 C 112.792969 25.4375 112.609375 25.15625 112.320312 24.910156 C 112.03125 24.664062 111.621094 24.539062 111.085938 24.539062 C 110.726562 24.539062 110.371094 24.613281 110.023438 24.757812 C 109.675781 24.902344 109.359375 25.097656 109.070312 25.34375 C 108.492188 25.835938 108.125 26.535156 107.964844 27.445312 C 107.835938 28.15625 107.921875 28.742188 108.226562 29.214844 C 108.527344 29.683594 109.105469 29.917969 109.960938 29.917969 C 110.234375 29.917969 110.597656 29.890625 111.054688 29.832031 C 111.507812 29.773438 111.875 29.746094 112.148438 29.746094 C 112.523438 29.746094 112.785156 29.808594 112.929688 29.9375 C 113.074219 30.070312 113.140625 30.207031 113.125 30.351562 C 113.082031 30.539062 112.898438 30.730469 112.582031 30.925781 C 112.265625 31.121094 111.910156 31.21875 111.519531 31.21875 C 111.261719 31.21875 110.972656 31.1875 110.652344 31.121094 C 110.335938 31.054688 110.039062 31.023438 109.765625 31.023438 C 109.039062 31.023438 108.414062 31.265625 107.878906 31.75 C 107.34375 32.234375 107.003906 32.917969 106.859375 33.796875 C 106.773438 34.261719 106.757812 34.621094 106.816406 34.882812 C 106.871094 35.144531 107.011719 35.402344 107.226562 35.664062 C 107.472656 35.980469 107.867188 36.242188 108.410156 36.441406 C 108.949219 36.644531 109.597656 36.746094 110.351562 36.746094 C 111.203125 36.746094 111.972656 36.585938 112.660156 36.257812 C 113.34375 35.933594 113.910156 35.28125 114.359375 34.296875 L 115.054688 34.492188 "/>
<path style=" stroke:none;fill-rule:nonzero;fill:rgb(0%,0%,0%);fill-opacity:1;" d="M 146.230469 527.464844 L 143.585938 536.660156 L 143.28125 537.894531 C 143.253906 538.011719 143.238281 538.109375 143.238281 538.199219 C 143.238281 538.34375 143.28125 538.464844 143.367188 538.566406 C 143.441406 538.652344 143.535156 538.695312 143.648438 538.695312 C 143.765625 538.695312 143.917969 538.625 144.105469 538.480469 C 144.464844 538.21875 144.9375 537.675781 145.515625 536.851562 L 145.96875 537.179688 C 145.347656 538.117188 144.707031 538.835938 144.050781 539.324219 C 143.394531 539.816406 142.78125 540.0625 142.21875 540.0625 C 141.828125 540.0625 141.539062 539.964844 141.351562 539.769531 C 141.164062 539.574219 141.070312 539.289062 141.070312 538.914062 C 141.070312 538.480469 141.164062 537.902344 141.351562 537.179688 L 141.632812 536.160156 C 140.464844 537.707031 139.378906 538.78125 138.382812 539.390625 C 137.660156 539.835938 136.957031 540.0625 136.277344 540.0625 C 135.613281 540.0625 135.042969 539.789062 134.566406 539.238281 C 134.089844 538.6875 133.851562 537.9375 133.851562 536.984375 C 133.851562 535.550781 134.28125 534.039062 135.140625 532.441406 C 136 530.84375 137.09375 529.570312 138.425781 528.613281 C 139.464844 527.847656 140.449219 527.464844 141.371094 527.464844 C 141.921875 527.464844 142.382812 527.609375 142.75 527.898438 C 143.117188 528.191406 143.394531 528.671875 143.585938 529.351562 L 144.0625 527.789062 Z M 141.394531 528.179688 C 140.816406 528.179688 140.203125 528.449219 139.550781 528.984375 C 138.628906 529.75 137.808594 530.886719 137.089844 532.398438 C 136.375 533.910156 136.019531 535.277344 136.019531 536.507812 C 136.019531 537.113281 136.175781 537.59375 136.484375 537.949219 C 136.796875 538.300781 137.144531 538.480469 137.535156 538.480469 C 138.519531 538.480469 139.589844 537.757812 140.746094 536.3125 C 142.289062 534.375 143.0625 532.386719 143.0625 530.347656 C 143.0625 529.582031 142.914062 529.03125 142.621094 528.691406 C 142.324219 528.351562 141.914062 528.179688 141.394531 528.179688 "/>
<g clip-path="url(#clip2)" clip-rule="nonzero">
<path style=" stroke:none;fill-rule:nonzero;fill:rgb(0%,0%,0%);fill-opacity:1;" d="M 176.992188 532.128906 L 158.695312 532.128906 L 158.933594 530.695312 L 177.230469 530.695312 L 176.992188 532.128906 "/>
</g>
<path style=" stroke:none;fill-rule:nonzero;fill:rgb(0%,0%,0%);fill-opacity:1;" d="M 196.179688 534.359375 C 196.28125 533.722656 196.324219 533.089844 196.308594 532.453125 C 196.296875 531.816406 196.199219 531.25 196.027344 530.75 C 195.855469 530.253906 195.648438 529.789062 195.410156 529.363281 C 195.171875 528.9375 194.871094 528.527344 194.507812 528.136719 C 193.730469 528.296875 193.0625 528.550781 192.503906 528.898438 C 191.949219 529.242188 191.480469 529.652344 191.105469 530.121094 C 190.730469 530.589844 190.429688 531.121094 190.203125 531.703125 C 189.980469 532.289062 189.8125 532.914062 189.695312 533.578125 C 189.59375 534.128906 189.550781 534.714844 189.554688 535.335938 C 189.5625 535.957031 189.640625 536.5 189.785156 536.960938 C 189.839844 537.222656 189.929688 537.46875 190.042969 537.699219 C 190.160156 537.929688 190.308594 538.144531 190.488281 538.339844 C 190.667969 538.53125 190.886719 538.6875 191.136719 538.792969 C 191.390625 538.902344 191.710938 538.957031 192.105469 538.957031 C 192.492188 538.957031 192.878906 538.878906 193.265625 538.71875 C 193.644531 538.558594 193.980469 538.351562 194.269531 538.089844 C 194.734375 537.714844 195.132812 537.191406 195.464844 536.515625 C 195.796875 535.84375 196.035156 535.128906 196.179688 534.359375 Z M 198.996094 533.40625 C 198.867188 534.203125 198.636719 534.925781 198.304688 535.574219 C 197.972656 536.222656 197.574219 536.8125 197.109375 537.339844 C 196.648438 537.867188 196.136719 538.332031 195.570312 538.730469 C 195.007812 539.125 194.429688 539.464844 193.839844 539.738281 C 193.433594 539.925781 193.011719 540.058594 192.570312 540.136719 C 192.128906 540.21875 191.710938 540.257812 191.320312 540.257812 C 191.078125 540.257812 190.746094 540.222656 190.335938 540.160156 C 189.925781 540.09375 189.558594 539.984375 189.242188 539.824219 C 188.75 539.5625 188.289062 539.21875 187.855469 538.792969 C 187.421875 538.367188 187.074219 537.75 186.8125 536.941406 C 186.640625 536.40625 186.550781 535.894531 186.542969 535.410156 C 186.535156 534.925781 186.566406 534.488281 186.640625 534.101562 C 186.769531 533.289062 187.074219 532.480469 187.550781 531.671875 C 188.027344 530.863281 188.605469 530.175781 189.285156 529.613281 C 190.441406 528.628906 191.9375 527.871094 193.773438 527.335938 L 191.105469 524.453125 C 190.773438 524.078125 190.550781 523.652344 190.445312 523.171875 C 190.335938 522.695312 190.3125 522.269531 190.367188 521.894531 C 190.410156 521.621094 190.496094 521.371094 190.628906 521.148438 C 190.757812 520.921875 190.976562 520.679688 191.277344 520.421875 C 191.4375 520.289062 191.644531 520.140625 191.898438 519.976562 C 192.152344 519.808594 192.371094 519.683594 192.558594 519.597656 C 192.90625 519.4375 193.273438 519.332031 193.664062 519.28125 C 194.054688 519.230469 194.460938 519.207031 194.878906 519.207031 C 194.992188 519.207031 195.15625 519.210938 195.367188 519.214844 C 195.574219 519.222656 195.796875 519.242188 196.027344 519.273438 C 196.257812 519.300781 196.492188 519.328125 196.730469 519.359375 C 196.96875 519.386719 197.167969 519.429688 197.328125 519.488281 C 198.324219 519.792969 199.019531 520.15625 199.410156 520.582031 C 199.800781 521.007812 199.945312 521.480469 199.84375 522.003906 C 199.785156 522.320312 199.605469 522.585938 199.300781 522.792969 C 198.996094 523.003906 198.699219 523.109375 198.414062 523.109375 C 198.152344 523.109375 197.917969 523.042969 197.707031 522.914062 C 197.496094 522.785156 197.300781 522.628906 197.121094 522.449219 C 196.941406 522.265625 196.769531 522.066406 196.601562 521.851562 C 196.433594 521.636719 196.285156 521.445312 196.15625 521.289062 C 195.8125 520.882812 195.425781 520.617188 194.996094 520.496094 C 194.570312 520.375 194.242188 520.3125 194.011719 520.3125 C 193.664062 520.3125 193.347656 520.375 193.058594 520.507812 C 192.769531 520.636719 192.5 520.804688 192.253906 521.007812 C 191.949219 521.265625 191.765625 521.589844 191.691406 521.980469 C 191.648438 522.242188 191.675781 522.488281 191.777344 522.71875 C 191.878906 522.949219 192.007812 523.167969 192.167969 523.367188 C 192.53125 523.789062 192.921875 524.164062 193.351562 524.496094 C 193.773438 524.828125 194.234375 525.160156 194.726562 525.492188 C 194.972656 525.667969 195.214844 525.832031 195.453125 525.992188 C 195.691406 526.152344 195.929688 526.328125 196.167969 526.523438 C 196.40625 526.71875 196.660156 526.9375 196.925781 527.183594 C 197.195312 527.429688 197.464844 527.71875 197.738281 528.050781 C 198.273438 528.703125 198.667969 529.476562 198.921875 530.382812 C 199.175781 531.285156 199.199219 532.292969 198.996094 533.40625 "/>
<path style=" stroke:none;fill-rule:nonzero;fill:rgb(0%,0%,0%);fill-opacity:1;" d="M 255.839844 523.304688 L 253.195312 532.496094 L 252.894531 533.730469 C 252.863281 533.847656 252.851562 533.949219 252.851562 534.035156 C 252.851562 534.179688 252.894531 534.300781 252.980469 534.402344 C 253.050781 534.488281 253.144531 534.535156 253.261719 534.535156 C 253.378906 534.535156 253.53125 534.460938 253.71875 534.316406 C 254.078125 534.058594 254.546875 533.515625 255.128906 532.691406 L 255.582031 533.015625 C 254.960938 533.957031 254.320312 534.671875 253.664062 535.164062 C 253.003906 535.652344 252.394531 535.898438 251.832031 535.898438 C 251.441406 535.898438 251.152344 535.800781 250.964844 535.605469 C 250.773438 535.410156 250.679688 535.128906 250.679688 534.75 C 250.679688 534.316406 250.773438 533.738281 250.964844 533.015625 L 251.246094 531.996094 C 250.074219 533.542969 248.992188 534.621094 247.992188 535.226562 C 247.269531 535.675781 246.570312 535.898438 245.890625 535.898438 C 245.226562 535.898438 244.65625 535.625 244.179688 535.074219 C 243.699219 534.527344 243.460938 533.777344 243.460938 532.820312 C 243.460938 531.390625 243.890625 529.875 244.753906 528.28125 C 245.613281 526.683594 246.707031 525.40625 248.035156 524.453125 C 249.078125 523.6875 250.0625 523.304688 250.984375 523.304688 C 251.535156 523.304688 251.992188 523.449219 252.359375 523.738281 C 252.730469 524.027344 253.007812 524.511719 253.195312 525.191406 L 253.675781 523.628906 Z M 251.007812 524.019531 C 250.429688 524.019531 249.8125 524.285156 249.164062 524.820312 C 248.238281 525.589844 247.417969 526.726562 246.703125 528.234375 C 245.988281 529.746094 245.628906 531.117188 245.628906 532.34375 C 245.628906 532.953125 245.785156 533.429688 246.097656 533.785156 C 246.40625 534.140625 246.757812 534.316406 247.148438 534.316406 C 248.132812 534.316406 249.199219 533.59375 250.355469 532.148438 C 251.902344 530.210938 252.675781 528.226562 252.675781 526.1875 C 252.675781 525.421875 252.527344 524.867188 252.230469 524.527344 C 251.933594 524.1875 251.527344 524.019531 251.007812 524.019531 "/>
<path style=" stroke:none;fill-rule:nonzero;fill:rgb(0%,0%,0%);fill-opacity:1;" d="M 314.117188 527.464844 L 311.472656 536.660156 L 311.167969 537.894531 C 311.140625 538.011719 311.125 538.109375 311.125 538.199219 C 311.125 538.34375 311.167969 538.464844 311.253906 538.566406 C 311.328125 538.652344 311.421875 538.695312 311.535156 538.695312 C 311.652344 538.695312 311.804688 538.625 311.992188 538.480469 C 312.351562 538.21875 312.824219 537.675781 313.402344 536.851562 L 313.855469 537.179688 C 313.234375 538.117188 312.59375 538.835938 311.9375 539.324219 C 311.28125 539.816406 310.671875 540.0625 310.105469 540.0625 C 309.714844 540.0625 309.425781 539.964844 309.238281 539.769531 C 309.050781 539.574219 308.957031 539.289062 308.957031 538.914062 C 308.957031 538.480469 309.050781 537.902344 309.238281 537.179688 L 309.519531 536.160156 C 308.351562 537.707031 307.265625 538.78125 306.269531 539.390625 C 305.546875 539.835938 304.84375 540.0625 304.164062 540.0625 C 303.5 540.0625 302.929688 539.789062 302.453125 539.238281 C 301.976562 538.6875 301.738281 537.9375 301.738281 536.984375 C 301.738281 535.550781 302.167969 534.039062 303.027344 532.441406 C 303.886719 530.84375 304.980469 529.570312 306.3125 528.613281 C 307.351562 527.847656 308.335938 527.464844 309.261719 527.464844 C 309.808594 527.464844 310.269531 527.609375 310.636719 527.898438 C 311.003906 528.191406 311.285156 528.671875 311.472656 529.351562 L 311.949219 527.789062 Z M 309.28125 528.179688 C 308.703125 528.179688 308.089844 528.449219 307.4375 528.984375 C 306.515625 529.75 305.695312 530.886719 304.976562 532.398438 C 304.265625 533.910156 303.90625 535.277344 303.90625 536.507812 C 303.90625 537.113281 304.0625 537.59375 304.371094 537.949219 C 304.683594 538.300781 305.03125 538.480469 305.421875 538.480469 C 306.40625 538.480469 307.476562 537.757812 308.632812 536.3125 C 310.179688 534.375 310.949219 532.386719 310.949219 530.347656 C 310.949219 529.582031 310.804688 529.03125 310.507812 528.691406 C 310.210938 528.351562 309.800781 528.179688 309.28125 528.179688 "/>
<path style=" stroke:none;fill-rule:nonzero;fill:rgb(0%,0%,0%);fill-opacity:1;" d="M 344.878906 532.128906 L 336.445312 532.128906 L 334.949219 540.558594 L 333.519531 540.558594 L 335.015625 532.128906 L 326.582031 532.128906 L 326.820312 530.695312 L 335.253906 530.695312 L 336.726562 522.261719 L 338.160156 522.261719 L 336.683594 530.695312 L 345.117188 530.695312 L 344.878906 532.128906 "/>
<path style=" stroke:none;fill-rule:nonzero;fill:rgb(0%,0%,0%);fill-opacity:1;" d="M 364.066406 534.359375 C 364.167969 533.722656 364.210938 533.089844 364.195312 532.453125 C 364.183594 531.816406 364.089844 531.25 363.914062 530.75 C 363.742188 530.253906 363.535156 529.789062 363.296875 529.363281 C 363.058594 528.9375 362.757812 528.527344 362.398438 528.136719 C 361.617188 528.296875 360.949219 528.550781 360.390625 528.898438 C 359.835938 529.242188 359.371094 529.652344 358.992188 530.121094 C 358.617188 530.589844 358.316406 531.121094 358.09375 531.703125 C 357.871094 532.289062 357.699219 532.914062 357.585938 533.578125 C 357.480469 534.128906 357.4375 534.714844 357.445312 535.335938 C 357.449219 535.957031 357.527344 536.5 357.671875 536.960938 C 357.726562 537.222656 357.816406 537.46875 357.929688 537.699219 C 358.046875 537.929688 358.195312 538.144531 358.375 538.339844 C 358.554688 538.53125 358.773438 538.6875 359.023438 538.792969 C 359.277344 538.902344 359.601562 538.957031 359.992188 538.957031 C 360.382812 538.957031 360.769531 538.878906 361.152344 538.71875 C 361.535156 538.558594 361.871094 538.351562 362.15625 538.089844 C 362.621094 537.714844 363.019531 537.191406 363.351562 536.515625 C 363.683594 535.84375 363.921875 535.128906 364.066406 534.359375 Z M 366.882812 533.40625 C 366.753906 534.203125 366.523438 534.925781 366.191406 535.574219 C 365.859375 536.222656 365.460938 536.8125 364.996094 537.339844 C 364.535156 537.867188 364.023438 538.332031 363.460938 538.730469 C 362.894531 539.125 362.316406 539.464844 361.726562 539.738281 C 361.320312 539.925781 360.898438 540.058594 360.457031 540.136719 C 360.015625 540.21875 359.601562 540.257812 359.210938 540.257812 C 358.964844 540.257812 358.636719 540.222656 358.222656 540.160156 C 357.8125 540.09375 357.445312 539.984375 357.128906 539.824219 C 356.636719 539.5625 356.175781 539.21875 355.742188 538.792969 C 355.308594 538.367188 354.960938 537.75 354.699219 536.941406 C 354.527344 536.40625 354.4375 535.894531 354.429688 535.410156 C 354.421875 534.925781 354.453125 534.488281 354.527344 534.101562 C 354.65625 533.289062 354.960938 532.480469 355.4375 531.671875 C 355.914062 530.863281 356.492188 530.175781 357.171875 529.613281 C 358.328125 528.628906 359.824219 527.871094 361.660156 527.335938 L 358.992188 524.453125 C 358.660156 524.078125 358.441406 523.652344 358.332031 523.171875 C 358.222656 522.695312 358.199219 522.269531 358.257812 521.894531 C 358.300781 521.621094 358.386719 521.371094 358.515625 521.148438 C 358.644531 520.921875 358.863281 520.679688 359.167969 520.421875 C 359.328125 520.289062 359.53125 520.140625 359.785156 519.976562 C 360.039062 519.808594 360.257812 519.683594 360.445312 519.597656 C 360.792969 519.4375 361.160156 519.332031 361.550781 519.28125 C 361.941406 519.230469 362.347656 519.207031 362.765625 519.207031 C 362.882812 519.207031 363.042969 519.210938 363.253906 519.214844 C 363.464844 519.222656 363.683594 519.242188 363.914062 519.273438 C 364.144531 519.300781 364.382812 519.328125 364.621094 519.359375 C 364.855469 519.386719 365.058594 519.429688 365.214844 519.488281 C 366.214844 519.792969 366.90625 520.15625 367.296875 520.582031 C 367.6875 521.007812 367.832031 521.480469 367.730469 522.003906 C 367.671875 522.320312 367.492188 522.585938 367.1875 522.792969 C 366.882812 523.003906 366.589844 523.109375 366.300781 523.109375 C 366.039062 523.109375 365.804688 523.042969 365.59375 522.914062 C 365.386719 522.785156 365.191406 522.628906 365.011719 522.449219 C 364.828125 522.265625 364.65625 522.066406 364.488281 521.851562 C 364.324219 521.636719 364.175781 521.445312 364.046875 521.289062 C 363.699219 520.882812 363.3125 520.617188 362.886719 520.496094 C 362.457031 520.375 362.128906 520.3125 361.898438 520.3125 C 361.550781 520.3125 361.234375 520.375 360.945312 520.507812 C 360.65625 520.636719 360.386719 520.804688 360.140625 521.007812 C 359.839844 521.265625 359.652344 521.589844 359.578125 521.980469 C 359.535156 522.242188 359.5625 522.488281 359.664062 522.71875 C 359.765625 522.949219 359.898438 523.167969 360.054688 523.367188 C 360.417969 523.789062 360.8125 524.164062 361.238281 524.496094 C 361.664062 524.828125 362.121094 525.160156 362.613281 525.492188 C 362.859375 525.667969 363.101562 525.832031 363.339844 525.992188 C 363.578125 526.152344 363.816406 526.328125 364.054688 526.523438 C 364.292969 526.71875 364.546875 526.9375 364.8125 527.183594 C 365.082031 527.429688 365.351562 527.71875 365.628906 528.050781 C 366.164062 528.703125 366.554688 529.476562 366.808594 530.382812 C 367.0625 531.285156 367.085938 532.292969 366.882812 533.40625 "/>
<path style="fill:none;stroke-width:13.875;stroke-linecap:butt;stroke-linejoin:round;stroke:rgb(0%,0%,0%);stroke-opacity:1;stroke-miterlimit:10;" d="M 403.046875 457.578125 L 5438.945312 457.578125 " transform="matrix(0.1,0,0,-0.1,0,555)"/>
<path style="fill:none;stroke-width:13.875;stroke-linecap:butt;stroke-linejoin:round;stroke:rgb(0%,0%,0%);stroke-opacity:1;stroke-miterlimit:10;" d="M 1242.34375 345.9375 L 1242.34375 5347.109375 " transform="matrix(0.1,0,0,-0.1,0,555)"/>
</g>
</svg>
