<?xml version="1.0" encoding="UTF-8"?>
<svg xmlns="http://www.w3.org/2000/svg" xmlns:xlink="http://www.w3.org/1999/xlink" width="465pt" height="60pt" viewBox="0 0 465 60" version="1.1">
<g id="surface1">
<path style="fill:none;stroke-width:10;stroke-linecap:butt;stroke-linejoin:miter;stroke:rgb(0%,0%,0%);stroke-opacity:1;stroke-miterlimit:10;" d="M 50 50 L 550 50 L 550 550 L 50 550 Z M 50 50 " transform="matrix(0.1,0,0,-0.1,0,60)"/>
<path style=" stroke:none;fill-rule:nonzero;fill:rgb(0%,0%,0%);fill-opacity:1;" d="M 36.5 5 L 25 2.5 L 25 7.5 "/>
<path style=" stroke:none;fill-rule:nonzero;fill:rgb(0%,0%,0%);fill-opacity:1;" d="M 36.5 55 L 25 52.5 L 25 57.5 "/>
<path style="fill:none;stroke-width:8.75;stroke-linecap:butt;stroke-linejoin:miter;stroke:rgb(0%,0%,0%);stroke-opacity:1;stroke-miterlimit:10;" d="M 1545.74193 354.955167 C 1509.830478 431.99599 1432.493251 481.248797 1347.499775 481.248797 C 1226.685993 481.248797 1128.749812 383.324237 1128.749812 262.499344 C 1128.749812 141.674451 1226.685993 43.749891 1347.499775 43.749891 C 1432.493251 43.749891 1509.830478 93.002697 1545.74193 170.04352 " transform="matrix(0.0857143,0,0,-0.114286,0,60)"/>
<path style="fill:none;stroke-width:8.75;stroke-linecap:butt;stroke-linejoin:miter;stroke:rgb(0%,0%,0%);stroke-opacity:1;stroke-miterlimit:10;" d="M 1347.499775 481.248797 L 2878.74952 481.248797 " transform="matrix(0.0857143,0,0,-0.114286,0,60)"/>
<path style="fill:none;stroke-width:8.75;stroke-linecap:butt;stroke-linejoin:miter;stroke:rgb(0%,0%,0%);stroke-opacity:1;stroke-miterlimit:10;" d="M 1347.499775 43.749891 L 2878.74952 43.749891 " transform="matrix(0.0857143,0,0,-0.114286,0,60)"/>
<path style="fill:none;stroke-width:8.75;stroke-linecap:butt;stroke-linejoin:miter;stroke:rgb(0%,0%,0%);stroke-opacity:1;stroke-miterlimit:10;" d="M 1545.74193 354.955167 L 3056.529438 354.955167 " transform="matrix(0.0857143,0,0,-0.114286,0,60)"/>
<path style="fill:none;stroke-width:8.75;stroke-linecap:butt;stroke-linejoin:miter;stroke:rgb(0%,0%,0%);stroke-opacity:1;stroke-miterlimit:10;" d="M 1545.74193 170.04352 L 3056.529438 170.04352 " transform="matrix(0.0857143,0,0,-0.114286,0,60)"/>
<path style="fill:none;stroke-width:8.75;stroke-linecap:butt;stroke-linejoin:miter;stroke:rgb(0%,0%,0%);stroke-opacity:1;stroke-miterlimit:10;" d="M 3056.529438 354.955167 C 3020.572413 431.99599 2943.280759 481.248797 2858.241711 481.248797 " transform="matrix(0.0857143,0,0,-0.114286,0,60)"/>
<path style="fill:none;stroke-width:8.75;stroke-linecap:butt;stroke-linejoin:miter;stroke:rgb(0%,0%,0%);stroke-opacity:1;stroke-miterlimit:10;" d="M 2858.241711 43.749891 C 2943.280759 43.749891 3020.572413 93.002697 3056.529438 170.04352 " transform="matrix(0.0857143,0,0,-0.114286,0,60)"/>
<path style="fill:none;stroke-width:8.75;stroke-linecap:butt;stroke-linejoin:miter;stroke:rgb(0%,0%,0%);stroke-opacity:1;stroke-miterlimit:10;" d="M 2659.999557 354.955167 C 2646.509976 326.005044 2639.491748 294.457272 2639.491748 262.499344 C 2639.491748 230.575595 2646.509976 198.993643 2659.999557 170.04352 " transform="matrix(0.0857143,0,0,-0.114286,0,60)"/>
<path style=" stroke:none;fill-rule:nonzero;fill:rgb(0%,0%,0%);fill-opacity:1;" d="M 195.246094 19.433594 L 187.746094 16.433594 L 187.746094 22.433594 "/>
<path style=" stroke:none;fill-rule:nonzero;fill:rgb(0%,0%,0%);fill-opacity:1;" d="M 195.246094 40.566406 L 187.746094 37.566406 L 187.746094 43.566406 "/>
<path style="fill:none;stroke-width:8.75;stroke-linecap:butt;stroke-linejoin:miter;stroke:rgb(0%,0%,0%);stroke-opacity:1;stroke-miterlimit:10;" d="M 3863.124356 262.499344 C 3863.124356 383.324237 3765.188175 481.248797 3644.374393 481.248797 C 3523.560611 481.248797 3425.624429 383.324237 3425.624429 262.499344 C 3425.624429 141.674451 3523.560611 43.749891 3644.374393 43.749891 C 3765.188175 43.749891 3863.124356 141.674451 3863.124356 262.499344 " transform="matrix(0.0857143,0,0,-0.114286,0,60)"/>
<path style="fill:none;stroke-width:8.75;stroke-linecap:butt;stroke-linejoin:miter;stroke:rgb(0%,0%,0%);stroke-opacity:1;stroke-miterlimit:10;" d="M 3644.374393 481.248797 L 5175.624137 481.248797 " transform="matrix(0.0857143,0,0,-0.114286,0,60)"/>
<path style="fill:none;stroke-width:8.75;stroke-linecap:butt;stroke-linejoin:miter;stroke:rgb(0%,0%,0%);stroke-opacity:1;stroke-miterlimit:10;" d="M 3644.374393 43.749891 L 5175.624137 43.749891 " transform="matrix(0.0857143,0,0,-0.114286,0,60)"/>
<path style="fill:none;stroke-width:8.75;stroke-linecap:butt;stroke-linejoin:miter;stroke:rgb(0%,0%,0%);stroke-opacity:1;stroke-miterlimit:10;" d="M 3863.124356 262.499344 L 5373.866292 262.499344 " transform="matrix(0.0857143,0,0,-0.114286,0,60)"/>
<path style="fill:none;stroke-width:8.75;stroke-linecap:butt;stroke-linejoin:miter;stroke:rgb(0%,0%,0%);stroke-opacity:1;stroke-miterlimit:10;" d="M 5155.116328 43.749891 C 5275.93011 43.749891 5373.866292 141.674451 5373.866292 262.499344 C 5373.866292 383.324237 5275.93011 481.248797 5155.116328 481.248797 " transform="matrix(0.0857143,0,0,-0.114286,0,60)"/>
<path style=" stroke:none;fill-rule:nonzero;fill:rgb(0%,0%,0%);fill-opacity:1;" d="M 392.121094 30 L 384.621094 27 L 384.621094 33 "/>
</g>
</svg>
