<?xml version="1.0" encoding="UTF-8"?>
<svg xmlns="http://www.w3.org/2000/svg" xmlns:xlink="http://www.w3.org/1999/xlink" width="484pt" height="84pt" viewBox="0 0 484 84" version="1.1">
<g id="surface1">
<path style=" stroke:none;fill-rule:nonzero;fill:rgb(100%,100%,100%);fill-opacity:1;" d="M 0 0 L 483.488281 0 L 483.488281 83.3125 L 0 83.3125 L 0 0 "/>
<path style="fill:none;stroke-width:15;stroke-linecap:round;stroke-linejoin:round;stroke:rgb(0%,0%,0%);stroke-opacity:1;stroke-miterlimit:10;" d="M 538.242188 515.664062 C 538.242188 468.710938 500.195312 430.625 453.203125 430.625 C 406.25 430.625 368.164062 468.710938 368.164062 515.664062 C 368.164062 562.65625 406.25 600.703125 453.203125 600.703125 C 500.195312 600.703125 538.242188 562.65625 538.242188 515.664062 Z M 538.242188 515.664062 " transform="matrix(0.1,0,0,-0.1,0,84)"/>
<path style="fill:none;stroke-width:15;stroke-linecap:round;stroke-linejoin:round;stroke:rgb(0%,0%,0%);stroke-opacity:1;stroke-miterlimit:10;" d="M 1105.195312 515.664062 C 1105.195312 468.710938 1067.109375 430.625 1020.15625 430.625 C 973.164062 430.625 935.117188 468.710938 935.117188 515.664062 C 935.117188 562.65625 973.164062 600.703125 1020.15625 600.703125 C 1067.109375 600.703125 1105.195312 562.65625 1105.195312 515.664062 Z M 1105.195312 515.664062 " transform="matrix(0.1,0,0,-0.1,0,84)"/>
<path style="fill:none;stroke-width:15;stroke-linecap:round;stroke-linejoin:round;stroke:rgb(0%,0%,0%);stroke-opacity:1;stroke-miterlimit:10;" d="M 1672.109375 515.664062 C 1672.109375 468.710938 1634.023438 430.625 1587.070312 430.625 C 1540.117188 430.625 1502.03125 468.710938 1502.03125 515.664062 C 1502.03125 562.65625 1540.117188 600.703125 1587.070312 600.703125 C 1634.023438 600.703125 1672.109375 562.65625 1672.109375 515.664062 Z M 1672.109375 515.664062 " transform="matrix(0.1,0,0,-0.1,0,84)"/>
<path style="fill:none;stroke-width:15;stroke-linecap:round;stroke-linejoin:round;stroke:rgb(0%,0%,0%);stroke-opacity:1;stroke-miterlimit:10;" d="M 2239.0625 515.664062 C 2239.0625 468.710938 2200.976562 430.625 2153.984375 430.625 C 2107.03125 430.625 2068.945312 468.710938 2068.945312 515.664062 C 2068.945312 562.65625 2107.03125 600.703125 2153.984375 600.703125 C 2200.976562 600.703125 2239.0625 562.65625 2239.0625 515.664062 Z M 2239.0625 515.664062 " transform="matrix(0.1,0,0,-0.1,0,84)"/>
<path style="fill:none;stroke-width:15;stroke-linecap:round;stroke-linejoin:round;stroke:rgb(0%,0%,0%);stroke-opacity:1;stroke-miterlimit:10;" d="M 2805.976562 515.664062 C 2805.976562 468.710938 2767.890625 430.625 2720.9375 430.625 C 2673.984375 430.625 2635.898438 468.710938 2635.898438 515.664062 C 2635.898438 562.65625 2673.984375 600.703125 2720.9375 600.703125 C 2767.890625 600.703125 2805.976562 562.65625 2805.976562 515.664062 Z M 2805.976562 515.664062 " transform="matrix(0.1,0,0,-0.1,0,84)"/>
<path style="fill:none;stroke-width:15;stroke-linecap:round;stroke-linejoin:round;stroke:rgb(0%,0%,0%);stroke-opacity:1;stroke-miterlimit:10;" d="M 3372.890625 515.664062 C 3372.890625 468.710938 3334.84375 430.625 3287.851562 430.625 C 3240.898438 430.625 3202.8125 468.710938 3202.8125 515.664062 C 3202.8125 562.65625 3240.898438 600.703125 3287.851562 600.703125 C 3334.84375 600.703125 3372.890625 562.65625 3372.890625 515.664062 Z M 3372.890625 515.664062 " transform="matrix(0.1,0,0,-0.1,0,84)"/>
<path style="fill:none;stroke-width:15;stroke-linecap:round;stroke-linejoin:round;stroke:rgb(0%,0%,0%);stroke-opacity:1;stroke-miterlimit:10;" d="M 3939.84375 515.664062 C 3939.84375 468.710938 3901.757812 430.625 3854.804688 430.625 C 3807.8125 430.625 3769.765625 468.710938 3769.765625 515.664062 C 3769.765625 562.65625 3807.8125 600.703125 3854.804688 600.703125 C 3901.757812 600.703125 3939.84375 562.65625 3939.84375 515.664062 Z M 3939.84375 515.664062 " transform="matrix(0.1,0,0,-0.1,0,84)"/>
<path style="fill:none;stroke-width:15;stroke-linecap:round;stroke-linejoin:round;stroke:rgb(0%,0%,0%);stroke-opacity:1;stroke-miterlimit:10;" d="M 4506.757812 515.664062 C 4506.757812 468.710938 4468.671875 430.625 4421.71875 430.625 C 4374.765625 430.625 4336.679688 468.710938 4336.679688 515.664062 C 4336.679688 562.65625 4374.765625 600.703125 4421.71875 600.703125 C 4468.671875 600.703125 4506.757812 562.65625 4506.757812 515.664062 Z M 4506.757812 515.664062 " transform="matrix(0.1,0,0,-0.1,0,84)"/>
<path style="fill:none;stroke-width:25;stroke-linecap:round;stroke-linejoin:round;stroke:rgb(0%,0%,0%);stroke-opacity:1;stroke-miterlimit:10;" d="M 1133.515625 515.664062 C 1133.515625 669.0625 955.859375 793.4375 736.679688 793.4375 C 517.5 793.4375 339.84375 669.0625 339.84375 515.664062 C 339.84375 362.304688 517.5 237.929688 736.679688 237.929688 C 955.859375 237.929688 1133.515625 362.304688 1133.515625 515.664062 Z M 1133.515625 515.664062 " transform="matrix(0.1,0,0,-0.1,0,84)"/>
<path style="fill:none;stroke-width:25;stroke-linecap:round;stroke-linejoin:round;stroke:rgb(0%,0%,0%);stroke-opacity:1;stroke-miterlimit:10;" d="M 1700.46875 515.664062 C 1700.46875 669.0625 1522.773438 793.4375 1303.59375 793.4375 C 1084.453125 793.4375 906.757812 669.0625 906.757812 515.664062 C 906.757812 362.304688 1084.453125 237.929688 1303.59375 237.929688 C 1522.773438 237.929688 1700.46875 362.304688 1700.46875 515.664062 Z M 1700.46875 515.664062 " transform="matrix(0.1,0,0,-0.1,0,84)"/>
<path style="fill:none;stroke-width:25;stroke-linecap:round;stroke-linejoin:round;stroke:rgb(0%,0%,0%);stroke-opacity:1;stroke-miterlimit:10;" d="M 2267.382812 515.664062 C 2267.382812 669.0625 2089.726562 793.4375 1870.546875 793.4375 C 1651.367188 793.4375 1473.671875 669.0625 1473.671875 515.664062 C 1473.671875 362.304688 1651.367188 237.929688 1870.546875 237.929688 C 2089.726562 237.929688 2267.382812 362.304688 2267.382812 515.664062 Z M 2267.382812 515.664062 " transform="matrix(0.1,0,0,-0.1,0,84)"/>
<path style="fill:none;stroke-width:25;stroke-linecap:round;stroke-linejoin:round;stroke:rgb(0%,0%,0%);stroke-opacity:1;stroke-miterlimit:10;" d="M 2834.335938 515.664062 C 2834.335938 669.0625 2656.640625 793.4375 2437.460938 793.4375 C 2218.28125 793.4375 2040.625 669.0625 2040.625 515.664062 C 2040.625 362.304688 2218.28125 237.929688 2437.460938 237.929688 C 2656.640625 237.929688 2834.335938 362.304688 2834.335938 515.664062 Z M 2834.335938 515.664062 " transform="matrix(0.1,0,0,-0.1,0,84)"/>
<path style="fill:none;stroke-width:25;stroke-linecap:round;stroke-linejoin:round;stroke:rgb(0%,0%,0%);stroke-opacity:1;stroke-miterlimit:10;" d="M 3401.25 515.664062 C 3401.25 669.0625 3223.554688 793.4375 3004.414062 793.4375 C 2785.234375 793.4375 2607.539062 669.0625 2607.539062 515.664062 C 2607.539062 362.304688 2785.234375 237.929688 3004.414062 237.929688 C 3223.554688 237.929688 3401.25 362.304688 3401.25 515.664062 Z M 3401.25 515.664062 " transform="matrix(0.1,0,0,-0.1,0,84)"/>
<path style="fill:none;stroke-width:25;stroke-linecap:round;stroke-linejoin:round;stroke:rgb(0%,0%,0%);stroke-opacity:1;stroke-miterlimit:10;" d="M 3968.164062 515.664062 C 3968.164062 669.0625 3790.507812 793.4375 3571.328125 793.4375 C 3352.148438 793.4375 3174.492188 669.0625 3174.492188 515.664062 C 3174.492188 362.304688 3352.148438 237.929688 3571.328125 237.929688 C 3790.507812 237.929688 3968.164062 362.304688 3968.164062 515.664062 Z M 3968.164062 515.664062 " transform="matrix(0.1,0,0,-0.1,0,84)"/>
<path style="fill:none;stroke-width:25;stroke-linecap:round;stroke-linejoin:round;stroke:rgb(0%,0%,0%);stroke-opacity:1;stroke-miterlimit:10;" d="M 4535.117188 515.664062 C 4535.117188 669.0625 4357.421875 793.4375 4138.242188 793.4375 C 3919.0625 793.4375 3741.40625 669.0625 3741.40625 515.664062 C 3741.40625 362.304688 3919.0625 237.929688 4138.242188 237.929688 C 4357.421875 237.929688 4535.117188 362.304688 4535.117188 515.664062 Z M 4535.117188 515.664062 " transform="matrix(0.1,0,0,-0.1,0,84)"/>
<path style=" stroke:none;fill-rule:nonzero;fill:rgb(0%,0%,0%);fill-opacity:1;" d="M 47.371094 32.433594 C 47.371094 33.5625 46.453125 34.480469 45.320312 34.480469 C 44.191406 34.480469 43.273438 33.5625 43.273438 32.433594 C 43.273438 31.300781 44.191406 30.382812 45.320312 30.382812 C 46.453125 30.382812 47.371094 31.300781 47.371094 32.433594 "/>
<path style="fill:none;stroke-width:10;stroke-linecap:round;stroke-linejoin:round;stroke:rgb(0%,0%,0%);stroke-opacity:1;stroke-miterlimit:10;" d="M 473.710938 515.664062 C 473.710938 504.375 464.53125 495.195312 453.203125 495.195312 C 441.914062 495.195312 432.734375 504.375 432.734375 515.664062 C 432.734375 526.992188 441.914062 536.171875 453.203125 536.171875 C 464.53125 536.171875 473.710938 526.992188 473.710938 515.664062 Z M 473.710938 515.664062 " transform="matrix(0.1,0,0,-0.1,0,84)"/>
<path style=" stroke:none;fill-rule:nonzero;fill:rgb(0%,0%,0%);fill-opacity:1;" d="M 42.71875 76.394531 L 35.648438 76.394531 C 35.375 76.394531 35.230469 76.304688 35.222656 76.132812 C 35.222656 75.960938 35.363281 75.875 35.648438 75.875 L 42.71875 75.875 C 42.996094 75.875 43.140625 75.960938 43.148438 76.132812 C 43.148438 76.304688 43.007812 76.394531 42.71875 76.394531 "/>
<path style=" stroke:none;fill-rule:nonzero;fill:rgb(0%,0%,0%);fill-opacity:1;" d="M 50.414062 71.472656 L 48.664062 73.941406 C 48.292969 74.457031 48.023438 75.199219 47.859375 76.160156 C 47.765625 76.800781 47.714844 77.507812 47.714844 78.285156 L 47.714844 78.949219 C 47.714844 79.425781 47.519531 79.664062 47.121094 79.664062 C 46.722656 79.664062 46.523438 79.425781 46.523438 78.949219 C 46.523438 77.503906 46.941406 76.054688 47.78125 74.601562 L 48.121094 74.070312 L 49.570312 72.019531 L 46.886719 72.019531 C 46.097656 72.019531 45.675781 72.046875 45.613281 72.097656 C 45.527344 72.175781 45.417969 72.570312 45.289062 73.277344 L 44.964844 73.277344 L 45.394531 70.605469 L 45.71875 70.605469 C 45.753906 70.753906 45.832031 70.851562 45.953125 70.90625 L 45.964844 70.90625 C 46.191406 70.980469 46.660156 71.019531 47.378906 71.019531 L 50.53125 71.019531 C 50.53125 71.21875 50.492188 71.371094 50.414062 71.472656 "/>
<path style=" stroke:none;fill-rule:nonzero;fill:rgb(0%,0%,0%);fill-opacity:1;" d="M 75.71875 32.433594 C 75.71875 33.5625 74.800781 34.480469 73.667969 34.480469 C 72.535156 34.480469 71.621094 33.5625 71.621094 32.433594 C 71.621094 31.300781 72.535156 30.382812 73.667969 30.382812 C 74.800781 30.382812 75.71875 31.300781 75.71875 32.433594 "/>
<path style="fill:none;stroke-width:10;stroke-linecap:round;stroke-linejoin:round;stroke:rgb(0%,0%,0%);stroke-opacity:1;stroke-miterlimit:10;" d="M 757.1875 515.664062 C 757.1875 504.375 748.007812 495.195312 736.679688 495.195312 C 725.351562 495.195312 716.210938 504.375 716.210938 515.664062 C 716.210938 526.992188 725.351562 536.171875 736.679688 536.171875 C 748.007812 536.171875 757.1875 526.992188 757.1875 515.664062 Z M 757.1875 515.664062 " transform="matrix(0.1,0,0,-0.1,0,84)"/>
<path style=" stroke:none;fill-rule:nonzero;fill:rgb(0%,0%,0%);fill-opacity:1;" d="M 70.71875 76.394531 L 63.648438 76.394531 C 63.371094 76.394531 63.230469 76.304688 63.21875 76.132812 C 63.21875 75.960938 63.363281 75.875 63.648438 75.875 L 70.71875 75.875 C 70.996094 75.875 71.140625 75.960938 71.148438 76.132812 C 71.148438 76.304688 71.003906 76.394531 70.71875 76.394531 "/>
<path style=" stroke:none;fill-rule:nonzero;fill:rgb(0%,0%,0%);fill-opacity:1;" d="M 73.953125 75.121094 C 74.304688 74.265625 74.84375 73.835938 75.574219 73.835938 C 76.367188 73.835938 77.023438 74.164062 77.53125 74.824219 C 77.816406 75.175781 78.007812 75.59375 78.101562 76.070312 C 78.148438 76.285156 78.167969 76.503906 78.167969 76.730469 C 78.167969 77.691406 77.835938 78.460938 77.167969 79.039062 C 76.683594 79.457031 76.125 79.664062 75.492188 79.664062 C 74.613281 79.664062 73.925781 79.242188 73.433594 78.402344 C 73 77.652344 72.78125 76.609375 72.78125 75.277344 C 72.78125 73.78125 73.207031 72.589844 74.054688 71.710938 C 74.683594 71.0625 75.398438 70.734375 76.195312 70.734375 C 76.949219 70.734375 77.453125 71 77.714844 71.527344 C 77.800781 71.707031 77.84375 71.910156 77.84375 72.136719 C 77.84375 72.484375 77.683594 72.6875 77.363281 72.746094 C 77.320312 72.753906 77.28125 72.761719 77.246094 72.761719 C 76.96875 72.761719 76.785156 72.640625 76.6875 72.398438 C 76.660156 72.328125 76.648438 72.25 76.648438 72.164062 C 76.648438 71.773438 76.886719 71.578125 77.363281 71.578125 C 77.140625 71.234375 76.757812 71.0625 76.222656 71.0625 C 75.617188 71.0625 75.105469 71.332031 74.691406 71.878906 C 74.199219 72.527344 73.953125 73.503906 73.953125 74.808594 Z M 75.492188 79.300781 C 76.074219 79.300781 76.503906 79.019531 76.78125 78.457031 C 76.925781 78.144531 77 77.5625 77 76.71875 C 77 75.851562 76.921875 75.257812 76.765625 74.9375 C 76.496094 74.402344 76.09375 74.132812 75.558594 74.132812 C 74.875 74.132812 74.40625 74.542969 74.144531 75.355469 C 74.035156 75.691406 73.976562 76.054688 73.976562 76.445312 C 73.976562 77.292969 74.054688 77.917969 74.210938 78.328125 C 74.375 78.722656 74.628906 79.007812 74.976562 79.183594 C 75.140625 79.261719 75.3125 79.300781 75.492188 79.300781 "/>
<path style=" stroke:none;fill-rule:nonzero;fill:rgb(0%,0%,0%);fill-opacity:1;" d="M 104.0625 32.433594 C 104.0625 33.5625 103.144531 34.480469 102.015625 34.480469 C 100.882812 34.480469 99.964844 33.5625 99.964844 32.433594 C 99.964844 31.300781 100.882812 30.382812 102.015625 30.382812 C 103.144531 30.382812 104.0625 31.300781 104.0625 32.433594 "/>
<path style="fill:none;stroke-width:10;stroke-linecap:round;stroke-linejoin:round;stroke:rgb(0%,0%,0%);stroke-opacity:1;stroke-miterlimit:10;" d="M 1040.625 515.664062 C 1040.625 504.375 1031.445312 495.195312 1020.15625 495.195312 C 1008.828125 495.195312 999.648438 504.375 999.648438 515.664062 C 999.648438 526.992188 1008.828125 536.171875 1020.15625 536.171875 C 1031.445312 536.171875 1040.625 526.992188 1040.625 515.664062 Z M 1040.625 515.664062 " transform="matrix(0.1,0,0,-0.1,0,84)"/>
<path style=" stroke:none;fill-rule:nonzero;fill:rgb(0%,0%,0%);fill-opacity:1;" d="M 99.402344 76.394531 L 92.328125 76.394531 C 92.054688 76.394531 91.910156 76.304688 91.902344 76.132812 C 91.902344 75.960938 92.042969 75.875 92.328125 75.875 L 99.402344 75.875 C 99.675781 75.875 99.820312 75.960938 99.832031 76.132812 C 99.832031 76.304688 99.6875 76.394531 99.402344 76.394531 "/>
<path style=" stroke:none;fill-rule:nonzero;fill:rgb(0%,0%,0%);fill-opacity:1;" d="M 106.746094 76.769531 C 106.746094 77.660156 106.414062 78.394531 105.746094 78.976562 C 105.210938 79.433594 104.601562 79.664062 103.914062 79.664062 C 103.121094 79.664062 102.488281 79.328125 102.023438 78.664062 C 101.71875 78.238281 101.566406 77.78125 101.566406 77.289062 C 101.566406 76.890625 101.746094 76.664062 102.101562 76.613281 C 102.136719 76.605469 102.171875 76.601562 102.203125 76.601562 C 102.523438 76.601562 102.730469 76.742188 102.828125 77.03125 C 102.84375 77.097656 102.855469 77.167969 102.855469 77.234375 C 102.855469 77.511719 102.730469 77.703125 102.488281 77.808594 C 102.402344 77.851562 102.308594 77.871094 102.203125 77.871094 C 102.109375 77.871094 102.035156 77.863281 101.984375 77.847656 C 102.140625 78.390625 102.472656 78.796875 102.984375 79.066406 C 103.269531 79.222656 103.570312 79.300781 103.890625 79.300781 C 104.46875 79.300781 104.933594 79.019531 105.277344 78.457031 C 105.484375 78.09375 105.589844 77.5 105.589844 76.679688 C 105.589844 75.953125 105.511719 75.40625 105.355469 75.042969 C 105.117188 74.488281 104.746094 74.214844 104.253906 74.214844 C 103.554688 74.214844 102.996094 74.515625 102.578125 75.121094 C 102.527344 75.199219 102.472656 75.238281 102.410156 75.238281 C 102.300781 75.238281 102.238281 75.175781 102.230469 75.054688 L 102.230469 71.0625 C 102.230469 70.859375 102.273438 70.757812 102.359375 70.75 C 102.394531 70.75 102.445312 70.761719 102.515625 70.785156 C 103.058594 71.027344 103.636719 71.148438 104.238281 71.148438 C 104.863281 71.148438 105.453125 71.023438 106.007812 70.773438 C 106.050781 70.75 106.085938 70.734375 106.109375 70.734375 C 106.195312 70.734375 106.238281 70.785156 106.238281 70.878906 C 106.238281 70.992188 106.101562 71.171875 105.824219 71.421875 C 105.234375 71.960938 104.539062 72.226562 103.734375 72.226562 C 103.371094 72.226562 103.003906 72.171875 102.632812 72.058594 L 102.632812 74.589844 C 103.082031 74.148438 103.632812 73.925781 104.28125 73.925781 C 105.042969 73.925781 105.667969 74.261719 106.160156 74.925781 C 106.550781 75.453125 106.746094 76.070312 106.746094 76.769531 "/>
<path style=" stroke:none;fill-rule:nonzero;fill:rgb(0%,0%,0%);fill-opacity:1;" d="M 132.410156 32.433594 C 132.410156 33.5625 131.492188 34.480469 130.359375 34.480469 C 129.230469 34.480469 128.3125 33.5625 128.3125 32.433594 C 128.3125 31.300781 129.230469 30.382812 130.359375 30.382812 C 131.492188 30.382812 132.410156 31.300781 132.410156 32.433594 "/>
<path style="fill:none;stroke-width:10;stroke-linecap:round;stroke-linejoin:round;stroke:rgb(0%,0%,0%);stroke-opacity:1;stroke-miterlimit:10;" d="M 1324.101562 515.664062 C 1324.101562 504.375 1314.921875 495.195312 1303.59375 495.195312 C 1292.304688 495.195312 1283.125 504.375 1283.125 515.664062 C 1283.125 526.992188 1292.304688 536.171875 1303.59375 536.171875 C 1314.921875 536.171875 1324.101562 526.992188 1324.101562 515.664062 Z M 1324.101562 515.664062 " transform="matrix(0.1,0,0,-0.1,0,84)"/>
<path style=" stroke:none;fill-rule:nonzero;fill:rgb(0%,0%,0%);fill-opacity:1;" d="M 128.082031 76.394531 L 121.011719 76.394531 C 120.734375 76.394531 120.59375 76.304688 120.582031 76.132812 C 120.582031 75.960938 120.726562 75.875 121.011719 75.875 L 128.082031 75.875 C 128.359375 75.875 128.503906 75.960938 128.511719 76.132812 C 128.511719 76.304688 128.367188 76.394531 128.082031 76.394531 "/>
<path style=" stroke:none;fill-rule:nonzero;fill:rgb(0%,0%,0%);fill-opacity:1;" d="M 129.964844 77.234375 L 129.964844 76.835938 L 133.949219 70.75 C 134.015625 70.644531 134.101562 70.59375 134.207031 70.59375 C 134.328125 70.59375 134.398438 70.640625 134.414062 70.734375 L 134.414062 76.835938 L 135.710938 76.835938 L 135.710938 77.234375 L 134.414062 77.234375 L 134.414062 78.363281 C 134.414062 78.632812 134.464844 78.796875 134.570312 78.859375 C 134.691406 78.9375 134.96875 78.976562 135.402344 78.976562 L 135.671875 78.976562 L 135.671875 79.375 C 135.320312 79.351562 134.730469 79.339844 133.910156 79.339844 C 133.097656 79.339844 132.511719 79.351562 132.15625 79.375 L 132.15625 78.976562 L 132.429688 78.976562 C 132.964844 78.976562 133.277344 78.902344 133.363281 78.753906 C 133.398438 78.695312 133.414062 78.5625 133.414062 78.363281 L 133.414062 77.234375 Z M 133.492188 76.835938 L 133.492188 71.992188 L 130.328125 76.835938 Z M 133.492188 76.835938 "/>
<path style=" stroke:none;fill-rule:nonzero;fill:rgb(0%,0%,0%);fill-opacity:1;" d="M 160.757812 32.433594 C 160.757812 33.5625 159.839844 34.480469 158.707031 34.480469 C 157.574219 34.480469 156.660156 33.5625 156.660156 32.433594 C 156.660156 31.300781 157.574219 30.382812 158.707031 30.382812 C 159.839844 30.382812 160.757812 31.300781 160.757812 32.433594 "/>
<path style="fill:none;stroke-width:10;stroke-linecap:round;stroke-linejoin:round;stroke:rgb(0%,0%,0%);stroke-opacity:1;stroke-miterlimit:10;" d="M 1607.578125 515.664062 C 1607.578125 504.375 1598.398438 495.195312 1587.070312 495.195312 C 1575.742188 495.195312 1566.601562 504.375 1566.601562 515.664062 C 1566.601562 526.992188 1575.742188 536.171875 1587.070312 536.171875 C 1598.398438 536.171875 1607.578125 526.992188 1607.578125 515.664062 Z M 1607.578125 515.664062 " transform="matrix(0.1,0,0,-0.1,0,84)"/>
<path style=" stroke:none;fill-rule:nonzero;fill:rgb(0%,0%,0%);fill-opacity:1;" d="M 154.714844 76.394531 L 147.644531 76.394531 C 147.367188 76.394531 147.226562 76.304688 147.214844 76.132812 C 147.214844 75.960938 147.359375 75.875 147.644531 75.875 L 154.714844 75.875 C 154.992188 75.875 155.136719 75.960938 155.144531 76.132812 C 155.144531 76.304688 155.003906 76.394531 154.714844 76.394531 "/>
<path style=" stroke:none;fill-rule:nonzero;fill:rgb(0%,0%,0%);fill-opacity:1;" d="M 159.996094 74.808594 C 160.863281 74.980469 161.484375 75.40625 161.867188 76.082031 C 162.0625 76.417969 162.164062 76.777344 162.164062 77.160156 C 162.164062 77.894531 161.859375 78.511719 161.257812 79.015625 C 160.726562 79.445312 160.109375 79.664062 159.402344 79.664062 C 158.542969 79.664062 157.855469 79.40625 157.335938 78.894531 C 156.964844 78.53125 156.777344 78.109375 156.777344 77.625 C 156.777344 77.21875 156.960938 76.976562 157.324219 76.898438 C 157.382812 76.882812 157.445312 76.875 157.503906 76.875 C 157.835938 76.875 158.054688 77.011719 158.167969 77.289062 C 158.203125 77.402344 158.222656 77.503906 158.234375 77.597656 C 158.234375 77.945312 158.078125 78.167969 157.765625 78.273438 C 157.644531 78.316406 157.515625 78.332031 157.375 78.3125 C 157.695312 78.847656 158.25 79.167969 159.035156 79.273438 C 159.148438 79.292969 159.257812 79.300781 159.359375 79.300781 C 159.914062 79.300781 160.320312 79.027344 160.578125 78.480469 C 160.746094 78.136719 160.828125 77.695312 160.828125 77.160156 C 160.828125 76.007812 160.480469 75.316406 159.789062 75.082031 C 159.632812 75.03125 159.464844 75.003906 159.28125 75.003906 L 158.710938 75.003906 C 158.523438 75.003906 158.417969 74.957031 158.402344 74.863281 C 158.402344 74.773438 158.464844 74.722656 158.597656 74.707031 C 158.726562 74.707031 158.894531 74.691406 159.101562 74.667969 C 159.542969 74.648438 159.890625 74.480469 160.140625 74.160156 L 160.140625 74.148438 L 160.152344 74.132812 L 160.164062 74.121094 L 160.179688 74.121094 L 160.257812 73.992188 C 160.496094 73.585938 160.617188 73.09375 160.617188 72.511719 C 160.617188 71.707031 160.308594 71.238281 159.683594 71.097656 C 159.582031 71.074219 159.480469 71.0625 159.375 71.0625 C 158.769531 71.0625 158.273438 71.234375 157.894531 71.578125 C 157.800781 71.667969 157.71875 71.761719 157.648438 71.863281 C 158.183594 71.863281 158.453125 72.078125 158.453125 72.511719 C 158.453125 72.824219 158.316406 73.03125 158.050781 73.136719 C 157.972656 73.164062 157.886719 73.175781 157.789062 73.175781 C 157.453125 73.175781 157.242188 73.023438 157.152344 72.722656 L 157.152344 72.707031 C 157.136719 72.636719 157.128906 72.570312 157.128906 72.5 C 157.128906 71.921875 157.414062 71.457031 157.984375 71.109375 C 158.398438 70.859375 158.878906 70.734375 159.425781 70.734375 C 160.214844 70.734375 160.847656 70.96875 161.332031 71.4375 L 161.359375 71.460938 C 161.660156 71.773438 161.8125 72.128906 161.8125 72.527344 C 161.8125 73.242188 161.507812 73.84375 160.894531 74.328125 C 160.625 74.539062 160.324219 74.699219 159.996094 74.808594 "/>
<path style=" stroke:none;fill-rule:nonzero;fill:rgb(0%,0%,0%);fill-opacity:1;" d="M 189.101562 32.433594 C 189.101562 33.5625 188.1875 34.480469 187.054688 34.480469 C 185.921875 34.480469 185.003906 33.5625 185.003906 32.433594 C 185.003906 31.300781 185.921875 30.382812 187.054688 30.382812 C 188.1875 30.382812 189.101562 31.300781 189.101562 32.433594 "/>
<path style="fill:none;stroke-width:10;stroke-linecap:round;stroke-linejoin:round;stroke:rgb(0%,0%,0%);stroke-opacity:1;stroke-miterlimit:10;" d="M 1891.015625 515.664062 C 1891.015625 504.375 1881.875 495.195312 1870.546875 495.195312 C 1859.21875 495.195312 1850.039062 504.375 1850.039062 515.664062 C 1850.039062 526.992188 1859.21875 536.171875 1870.546875 536.171875 C 1881.875 536.171875 1891.015625 526.992188 1891.015625 515.664062 Z M 1891.015625 515.664062 " transform="matrix(0.1,0,0,-0.1,0,84)"/>
<path style=" stroke:none;fill-rule:nonzero;fill:rgb(0%,0%,0%);fill-opacity:1;" d="M 184.078125 77.074219 L 177.007812 77.074219 C 176.730469 77.074219 176.589844 76.988281 176.578125 76.816406 C 176.578125 76.644531 176.722656 76.554688 177.007812 76.554688 L 184.078125 76.554688 C 184.355469 76.554688 184.5 76.644531 184.507812 76.816406 C 184.507812 76.988281 184.367188 77.074219 184.078125 77.074219 "/>
<path style=" stroke:none;fill-rule:nonzero;fill:rgb(0%,0%,0%);fill-opacity:1;" d="M 191.425781 77.800781 L 191.058594 80.058594 L 186.246094 80.058594 C 186.246094 79.84375 186.273438 79.707031 186.324219 79.644531 L 186.390625 79.578125 L 188.882812 76.804688 C 189.789062 75.78125 190.242188 74.824219 190.242188 73.933594 C 190.242188 73.164062 190.011719 72.582031 189.542969 72.183594 L 189.527344 72.171875 L 189.515625 72.171875 C 189.238281 71.9375 188.902344 71.820312 188.507812 71.820312 C 187.882812 71.820312 187.386719 72.089844 187.015625 72.625 C 186.910156 72.78125 186.824219 72.953125 186.753906 73.144531 C 186.78125 73.136719 186.835938 73.128906 186.921875 73.128906 C 187.269531 73.128906 187.488281 73.285156 187.582031 73.597656 L 187.582031 73.609375 C 187.601562 73.671875 187.609375 73.738281 187.609375 73.804688 C 187.609375 74.152344 187.445312 74.371094 187.117188 74.46875 C 187.046875 74.484375 186.988281 74.492188 186.933594 74.492188 C 186.613281 74.492188 186.402344 74.359375 186.300781 74.089844 C 186.265625 73.996094 186.246094 73.890625 186.246094 73.765625 C 186.246094 73.101562 186.503906 72.53125 187.015625 72.054688 C 187.472656 71.632812 188.023438 71.417969 188.675781 71.417969 C 189.625 71.417969 190.363281 71.738281 190.890625 72.378906 C 191.195312 72.75 191.367188 73.191406 191.410156 73.703125 C 191.421875 73.78125 191.425781 73.859375 191.425781 73.933594 C 191.425781 74.566406 191.1875 75.167969 190.710938 75.738281 C 190.460938 76.03125 190.070312 76.421875 189.542969 76.90625 L 188.75 77.605469 L 188.621094 77.722656 L 187.246094 79.058594 L 189.582031 79.058594 C 190.34375 79.058594 190.753906 79.027344 190.816406 78.957031 C 190.902344 78.835938 190.996094 78.449219 191.101562 77.800781 L 191.425781 77.800781 "/>
<path style=" stroke:none;fill-rule:nonzero;fill:rgb(0%,0%,0%);fill-opacity:1;" d="M 217.449219 32.433594 C 217.449219 33.5625 216.53125 34.480469 215.398438 34.480469 C 214.269531 34.480469 213.351562 33.5625 213.351562 32.433594 C 213.351562 31.300781 214.269531 30.382812 215.398438 30.382812 C 216.53125 30.382812 217.449219 31.300781 217.449219 32.433594 "/>
<path style="fill:none;stroke-width:10;stroke-linecap:round;stroke-linejoin:round;stroke:rgb(0%,0%,0%);stroke-opacity:1;stroke-miterlimit:10;" d="M 2174.492188 515.664062 C 2174.492188 504.375 2165.3125 495.195312 2153.984375 495.195312 C 2142.695312 495.195312 2133.515625 504.375 2133.515625 515.664062 C 2133.515625 526.992188 2142.695312 536.171875 2153.984375 536.171875 C 2165.3125 536.171875 2174.492188 526.992188 2174.492188 515.664062 Z M 2174.492188 515.664062 " transform="matrix(0.1,0,0,-0.1,0,84)"/>
<path style=" stroke:none;fill-rule:nonzero;fill:rgb(0%,0%,0%);fill-opacity:1;" d="M 212.761719 76.394531 L 205.691406 76.394531 C 205.414062 76.394531 205.269531 76.304688 205.261719 76.132812 C 205.261719 75.960938 205.40625 75.875 205.691406 75.875 L 212.761719 75.875 C 213.039062 75.875 213.183594 75.960938 213.191406 76.132812 C 213.191406 76.304688 213.046875 76.394531 212.761719 76.394531 "/>
<path style=" stroke:none;fill-rule:nonzero;fill:rgb(0%,0%,0%);fill-opacity:1;" d="M 218.09375 71.074219 L 218.09375 78.351562 C 218.09375 78.609375 218.148438 78.773438 218.25 78.84375 C 218.398438 78.933594 218.746094 78.976562 219.300781 78.976562 L 219.71875 78.976562 L 219.71875 79.375 C 219.414062 79.351562 218.714844 79.339844 217.613281 79.339844 C 216.515625 79.339844 215.816406 79.351562 215.511719 79.375 L 215.511719 78.976562 L 215.929688 78.976562 C 216.59375 78.976562 216.976562 78.898438 217.070312 78.738281 L 217.082031 78.726562 C 217.117188 78.660156 217.132812 78.535156 217.132812 78.351562 L 217.132812 71.628906 C 216.683594 71.855469 216.117188 71.96875 215.4375 71.96875 L 215.4375 71.566406 C 216.472656 71.566406 217.261719 71.289062 217.796875 70.734375 C 217.960938 70.734375 218.054688 70.765625 218.082031 70.824219 L 218.082031 70.839844 C 218.089844 70.867188 218.09375 70.945312 218.09375 71.074219 "/>
<path style=" stroke:none;fill-rule:nonzero;fill:rgb(0%,0%,0%);fill-opacity:1;" d="M 245.796875 32.433594 C 245.796875 33.5625 244.878906 34.480469 243.746094 34.480469 C 242.617188 34.480469 241.699219 33.5625 241.699219 32.433594 C 241.699219 31.300781 242.617188 30.382812 243.746094 30.382812 C 244.878906 30.382812 245.796875 31.300781 245.796875 32.433594 "/>
<path style="fill:none;stroke-width:10;stroke-linecap:round;stroke-linejoin:round;stroke:rgb(0%,0%,0%);stroke-opacity:1;stroke-miterlimit:10;" d="M 2457.96875 515.664062 C 2457.96875 504.375 2448.789062 495.195312 2437.460938 495.195312 C 2426.171875 495.195312 2416.992188 504.375 2416.992188 515.664062 C 2416.992188 526.992188 2426.171875 536.171875 2437.460938 536.171875 C 2448.789062 536.171875 2457.96875 526.992188 2457.96875 515.664062 Z M 2457.96875 515.664062 " transform="matrix(0.1,0,0,-0.1,0,84)"/>
<path style=" stroke:none;fill-rule:nonzero;fill:rgb(0%,0%,0%);fill-opacity:1;" d="M 244.980469 75.90625 C 244.980469 77.171875 244.820312 78.148438 244.5 78.839844 C 243.992188 79.808594 243.238281 80.3125 242.246094 80.34375 C 241.457031 80.34375 240.824219 80.035156 240.347656 79.410156 C 240.253906 79.300781 240.171875 79.171875 240.105469 79.035156 C 239.714844 78.316406 239.519531 77.273438 239.519531 75.90625 C 239.519531 74.636719 239.679688 73.652344 239.996094 72.960938 C 240.429688 71.992188 241.132812 71.480469 242.101562 71.417969 L 242.257812 71.417969 C 243.027344 71.417969 243.652344 71.726562 244.136719 72.339844 L 244.136719 72.351562 C 244.261719 72.507812 244.367188 72.679688 244.464844 72.871094 C 244.808594 73.605469 244.980469 74.617188 244.980469 75.90625 Z M 242.246094 80.058594 C 242.789062 80.058594 243.207031 79.796875 243.503906 79.269531 C 243.621094 79.035156 243.710938 78.757812 243.761719 78.4375 C 243.855469 77.882812 243.90625 76.988281 243.90625 75.75 C 243.90625 74.550781 243.863281 73.707031 243.773438 73.222656 C 243.621094 72.398438 243.222656 71.90625 242.582031 71.742188 C 242.46875 71.71875 242.355469 71.703125 242.246094 71.703125 C 241.640625 71.703125 241.199219 72.007812 240.921875 72.609375 C 240.824219 72.820312 240.75 73.070312 240.699219 73.367188 C 240.632812 73.832031 240.597656 74.628906 240.597656 75.75 C 240.597656 77.058594 240.644531 77.972656 240.738281 78.492188 C 240.894531 79.320312 241.273438 79.824219 241.878906 80.007812 C 242.003906 80.042969 242.121094 80.058594 242.246094 80.058594 "/>
<path style=" stroke:none;fill-rule:nonzero;fill:rgb(0%,0%,0%);fill-opacity:1;" d="M 274.140625 32.433594 C 274.140625 33.5625 273.226562 34.480469 272.09375 34.480469 C 270.960938 34.480469 270.046875 33.5625 270.046875 32.433594 C 270.046875 31.300781 270.960938 30.382812 272.09375 30.382812 C 273.226562 30.382812 274.140625 31.300781 274.140625 32.433594 "/>
<path style="fill:none;stroke-width:10;stroke-linecap:round;stroke-linejoin:round;stroke:rgb(0%,0%,0%);stroke-opacity:1;stroke-miterlimit:10;" d="M 2741.40625 515.664062 C 2741.40625 504.375 2732.265625 495.195312 2720.9375 495.195312 C 2709.609375 495.195312 2700.46875 504.375 2700.46875 515.664062 C 2700.46875 526.992188 2709.609375 536.171875 2720.9375 536.171875 C 2732.265625 536.171875 2741.40625 526.992188 2741.40625 515.664062 Z M 2741.40625 515.664062 " transform="matrix(0.1,0,0,-0.1,0,84)"/>
<path style=" stroke:none;fill-rule:nonzero;fill:rgb(0%,0%,0%);fill-opacity:1;" d="M 274.242188 71.757812 L 274.242188 79.035156 C 274.242188 79.292969 274.292969 79.457031 274.394531 79.527344 C 274.542969 79.613281 274.894531 79.660156 275.449219 79.660156 L 275.863281 79.660156 L 275.863281 80.058594 C 275.5625 80.035156 274.859375 80.019531 273.761719 80.019531 C 272.664062 80.019531 271.960938 80.035156 271.660156 80.058594 L 271.660156 79.660156 L 272.074219 79.660156 C 272.742188 79.660156 273.121094 79.582031 273.214844 79.421875 L 273.226562 79.410156 C 273.261719 79.34375 273.28125 79.214844 273.28125 79.035156 L 273.28125 72.3125 C 272.832031 72.539062 272.265625 72.652344 271.582031 72.652344 L 271.582031 72.25 C 272.621094 72.25 273.40625 71.972656 273.941406 71.417969 C 274.105469 71.417969 274.203125 71.449219 274.226562 71.507812 L 274.226562 71.523438 C 274.238281 71.546875 274.242188 71.625 274.242188 71.757812 "/>
<path style=" stroke:none;fill-rule:nonzero;fill:rgb(0%,0%,0%);fill-opacity:1;" d="M 302.488281 32.433594 C 302.488281 33.5625 301.570312 34.480469 300.441406 34.480469 C 299.308594 34.480469 298.390625 33.5625 298.390625 32.433594 C 298.390625 31.300781 299.308594 30.382812 300.441406 30.382812 C 301.570312 30.382812 302.488281 31.300781 302.488281 32.433594 "/>
<path style="fill:none;stroke-width:10;stroke-linecap:round;stroke-linejoin:round;stroke:rgb(0%,0%,0%);stroke-opacity:1;stroke-miterlimit:10;" d="M 3024.882812 515.664062 C 3024.882812 504.375 3015.703125 495.195312 3004.414062 495.195312 C 2993.085938 495.195312 2983.90625 504.375 2983.90625 515.664062 C 2983.90625 526.992188 2993.085938 536.171875 3004.414062 536.171875 C 3015.703125 536.171875 3024.882812 526.992188 3024.882812 515.664062 Z M 3024.882812 515.664062 " transform="matrix(0.1,0,0,-0.1,0,84)"/>
<path style=" stroke:none;fill-rule:nonzero;fill:rgb(0%,0%,0%);fill-opacity:1;" d="M 304.253906 77.800781 L 303.886719 80.058594 L 299.074219 80.058594 C 299.074219 79.84375 299.097656 79.707031 299.152344 79.644531 L 299.214844 79.578125 L 301.707031 76.804688 C 302.617188 75.78125 303.070312 74.824219 303.070312 73.933594 C 303.070312 73.164062 302.835938 72.582031 302.371094 72.183594 L 302.355469 72.171875 L 302.34375 72.171875 C 302.066406 71.9375 301.730469 71.820312 301.332031 71.820312 C 300.710938 71.820312 300.210938 72.089844 299.839844 72.625 C 299.734375 72.78125 299.648438 72.953125 299.578125 73.144531 C 299.605469 73.136719 299.660156 73.128906 299.75 73.128906 C 300.09375 73.128906 300.316406 73.285156 300.410156 73.597656 L 300.410156 73.609375 C 300.425781 73.671875 300.4375 73.738281 300.4375 73.804688 C 300.4375 74.152344 300.273438 74.371094 299.941406 74.46875 C 299.875 74.484375 299.8125 74.492188 299.761719 74.492188 C 299.441406 74.492188 299.230469 74.359375 299.128906 74.089844 C 299.089844 73.996094 299.074219 73.890625 299.074219 73.765625 C 299.074219 73.101562 299.328125 72.53125 299.839844 72.054688 C 300.296875 71.632812 300.851562 71.417969 301.5 71.417969 C 302.453125 71.417969 303.191406 71.738281 303.71875 72.378906 C 304.019531 72.75 304.195312 73.191406 304.238281 73.703125 C 304.246094 73.78125 304.253906 73.859375 304.253906 73.933594 C 304.253906 74.566406 304.015625 75.167969 303.539062 75.738281 C 303.285156 76.03125 302.898438 76.421875 302.371094 76.90625 L 301.578125 77.605469 L 301.449219 77.722656 L 300.074219 79.058594 L 302.410156 79.058594 C 303.171875 79.058594 303.578125 79.027344 303.640625 78.957031 C 303.726562 78.835938 303.824219 78.449219 303.925781 77.800781 L 304.253906 77.800781 "/>
<path style=" stroke:none;fill-rule:nonzero;fill:rgb(0%,0%,0%);fill-opacity:1;" d="M 330.835938 32.433594 C 330.835938 33.5625 329.917969 34.480469 328.785156 34.480469 C 327.65625 34.480469 326.738281 33.5625 326.738281 32.433594 C 326.738281 31.300781 327.65625 30.382812 328.785156 30.382812 C 329.917969 30.382812 330.835938 31.300781 330.835938 32.433594 "/>
<path style="fill:none;stroke-width:10;stroke-linecap:round;stroke-linejoin:round;stroke:rgb(0%,0%,0%);stroke-opacity:1;stroke-miterlimit:10;" d="M 3308.359375 515.664062 C 3308.359375 504.375 3299.179688 495.195312 3287.851562 495.195312 C 3276.5625 495.195312 3267.382812 504.375 3267.382812 515.664062 C 3267.382812 526.992188 3276.5625 536.171875 3287.851562 536.171875 C 3299.179688 536.171875 3308.359375 526.992188 3308.359375 515.664062 Z M 3308.359375 515.664062 " transform="matrix(0.1,0,0,-0.1,0,84)"/>
<path style=" stroke:none;fill-rule:nonzero;fill:rgb(0%,0%,0%);fill-opacity:1;" d="M 330.867188 74.808594 C 331.734375 74.980469 332.355469 75.40625 332.738281 76.082031 C 332.9375 76.417969 333.035156 76.777344 333.035156 77.160156 C 333.035156 77.894531 332.734375 78.511719 332.128906 79.015625 C 331.601562 79.445312 330.980469 79.664062 330.273438 79.664062 C 329.414062 79.664062 328.730469 79.40625 328.210938 78.894531 C 327.839844 78.53125 327.652344 78.109375 327.652344 77.625 C 327.652344 77.21875 327.835938 76.976562 328.195312 76.898438 C 328.257812 76.882812 328.316406 76.875 328.378906 76.875 C 328.707031 76.875 328.925781 77.011719 329.039062 77.289062 C 329.074219 77.402344 329.097656 77.503906 329.105469 77.597656 C 329.105469 77.945312 328.949219 78.167969 328.636719 78.273438 C 328.515625 78.316406 328.386719 78.332031 328.246094 78.3125 C 328.566406 78.847656 329.121094 79.167969 329.90625 79.273438 C 330.023438 79.292969 330.128906 79.300781 330.234375 79.300781 C 330.785156 79.300781 331.195312 79.027344 331.453125 78.480469 C 331.617188 78.136719 331.699219 77.695312 331.699219 77.160156 C 331.699219 76.007812 331.355469 75.316406 330.664062 75.082031 C 330.507812 75.03125 330.335938 75.003906 330.15625 75.003906 L 329.585938 75.003906 C 329.394531 75.003906 329.289062 74.957031 329.273438 74.863281 C 329.273438 74.773438 329.339844 74.722656 329.46875 74.707031 C 329.597656 74.707031 329.765625 74.691406 329.972656 74.667969 C 330.414062 74.648438 330.761719 74.480469 331.011719 74.160156 L 331.011719 74.148438 L 331.023438 74.132812 L 331.039062 74.121094 L 331.050781 74.121094 L 331.128906 73.992188 C 331.371094 73.585938 331.492188 73.09375 331.492188 72.511719 C 331.492188 71.707031 331.179688 71.238281 330.558594 71.097656 C 330.453125 71.074219 330.351562 71.0625 330.246094 71.0625 C 329.640625 71.0625 329.148438 71.234375 328.765625 71.578125 C 328.671875 71.667969 328.589844 71.761719 328.519531 71.863281 C 329.058594 71.863281 329.324219 72.078125 329.324219 72.511719 C 329.324219 72.824219 329.191406 73.03125 328.921875 73.136719 C 328.84375 73.164062 328.757812 73.175781 328.664062 73.175781 C 328.324219 73.175781 328.113281 73.023438 328.027344 72.722656 L 328.027344 72.707031 C 328.011719 72.636719 328.003906 72.570312 328.003906 72.5 C 328.003906 71.921875 328.289062 71.457031 328.859375 71.109375 C 329.273438 70.859375 329.753906 70.734375 330.296875 70.734375 C 331.085938 70.734375 331.722656 70.96875 332.203125 71.4375 L 332.230469 71.460938 C 332.535156 71.773438 332.6875 72.128906 332.6875 72.527344 C 332.6875 73.242188 332.378906 73.84375 331.765625 74.328125 C 331.496094 74.539062 331.199219 74.699219 330.867188 74.808594 "/>
<path style=" stroke:none;fill-rule:nonzero;fill:rgb(0%,0%,0%);fill-opacity:1;" d="M 359.183594 32.433594 C 359.183594 33.5625 358.265625 34.480469 357.132812 34.480469 C 356.003906 34.480469 355.085938 33.5625 355.085938 32.433594 C 355.085938 31.300781 356.003906 30.382812 357.132812 30.382812 C 358.265625 30.382812 359.183594 31.300781 359.183594 32.433594 "/>
<path style="fill:none;stroke-width:10;stroke-linecap:round;stroke-linejoin:round;stroke:rgb(0%,0%,0%);stroke-opacity:1;stroke-miterlimit:10;" d="M 3591.835938 515.664062 C 3591.835938 504.375 3582.65625 495.195312 3571.328125 495.195312 C 3560.039062 495.195312 3550.859375 504.375 3550.859375 515.664062 C 3550.859375 526.992188 3560.039062 536.171875 3571.328125 536.171875 C 3582.65625 536.171875 3591.835938 526.992188 3591.835938 515.664062 Z M 3591.835938 515.664062 " transform="matrix(0.1,0,0,-0.1,0,84)"/>
<path style=" stroke:none;fill-rule:nonzero;fill:rgb(0%,0%,0%);fill-opacity:1;" d="M 356.152344 77.917969 L 356.152344 77.519531 L 360.136719 71.429688 C 360.203125 71.328125 360.289062 71.277344 360.394531 71.277344 C 360.515625 71.277344 360.585938 71.324219 360.601562 71.417969 L 360.601562 77.519531 L 361.898438 77.519531 L 361.898438 77.917969 L 360.601562 77.917969 L 360.601562 79.046875 C 360.601562 79.316406 360.652344 79.480469 360.757812 79.542969 C 360.878906 79.617188 361.15625 79.660156 361.589844 79.660156 L 361.859375 79.660156 L 361.859375 80.058594 C 361.507812 80.035156 360.917969 80.019531 360.097656 80.019531 C 359.28125 80.019531 358.699219 80.035156 358.34375 80.058594 L 358.34375 79.660156 L 358.617188 79.660156 C 359.152344 79.660156 359.464844 79.585938 359.550781 79.4375 C 359.585938 79.375 359.605469 79.246094 359.605469 79.046875 L 359.605469 77.917969 Z M 359.679688 77.519531 L 359.679688 72.675781 L 356.515625 77.519531 Z M 359.679688 77.519531 "/>
<path style=" stroke:none;fill-rule:nonzero;fill:rgb(0%,0%,0%);fill-opacity:1;" d="M 387.527344 32.433594 C 387.527344 33.5625 386.609375 34.480469 385.480469 34.480469 C 384.347656 34.480469 383.429688 33.5625 383.429688 32.433594 C 383.429688 31.300781 384.347656 30.382812 385.480469 30.382812 C 386.609375 30.382812 387.527344 31.300781 387.527344 32.433594 "/>
<path style="fill:none;stroke-width:10;stroke-linecap:round;stroke-linejoin:round;stroke:rgb(0%,0%,0%);stroke-opacity:1;stroke-miterlimit:10;" d="M 3875.273438 515.664062 C 3875.273438 504.375 3866.09375 495.195312 3854.804688 495.195312 C 3843.476562 495.195312 3834.296875 504.375 3834.296875 515.664062 C 3834.296875 526.992188 3843.476562 536.171875 3854.804688 536.171875 C 3866.09375 536.171875 3875.273438 526.992188 3875.273438 515.664062 Z M 3875.273438 515.664062 " transform="matrix(0.1,0,0,-0.1,0,84)"/>
<path style=" stroke:none;fill-rule:nonzero;fill:rgb(0%,0%,0%);fill-opacity:1;" d="M 388.246094 76.769531 C 388.246094 77.660156 387.914062 78.394531 387.246094 78.976562 C 386.710938 79.433594 386.101562 79.664062 385.417969 79.664062 C 384.621094 79.664062 383.992188 79.328125 383.523438 78.664062 C 383.222656 78.238281 383.070312 77.78125 383.070312 77.289062 C 383.070312 76.890625 383.246094 76.664062 383.601562 76.613281 C 383.636719 76.605469 383.671875 76.601562 383.707031 76.601562 C 384.023438 76.601562 384.234375 76.742188 384.328125 77.03125 C 384.347656 77.097656 384.355469 77.167969 384.355469 77.234375 C 384.355469 77.511719 384.234375 77.703125 383.988281 77.808594 C 383.902344 77.851562 383.808594 77.871094 383.707031 77.871094 C 383.609375 77.871094 383.535156 77.863281 383.484375 77.847656 C 383.640625 78.390625 383.972656 78.796875 384.484375 79.066406 C 384.769531 79.222656 385.074219 79.300781 385.394531 79.300781 C 385.972656 79.300781 386.433594 79.019531 386.78125 78.457031 C 386.988281 78.09375 387.09375 77.5 387.09375 76.679688 C 387.09375 75.953125 387.015625 75.40625 386.859375 75.042969 C 386.617188 74.488281 386.25 74.214844 385.757812 74.214844 C 385.054688 74.214844 384.496094 74.515625 384.082031 75.121094 C 384.03125 75.199219 383.972656 75.238281 383.914062 75.238281 C 383.800781 75.238281 383.738281 75.175781 383.730469 75.054688 L 383.730469 71.0625 C 383.730469 70.859375 383.773438 70.757812 383.859375 70.75 C 383.894531 70.75 383.949219 70.761719 384.015625 70.785156 C 384.5625 71.027344 385.136719 71.148438 385.742188 71.148438 C 386.363281 71.148438 386.953125 71.023438 387.507812 70.773438 C 387.550781 70.75 387.585938 70.734375 387.609375 70.734375 C 387.699219 70.734375 387.742188 70.785156 387.742188 70.878906 C 387.742188 70.992188 387.601562 71.171875 387.324219 71.421875 C 386.738281 71.960938 386.039062 72.226562 385.238281 72.226562 C 384.871094 72.226562 384.507812 72.171875 384.132812 72.058594 L 384.132812 74.589844 C 384.585938 74.148438 385.132812 73.925781 385.78125 73.925781 C 386.542969 73.925781 387.171875 74.261719 387.664062 74.925781 C 388.054688 75.453125 388.246094 76.070312 388.246094 76.769531 "/>
<path style=" stroke:none;fill-rule:nonzero;fill:rgb(0%,0%,0%);fill-opacity:1;" d="M 415.875 32.433594 C 415.875 33.5625 414.957031 34.480469 413.824219 34.480469 C 412.695312 34.480469 411.777344 33.5625 411.777344 32.433594 C 411.777344 31.300781 412.695312 30.382812 413.824219 30.382812 C 414.957031 30.382812 415.875 31.300781 415.875 32.433594 "/>
<path style="fill:none;stroke-width:10;stroke-linecap:round;stroke-linejoin:round;stroke:rgb(0%,0%,0%);stroke-opacity:1;stroke-miterlimit:10;" d="M 4158.75 515.664062 C 4158.75 504.375 4149.570312 495.195312 4138.242188 495.195312 C 4126.953125 495.195312 4117.773438 504.375 4117.773438 515.664062 C 4117.773438 526.992188 4126.953125 536.171875 4138.242188 536.171875 C 4149.570312 536.171875 4158.75 526.992188 4158.75 515.664062 Z M 4158.75 515.664062 " transform="matrix(0.1,0,0,-0.1,0,84)"/>
<path style=" stroke:none;fill-rule:nonzero;fill:rgb(0%,0%,0%);fill-opacity:1;" d="M 414.863281 75.804688 C 415.21875 74.949219 415.757812 74.519531 416.484375 74.519531 C 417.28125 74.519531 417.933594 74.847656 418.445312 75.507812 C 418.730469 75.859375 418.921875 76.273438 419.015625 76.75 C 419.058594 76.96875 419.082031 77.1875 419.082031 77.414062 C 419.082031 78.375 418.746094 79.144531 418.082031 79.722656 C 417.597656 80.136719 417.039062 80.34375 416.40625 80.34375 C 415.527344 80.34375 414.839844 79.925781 414.34375 79.085938 C 413.914062 78.332031 413.695312 77.292969 413.695312 75.960938 C 413.695312 74.460938 414.121094 73.273438 414.96875 72.394531 C 415.597656 71.742188 416.3125 71.417969 417.109375 71.417969 C 417.859375 71.417969 418.367188 71.683594 418.628906 72.210938 C 418.714844 72.390625 418.757812 72.59375 418.757812 72.820312 C 418.757812 73.164062 418.597656 73.371094 418.277344 73.429688 C 418.234375 73.4375 418.195312 73.441406 418.160156 73.441406 C 417.882812 73.441406 417.695312 73.320312 417.601562 73.078125 C 417.574219 73.011719 417.5625 72.933594 417.5625 72.847656 C 417.5625 72.457031 417.800781 72.261719 418.277344 72.261719 C 418.050781 71.917969 417.671875 71.742188 417.136719 71.742188 C 416.527344 71.742188 416.019531 72.015625 415.605469 72.558594 C 415.109375 73.210938 414.863281 74.1875 414.863281 75.492188 Z M 416.40625 79.984375 C 416.988281 79.984375 417.414062 79.703125 417.691406 79.140625 C 417.839844 78.828125 417.914062 78.246094 417.914062 77.398438 C 417.914062 76.535156 417.835938 75.941406 417.679688 75.621094 C 417.410156 75.085938 417.007812 74.816406 416.472656 74.816406 C 415.789062 74.816406 415.316406 75.222656 415.058594 76.039062 C 414.945312 76.375 414.890625 76.738281 414.890625 77.128906 C 414.890625 77.976562 414.96875 78.601562 415.125 79.011719 C 415.289062 79.40625 415.542969 79.691406 415.886719 79.863281 C 416.054688 79.945312 416.226562 79.984375 416.40625 79.984375 "/>
<path style=" stroke:none;fill-rule:nonzero;fill:rgb(0%,0%,0%);fill-opacity:1;" d="M 444.222656 32.433594 C 444.222656 33.5625 443.304688 34.480469 442.171875 34.480469 C 441.039062 34.480469 440.121094 33.5625 440.121094 32.433594 C 440.121094 31.300781 441.039062 30.382812 442.171875 30.382812 C 443.304688 30.382812 444.222656 31.300781 444.222656 32.433594 "/>
<path style="fill:none;stroke-width:10;stroke-linecap:round;stroke-linejoin:round;stroke:rgb(0%,0%,0%);stroke-opacity:1;stroke-miterlimit:10;" d="M 4442.226562 515.664062 C 4442.226562 504.375 4433.046875 495.195312 4421.71875 495.195312 C 4410.390625 495.195312 4401.210938 504.375 4401.210938 515.664062 C 4401.210938 526.992188 4410.390625 536.171875 4421.71875 536.171875 C 4433.046875 536.171875 4442.226562 526.992188 4442.226562 515.664062 Z M 4442.226562 515.664062 " transform="matrix(0.1,0,0,-0.1,0,84)"/>
<path style=" stroke:none;fill-rule:nonzero;fill:rgb(0%,0%,0%);fill-opacity:1;" d="M 447.324219 72.15625 L 445.574219 74.621094 C 445.203125 75.140625 444.933594 75.882812 444.769531 76.84375 C 444.675781 77.480469 444.628906 78.191406 444.628906 78.96875 L 444.628906 79.632812 C 444.628906 80.109375 444.429688 80.34375 444.03125 80.34375 C 443.632812 80.34375 443.433594 80.109375 443.433594 79.632812 C 443.433594 78.1875 443.851562 76.738281 444.691406 75.285156 L 445.03125 74.753906 L 446.480469 72.703125 L 443.796875 72.703125 C 443.011719 72.703125 442.585938 72.730469 442.523438 72.78125 C 442.4375 72.859375 442.328125 73.253906 442.199219 73.960938 L 441.875 73.960938 L 442.304688 71.289062 L 442.628906 71.289062 C 442.664062 71.433594 442.742188 71.535156 442.863281 71.585938 L 442.875 71.585938 C 443.101562 71.664062 443.574219 71.703125 444.289062 71.703125 L 447.441406 71.703125 C 447.441406 71.902344 447.402344 72.054688 447.324219 72.15625 "/>
<path style=" stroke:none;fill-rule:nonzero;fill:rgb(0%,0%,0%);fill-opacity:1;" d="M 468.464844 32.433594 C 468.464844 32.808594 468.160156 33.113281 467.78125 33.113281 C 467.40625 33.113281 467.101562 32.808594 467.101562 32.433594 C 467.101562 32.054688 467.40625 31.75 467.78125 31.75 C 468.160156 31.75 468.464844 32.054688 468.464844 32.433594 "/>
<path style="fill:none;stroke-width:10;stroke-linecap:round;stroke-linejoin:round;stroke:rgb(0%,0%,0%);stroke-opacity:1;stroke-miterlimit:10;" d="M 4684.648438 515.664062 C 4684.648438 511.914062 4681.601562 508.867188 4677.8125 508.867188 C 4674.0625 508.867188 4671.015625 511.914062 4671.015625 515.664062 C 4671.015625 519.453125 4674.0625 522.5 4677.8125 522.5 C 4681.601562 522.5 4684.648438 519.453125 4684.648438 515.664062 Z M 4684.648438 515.664062 " transform="matrix(0.1,0,0,-0.1,0,84)"/>
<path style=" stroke:none;fill-rule:nonzero;fill:rgb(0%,0%,0%);fill-opacity:1;" d="M 473.929688 32.433594 C 473.929688 32.808594 473.621094 33.113281 473.246094 33.113281 C 472.867188 33.113281 472.5625 32.808594 472.5625 32.433594 C 472.5625 32.054688 472.867188 31.75 473.246094 31.75 C 473.621094 31.75 473.929688 32.054688 473.929688 32.433594 "/>
<path style="fill:none;stroke-width:10;stroke-linecap:round;stroke-linejoin:round;stroke:rgb(0%,0%,0%);stroke-opacity:1;stroke-miterlimit:10;" d="M 4739.296875 515.664062 C 4739.296875 511.914062 4736.210938 508.867188 4732.460938 508.867188 C 4728.671875 508.867188 4725.625 511.914062 4725.625 515.664062 C 4725.625 519.453125 4728.671875 522.5 4732.460938 522.5 C 4736.210938 522.5 4739.296875 519.453125 4739.296875 515.664062 Z M 4739.296875 515.664062 " transform="matrix(0.1,0,0,-0.1,0,84)"/>
<path style=" stroke:none;fill-rule:nonzero;fill:rgb(0%,0%,0%);fill-opacity:1;" d="M 479.390625 32.433594 C 479.390625 32.808594 479.085938 33.113281 478.710938 33.113281 C 478.332031 33.113281 478.027344 32.808594 478.027344 32.433594 C 478.027344 32.054688 478.332031 31.75 478.710938 31.75 C 479.085938 31.75 479.390625 32.054688 479.390625 32.433594 "/>
<path style="fill:none;stroke-width:10;stroke-linecap:round;stroke-linejoin:round;stroke:rgb(0%,0%,0%);stroke-opacity:1;stroke-miterlimit:10;" d="M 4793.90625 515.664062 C 4793.90625 511.914062 4790.859375 508.867188 4787.109375 508.867188 C 4783.320312 508.867188 4780.273438 511.914062 4780.273438 515.664062 C 4780.273438 519.453125 4783.320312 522.5 4787.109375 522.5 C 4790.859375 522.5 4793.90625 519.453125 4793.90625 515.664062 Z M 4793.90625 515.664062 " transform="matrix(0.1,0,0,-0.1,0,84)"/>
<path style=" stroke:none;fill-rule:nonzero;fill:rgb(0%,0%,0%);fill-opacity:1;" d="M 6.144531 32.433594 C 6.144531 32.808594 5.839844 33.113281 5.464844 33.113281 C 5.085938 33.113281 4.78125 32.808594 4.78125 32.433594 C 4.78125 32.054688 5.085938 31.75 5.464844 31.75 C 5.839844 31.75 6.144531 32.054688 6.144531 32.433594 "/>
<path style="fill:none;stroke-width:10;stroke-linecap:round;stroke-linejoin:round;stroke:rgb(0%,0%,0%);stroke-opacity:1;stroke-miterlimit:10;" d="M 61.445312 515.664062 C 61.445312 511.914062 58.398438 508.867188 54.648438 508.867188 C 50.859375 508.867188 47.8125 511.914062 47.8125 515.664062 C 47.8125 519.453125 50.859375 522.5 54.648438 522.5 C 58.398438 522.5 61.445312 519.453125 61.445312 515.664062 Z M 61.445312 515.664062 " transform="matrix(0.1,0,0,-0.1,0,84)"/>
<path style=" stroke:none;fill-rule:nonzero;fill:rgb(0%,0%,0%);fill-opacity:1;" d="M 11.609375 32.433594 C 11.609375 32.808594 11.304688 33.113281 10.925781 33.113281 C 10.550781 33.113281 10.242188 32.808594 10.242188 32.433594 C 10.242188 32.054688 10.550781 31.75 10.925781 31.75 C 11.304688 31.75 11.609375 32.054688 11.609375 32.433594 "/>
<path style="fill:none;stroke-width:10;stroke-linecap:round;stroke-linejoin:round;stroke:rgb(0%,0%,0%);stroke-opacity:1;stroke-miterlimit:10;" d="M 116.09375 515.664062 C 116.09375 511.914062 113.046875 508.867188 109.257812 508.867188 C 105.507812 508.867188 102.421875 511.914062 102.421875 515.664062 C 102.421875 519.453125 105.507812 522.5 109.257812 522.5 C 113.046875 522.5 116.09375 519.453125 116.09375 515.664062 Z M 116.09375 515.664062 " transform="matrix(0.1,0,0,-0.1,0,84)"/>
<path style=" stroke:none;fill-rule:nonzero;fill:rgb(0%,0%,0%);fill-opacity:1;" d="M 17.65625 32.433594 C 17.65625 32.808594 17.351562 33.113281 16.976562 33.113281 C 16.597656 33.113281 16.292969 32.808594 16.292969 32.433594 C 16.292969 32.054688 16.597656 31.75 16.976562 31.75 C 17.351562 31.75 17.65625 32.054688 17.65625 32.433594 "/>
<path style="fill:none;stroke-width:10;stroke-linecap:round;stroke-linejoin:round;stroke:rgb(0%,0%,0%);stroke-opacity:1;stroke-miterlimit:10;" d="M 176.5625 515.664062 C 176.5625 511.914062 173.515625 508.867188 169.765625 508.867188 C 165.976562 508.867188 162.929688 511.914062 162.929688 515.664062 C 162.929688 519.453125 165.976562 522.5 169.765625 522.5 C 173.515625 522.5 176.5625 519.453125 176.5625 515.664062 Z M 176.5625 515.664062 " transform="matrix(0.1,0,0,-0.1,0,84)"/>
</g>
</svg>
