<?xml version="1.0" encoding="UTF-8"?>
<svg xmlns="http://www.w3.org/2000/svg" xmlns:xlink="http://www.w3.org/1999/xlink" width="555pt" height="555pt" viewBox="0 0 555 555" version="1.1">
<defs>
<clipPath id="clip1">
  <path d="M 519 319 L 549.449219 319 L 549.449219 365 L 519 365 Z M 519 319 "/>
</clipPath>
<clipPath id="clip2">
  <path d="M 8.324219 319 L 46 319 L 46 365 L 8.324219 365 Z M 8.324219 319 "/>
</clipPath>
<clipPath id="clip3">
  <path d="M 14 363 L 23.585938 363 L 23.585938 365 L 14 365 Z M 14 363 "/>
</clipPath>
<clipPath id="clip4">
  <path d="M 143 363 L 152.625 363 L 152.625 365 L 143 365 Z M 143 363 "/>
</clipPath>
</defs>
<g id="surface1">
<rect x="0" y="0" width="555" height="555" style="fill:rgb(100%,100%,100%);fill-opacity:1;stroke:none;"/>
<path style="fill:none;stroke-width:27.75;stroke-linecap:butt;stroke-linejoin:round;stroke:rgb(0%,0%,100%);stroke-opacity:1;stroke-miterlimit:10;" d="M 235.859375 2124.648438 L 242.695312 2131.40625 L 248.632812 2137.265625 L 255.3125 2143.90625 L 262.03125 2150.585938 L 268.710938 2157.1875 L 274.921875 2163.359375 L 281.328125 2169.726562 L 287.96875 2176.328125 L 294.570312 2182.851562 L 301.40625 2189.609375 L 307.382812 2195.585938 L 314.140625 2202.265625 L 320.898438 2208.984375 L 327.421875 2215.46875 L 333.359375 2221.367188 L 340.429688 2228.359375 L 346.40625 2234.257812 L 353.359375 2241.171875 L 359.492188 2247.265625 L 366.25 2253.945312 L 372.65625 2260.351562 L 379.375 2266.992188 L 385.546875 2273.085938 L 392.1875 2279.6875 L 399.0625 2286.523438 L 405.078125 2292.460938 L 411.5625 2298.90625 L 418.28125 2305.546875 L 424.804688 2312.070312 L 431.171875 2318.359375 L 438.203125 2325.351562 L 444.53125 2331.640625 L 451.289062 2338.320312 L 457.421875 2344.375 L 464.101562 2351.054688 L 470.390625 2357.265625 L 476.992188 2363.828125 L 483.4375 2370.195312 L 490.15625 2376.875 L 496.640625 2383.320312 L 503.28125 2389.882812 L 509.882812 2396.445312 L 515.9375 2402.421875 L 522.851562 2409.296875 L 529.0625 2415.46875 L 535.664062 2421.992188 L 541.992188 2428.28125 L 549.023438 2435.273438 L 555.117188 2441.289062 L 561.992188 2448.164062 L 568.28125 2454.375 L 575.195312 2461.210938 L 581.132812 2467.109375 L 587.890625 2473.828125 L 594.414062 2480.3125 L 600.9375 2486.757812 L 607.460938 2493.242188 L 613.710938 2499.414062 L 620.46875 2506.132812 L 626.875 2512.5 L 633.671875 2519.21875 L 639.804688 2525.3125 L 646.5625 2532.03125 L 653.085938 2538.476562 L 659.570312 2544.921875 L 666.328125 2551.640625 L 672.539062 2557.8125 L 678.945312 2564.140625 L 685.976562 2571.132812 L 692.34375 2577.460938 L 698.90625 2583.945312 L 705.507812 2590.507812 L 711.640625 2596.5625 L 718.125 2603.007812 L 724.570312 2609.414062 L 731.484375 2616.25 L 737.578125 2622.304688 L 744.609375 2629.257812 L 750.9375 2635.585938 L 757.226562 2641.796875 L 763.984375 2648.476562 L 770.742188 2655.195312 L 776.914062 2661.328125 L 783.4375 2667.8125 L 789.84375 2674.140625 L 796.757812 2681.015625 L 802.773438 2686.953125 L 809.648438 2693.789062 L 816.09375 2700.195312 L 822.5 2706.5625 L 828.945312 2712.929688 L 835.46875 2719.414062 L 842.382812 2726.289062 L 848.75 2732.617188 L 855.039062 2738.828125 L 861.71875 2745.46875 L 868.4375 2752.109375 L 874.453125 2758.085938 L 881.5625 2765.117188 L 887.5 2771.015625 L 894.453125 2777.929688 L 901.132812 2784.53125 L 907.070312 2790.390625 L 913.710938 2797.03125 L 920.429688 2803.710938 L 927.148438 2810.351562 L 933.320312 2816.484375 L 939.726562 2822.851562 L 946.40625 2829.453125 L 953.007812 2836.015625 L 959.804688 2842.734375 L 965.820312 2848.710938 L 972.539062 2855.390625 L 979.335938 2862.109375 L 985.859375 2868.59375 L 991.796875 2874.492188 L 998.828125 2881.484375 L 1004.804688 2887.382812 L 1011.757812 2894.296875 L 1017.929688 2900.390625 L 1024.6875 2907.109375 L 1031.09375 2913.476562 L 1037.8125 2920.117188 L 1043.945312 2926.210938 L 1050.585938 2932.8125 L 1057.5 2939.648438 L 1063.515625 2945.625 L 1070 2952.070312 L 1076.679688 2958.710938 L 1083.242188 2965.195312 L 1089.609375 2971.484375 L 1096.640625 2978.476562 L 1102.96875 2984.765625 L 1109.726562 2991.445312 L 1115.859375 2997.539062 L 1122.539062 3004.179688 L 1128.828125 3010.429688 L 1135.390625 3016.953125 L 1141.835938 3023.359375 L 1148.59375 3030.039062 L 1155.078125 3036.445312 L 1161.71875 3043.046875 L 1168.28125 3049.570312 L 1174.335938 3055.585938 L 1181.289062 3062.460938 L 1187.460938 3068.59375 L 1194.0625 3075.15625 L 1200.390625 3081.445312 L 1207.421875 3088.398438 L 1213.515625 3094.414062 L 1220.429688 3101.289062 L 1226.71875 3107.539062 L 1233.59375 3114.375 L 1239.53125 3120.234375 L 1246.289062 3126.953125 L 1252.851562 3133.4375 L 1259.375 3139.921875 L 1265.859375 3146.367188 L 1272.109375 3152.578125 L 1278.867188 3159.257812 L 1285.3125 3165.664062 L 1292.109375 3172.382812 L 1298.203125 3178.476562 L 1305 3185.195312 L 1311.484375 3191.640625 L 1317.96875 3198.046875 L 1324.726562 3204.765625 L 1330.976562 3210.9375 L 1337.34375 3217.265625 L 1344.414062 3224.257812 L 1350.78125 3230.585938 L 1357.304688 3237.070312 L 1363.945312 3243.671875 L 1370.039062 3249.726562 L 1376.5625 3256.171875 L 1383.007812 3262.539062 L 1389.882812 3269.375 L 1395.976562 3275.46875 L 1403.007812 3282.421875 L 1409.375 3288.710938 L 1415.625 3294.921875 L 1429.140625 3308.359375 L 1435.3125 3314.453125 L 1441.875 3320.9375 L 1448.242188 3327.304688 L 1455.195312 3334.140625 L 1461.171875 3340.117188 L 1468.046875 3346.914062 L 1474.53125 3353.359375 L 1480.9375 3359.726562 L 1487.34375 3366.054688 L 1493.867188 3372.539062 L 1500.820312 3379.414062 L 1507.1875 3385.742188 L 1513.4375 3391.953125 L 1520.15625 3398.59375 L 1526.835938 3405.234375 L 1533.164062 3411.484375 " transform="matrix(0.1,0,0,-0.1,0,555)"/>
<path style="fill:none;stroke-width:27.75;stroke-linecap:butt;stroke-linejoin:round;stroke:rgb(0%,0%,100%);stroke-opacity:1;stroke-miterlimit:10;" d="M 1533.164062 2124.648438 L 1539.960938 2131.40625 L 1545.898438 2137.265625 L 1552.578125 2143.90625 L 1559.296875 2150.585938 L 1565.976562 2157.1875 L 1572.1875 2163.359375 L 1578.59375 2169.726562 L 1585.234375 2176.328125 L 1591.875 2182.851562 L 1598.671875 2189.609375 L 1604.648438 2195.585938 L 1611.40625 2202.265625 L 1618.203125 2208.984375 L 1624.726562 2215.46875 L 1630.625 2221.367188 L 1637.695312 2228.359375 L 1643.671875 2234.257812 L 1650.625 2241.171875 L 1656.757812 2247.265625 L 1663.515625 2253.945312 L 1669.960938 2260.351562 L 1676.640625 2266.992188 L 1682.8125 2273.085938 L 1689.453125 2279.6875 L 1696.367188 2286.523438 L 1702.382812 2292.460938 L 1708.828125 2298.90625 L 1715.546875 2305.546875 L 1722.109375 2312.070312 L 1728.4375 2318.359375 L 1735.46875 2325.351562 L 1741.796875 2331.640625 L 1748.554688 2338.320312 L 1754.6875 2344.375 L 1761.40625 2351.054688 L 1767.695312 2357.265625 L 1774.257812 2363.828125 L 1780.703125 2370.195312 L 1787.460938 2376.875 L 1793.945312 2383.320312 L 1800.585938 2389.882812 L 1807.148438 2396.445312 L 1813.203125 2402.421875 L 1820.15625 2409.296875 L 1826.328125 2415.46875 L 1832.929688 2421.992188 L 1839.257812 2428.28125 L 1846.289062 2435.273438 L 1852.382812 2441.289062 L 1859.296875 2448.164062 L 1865.585938 2454.375 L 1872.460938 2461.210938 L 1878.398438 2467.109375 L 1885.15625 2473.828125 L 1891.679688 2480.3125 L 1898.242188 2486.757812 L 1904.726562 2493.242188 L 1910.976562 2499.414062 L 1917.734375 2506.132812 L 1924.179688 2512.5 L 1930.9375 2519.21875 L 1937.109375 2525.3125 L 1943.867188 2532.03125 L 1956.835938 2544.921875 L 1963.59375 2551.640625 L 1969.84375 2557.8125 L 1976.210938 2564.140625 L 1983.28125 2571.132812 L 1989.648438 2577.460938 L 1996.171875 2583.945312 L 2002.8125 2590.507812 L 2008.90625 2596.5625 L 2015.390625 2603.007812 L 2021.835938 2609.414062 L 2028.75 2616.25 L 2034.84375 2622.304688 L 2041.875 2629.257812 L 2048.203125 2635.585938 L 2054.492188 2641.796875 L 2061.25 2648.476562 L 2068.007812 2655.195312 L 2074.179688 2661.328125 L 2080.703125 2667.8125 L 2087.109375 2674.140625 L 2094.023438 2681.015625 L 2100.039062 2686.953125 L 2106.914062 2693.789062 L 2113.398438 2700.195312 L 2126.210938 2712.929688 L 2132.734375 2719.414062 L 2139.6875 2726.289062 L 2146.015625 2732.617188 L 2152.304688 2738.828125 L 2159.023438 2745.46875 L 2165.703125 2752.109375 L 2171.71875 2758.085938 L 2178.828125 2765.117188 L 2184.804688 2771.015625 L 2191.757812 2777.929688 L 2198.398438 2784.53125 L 2204.335938 2790.390625 L 2211.015625 2797.03125 L 2217.734375 2803.710938 L 2224.414062 2810.351562 L 2230.625 2816.484375 L 2237.03125 2822.851562 L 2243.671875 2829.453125 L 2250.273438 2836.015625 L 2257.109375 2842.734375 L 2263.085938 2848.710938 L 2269.84375 2855.390625 L 2276.601562 2862.109375 L 2283.125 2868.59375 L 2289.0625 2874.492188 L 2296.132812 2881.484375 L 2302.109375 2887.382812 L 2309.0625 2894.296875 L 2315.195312 2900.390625 L 2321.953125 2907.109375 L 2328.398438 2913.476562 L 2335.078125 2920.117188 L 2341.25 2926.210938 L 2347.851562 2932.8125 L 2354.765625 2939.648438 L 2360.78125 2945.625 L 2367.265625 2952.070312 L 2373.984375 2958.710938 L 2380.507812 2965.195312 L 2386.875 2971.484375 L 2393.90625 2978.476562 L 2400.234375 2984.765625 L 2406.992188 2991.445312 L 2413.125 2997.539062 L 2419.804688 3004.179688 L 2426.09375 3010.429688 L 2432.695312 3016.953125 L 2439.140625 3023.359375 L 2445.859375 3030.039062 L 2452.34375 3036.445312 L 2458.984375 3043.046875 L 2465.585938 3049.570312 L 2471.640625 3055.585938 L 2478.554688 3062.460938 L 2484.765625 3068.59375 L 2491.367188 3075.15625 L 2497.695312 3081.445312 L 2504.726562 3088.398438 L 2510.78125 3094.414062 L 2517.695312 3101.289062 L 2523.984375 3107.539062 L 2530.898438 3114.375 L 2536.835938 3120.234375 L 2543.59375 3126.953125 L 2556.640625 3139.921875 L 2563.125 3146.367188 L 2569.414062 3152.578125 L 2576.171875 3159.257812 L 2582.578125 3165.664062 L 2589.375 3172.382812 L 2595.507812 3178.476562 L 2602.304688 3185.195312 L 2608.789062 3191.640625 L 2615.273438 3198.046875 L 2622.03125 3204.765625 L 2628.242188 3210.9375 L 2634.648438 3217.265625 L 2641.679688 3224.257812 L 2648.046875 3230.585938 L 2654.609375 3237.070312 L 2661.210938 3243.671875 L 2667.34375 3249.726562 L 2673.828125 3256.171875 L 2680.273438 3262.539062 L 2687.1875 3269.375 L 2693.28125 3275.46875 L 2700.3125 3282.421875 L 2706.640625 3288.710938 L 2712.890625 3294.921875 L 2719.6875 3301.640625 L 2726.445312 3308.359375 L 2732.617188 3314.453125 L 2739.140625 3320.9375 L 2745.546875 3327.304688 L 2752.460938 3334.140625 L 2758.476562 3340.117188 L 2765.351562 3346.914062 L 2771.796875 3353.359375 L 2778.203125 3359.726562 L 2784.648438 3366.054688 L 2791.171875 3372.539062 L 2798.085938 3379.414062 L 2804.453125 3385.742188 L 2810.742188 3391.953125 L 2817.421875 3398.59375 L 2824.140625 3405.234375 L 2830.46875 3411.484375 " transform="matrix(0.1,0,0,-0.1,0,555)"/>
<path style="fill:none;stroke-width:27.75;stroke-linecap:butt;stroke-linejoin:round;stroke:rgb(0%,0%,100%);stroke-opacity:1;stroke-miterlimit:10;" d="M 2830.46875 2124.648438 L 2837.265625 2131.40625 L 2843.203125 2137.265625 L 2849.882812 2143.90625 L 2856.601562 2150.585938 L 2863.28125 2157.1875 L 2869.492188 2163.359375 L 2875.898438 2169.726562 L 2882.539062 2176.328125 L 2889.140625 2182.851562 L 2895.9375 2189.609375 L 2901.953125 2195.585938 L 2908.710938 2202.265625 L 2915.46875 2208.984375 L 2921.992188 2215.46875 L 2927.929688 2221.367188 L 2935 2228.359375 L 2940.976562 2234.257812 L 2947.890625 2241.171875 L 2954.0625 2247.265625 L 2960.820312 2253.945312 L 2967.226562 2260.351562 L 2973.945312 2266.992188 L 2980.117188 2273.085938 L 2986.757812 2279.6875 L 2993.632812 2286.523438 L 2999.648438 2292.460938 L 3006.132812 2298.90625 L 3012.8125 2305.546875 L 3019.375 2312.070312 L 3025.742188 2318.359375 L 3032.773438 2325.351562 L 3039.101562 2331.640625 L 3045.859375 2338.320312 L 3051.992188 2344.375 L 3058.671875 2351.054688 L 3064.960938 2357.265625 L 3071.5625 2363.828125 L 3078.007812 2370.195312 L 3084.726562 2376.875 L 3091.210938 2383.320312 L 3097.851562 2389.882812 L 3104.414062 2396.445312 L 3110.46875 2402.421875 L 3117.421875 2409.296875 L 3123.59375 2415.46875 L 3130.234375 2421.992188 L 3136.5625 2428.28125 L 3143.554688 2435.273438 L 3149.6875 2441.289062 L 3156.5625 2448.164062 L 3162.851562 2454.375 L 3169.726562 2461.210938 L 3175.664062 2467.109375 L 3182.421875 2473.828125 L 3188.984375 2480.3125 L 3195.507812 2486.757812 L 3202.03125 2493.242188 L 3208.242188 2499.414062 L 3215.039062 2506.132812 L 3221.445312 2512.5 L 3228.242188 2519.21875 L 3234.375 2525.3125 L 3241.132812 2532.03125 L 3247.65625 2538.476562 L 3254.101562 2544.921875 L 3260.898438 2551.640625 L 3267.109375 2557.8125 L 3273.515625 2564.140625 L 3280.546875 2571.132812 L 3286.914062 2577.460938 L 3293.4375 2583.945312 L 3300.078125 2590.507812 L 3306.171875 2596.5625 L 3312.695312 2603.007812 L 3319.140625 2609.414062 L 3326.054688 2616.25 L 3332.148438 2622.304688 L 3339.140625 2629.257812 L 3345.507812 2635.585938 L 3351.796875 2641.796875 L 3358.515625 2648.476562 L 3365.3125 2655.195312 L 3371.484375 2661.328125 L 3378.007812 2667.8125 L 3384.414062 2674.140625 L 3391.328125 2681.015625 L 3397.304688 2686.953125 L 3404.21875 2693.789062 L 3410.664062 2700.195312 L 3423.476562 2712.929688 L 3430.039062 2719.414062 L 3436.953125 2726.289062 L 3443.320312 2732.617188 L 3449.609375 2738.828125 L 3456.289062 2745.46875 L 3463.007812 2752.109375 L 3468.984375 2758.085938 L 3476.132812 2765.117188 L 3482.070312 2771.015625 L 3489.023438 2777.929688 L 3495.664062 2784.53125 L 3501.601562 2790.390625 L 3508.28125 2797.03125 L 3515 2803.710938 L 3521.71875 2810.351562 L 3527.890625 2816.484375 L 3534.296875 2822.851562 L 3540.976562 2829.453125 L 3547.578125 2836.015625 L 3554.375 2842.734375 L 3560.351562 2848.710938 L 3567.148438 2855.390625 L 3573.90625 2862.109375 L 3580.429688 2868.59375 L 3586.367188 2874.492188 L 3593.398438 2881.484375 L 3599.375 2887.382812 L 3606.328125 2894.296875 L 3612.460938 2900.390625 L 3619.21875 2907.109375 L 3625.664062 2913.476562 L 3632.34375 2920.117188 L 3638.515625 2926.210938 L 3645.15625 2932.8125 L 3652.070312 2939.648438 L 3658.046875 2945.625 L 3664.53125 2952.070312 L 3671.25 2958.710938 L 3677.8125 2965.195312 L 3684.140625 2971.484375 L 3691.210938 2978.476562 L 3697.539062 2984.765625 L 3704.296875 2991.445312 L 3710.390625 2997.539062 L 3717.109375 3004.179688 L 3723.398438 3010.429688 L 3729.960938 3016.953125 L 3736.40625 3023.359375 L 3743.164062 3030.039062 L 3749.648438 3036.445312 L 3756.289062 3043.046875 L 3762.851562 3049.570312 L 3768.90625 3055.585938 L 3775.820312 3062.460938 L 3782.03125 3068.59375 L 3788.632812 3075.15625 L 3794.960938 3081.445312 L 3801.992188 3088.398438 L 3808.085938 3094.414062 L 3815 3101.289062 L 3821.289062 3107.539062 L 3828.164062 3114.375 L 3834.101562 3120.234375 L 3840.859375 3126.953125 L 3847.382812 3133.4375 L 3853.945312 3139.921875 L 3860.429688 3146.367188 L 3866.679688 3152.578125 L 3873.4375 3159.257812 L 3879.882812 3165.664062 L 3886.640625 3172.382812 L 3892.773438 3178.476562 L 3899.570312 3185.195312 L 3906.054688 3191.640625 L 3912.539062 3198.046875 L 3919.296875 3204.765625 L 3925.546875 3210.9375 L 3931.914062 3217.265625 L 3938.984375 3224.257812 L 3945.351562 3230.585938 L 3951.875 3237.070312 L 3958.515625 3243.671875 L 3964.609375 3249.726562 L 3971.09375 3256.171875 L 3977.578125 3262.539062 L 3984.453125 3269.375 L 3990.546875 3275.46875 L 3997.578125 3282.421875 L 4003.90625 3288.710938 L 4010.195312 3294.921875 L 4023.710938 3308.359375 L 4029.882812 3314.453125 L 4036.445312 3320.9375 L 4042.8125 3327.304688 L 4049.765625 3334.140625 L 4055.742188 3340.117188 L 4062.617188 3346.914062 L 4069.101562 3353.359375 L 4075.507812 3359.726562 L 4081.914062 3366.054688 L 4088.4375 3372.539062 L 4095.390625 3379.414062 L 4101.757812 3385.742188 L 4108.007812 3391.953125 L 4114.726562 3398.59375 L 4121.40625 3405.234375 L 4127.734375 3411.484375 " transform="matrix(0.1,0,0,-0.1,0,555)"/>
<path style="fill:none;stroke-width:27.75;stroke-linecap:butt;stroke-linejoin:round;stroke:rgb(0%,0%,100%);stroke-opacity:1;stroke-miterlimit:10;" d="M 4127.734375 2124.648438 L 4134.53125 2131.40625 L 4140.46875 2137.265625 L 4147.148438 2143.90625 L 4153.867188 2150.585938 L 4160.546875 2157.1875 L 4166.757812 2163.359375 L 4173.164062 2169.726562 L 4179.804688 2176.328125 L 4186.445312 2182.851562 L 4193.242188 2189.609375 L 4199.21875 2195.585938 L 4205.976562 2202.265625 L 4212.734375 2208.984375 L 4219.296875 2215.46875 L 4225.195312 2221.367188 L 4232.265625 2228.359375 L 4238.242188 2234.257812 L 4245.195312 2241.171875 L 4251.328125 2247.265625 L 4258.085938 2253.945312 L 4264.53125 2260.351562 L 4271.210938 2266.992188 L 4277.382812 2273.085938 L 4284.023438 2279.6875 L 4290.9375 2286.523438 L 4296.914062 2292.460938 L 4303.398438 2298.90625 L 4310.117188 2305.546875 L 4316.679688 2312.070312 L 4323.007812 2318.359375 L 4330.039062 2325.351562 L 4336.367188 2331.640625 L 4343.125 2338.320312 L 4349.257812 2344.375 L 4355.976562 2351.054688 L 4362.265625 2357.265625 L 4368.828125 2363.828125 L 4375.273438 2370.195312 L 4382.03125 2376.875 L 4388.515625 2383.320312 L 4395.15625 2389.882812 L 4401.71875 2396.445312 L 4407.773438 2402.421875 L 4414.726562 2409.296875 L 4420.898438 2415.46875 L 4427.5 2421.992188 L 4433.828125 2428.28125 L 4440.859375 2435.273438 L 4446.953125 2441.289062 L 4453.867188 2448.164062 L 4460.15625 2454.375 L 4467.03125 2461.210938 L 4472.96875 2467.109375 L 4479.726562 2473.828125 L 4486.25 2480.3125 L 4492.773438 2486.757812 L 4499.296875 2493.242188 L 4505.546875 2499.414062 L 4512.304688 2506.132812 L 4518.75 2512.5 L 4525.507812 2519.21875 L 4531.640625 2525.3125 L 4538.4375 2532.03125 L 4551.40625 2544.921875 L 4558.164062 2551.640625 L 4564.414062 2557.8125 L 4570.78125 2564.140625 L 4577.851562 2571.132812 L 4584.21875 2577.460938 L 4590.742188 2583.945312 L 4597.382812 2590.507812 L 4603.476562 2596.5625 L 4609.960938 2603.007812 L 4616.40625 2609.414062 L 4623.320312 2616.25 L 4629.414062 2622.304688 L 4636.445312 2629.257812 L 4642.773438 2635.585938 L 4649.0625 2641.796875 L 4655.820312 2648.476562 L 4662.578125 2655.195312 L 4668.75 2661.328125 L 4675.273438 2667.8125 L 4681.679688 2674.140625 L 4688.59375 2681.015625 L 4694.609375 2686.953125 L 4701.484375 2693.789062 L 4707.96875 2700.195312 L 4720.78125 2712.929688 L 4727.304688 2719.414062 L 4734.257812 2726.289062 L 4740.585938 2732.617188 L 4746.875 2738.828125 L 4753.59375 2745.46875 L 4760.273438 2752.109375 L 4766.289062 2758.085938 L 4773.398438 2765.117188 L 4779.375 2771.015625 L 4786.328125 2777.929688 L 4792.96875 2784.53125 L 4798.90625 2790.390625 L 4805.585938 2797.03125 L 4812.304688 2803.710938 L 4818.984375 2810.351562 L 4825.195312 2816.484375 L 4831.601562 2822.851562 L 4838.242188 2829.453125 L 4844.84375 2836.015625 L 4851.640625 2842.734375 L 4857.65625 2848.710938 L 4864.414062 2855.390625 L 4871.171875 2862.109375 L 4877.695312 2868.59375 L 4883.632812 2874.492188 L 4890.703125 2881.484375 L 4896.679688 2887.382812 L 4903.632812 2894.296875 L 4909.765625 2900.390625 L 4916.523438 2907.109375 L 4922.96875 2913.476562 L 4929.648438 2920.117188 L 4935.820312 2926.210938 L 4942.421875 2932.8125 L 4949.335938 2939.648438 L 4955.351562 2945.625 L 4961.835938 2952.070312 L 4968.554688 2958.710938 L 4975.078125 2965.195312 L 4981.445312 2971.484375 L 4988.476562 2978.476562 L 4994.804688 2984.765625 L 5001.5625 2991.445312 L 5007.695312 2997.539062 L 5014.375 3004.179688 L 5020.664062 3010.429688 L 5027.265625 3016.953125 L 5033.710938 3023.359375 L 5040.429688 3030.039062 L 5046.914062 3036.445312 L 5053.554688 3043.046875 L 5060.15625 3049.570312 L 5066.171875 3055.585938 L 5073.125 3062.460938 L 5079.335938 3068.59375 L 5085.9375 3075.15625 L 5092.265625 3081.445312 L 5099.296875 3088.398438 L 5105.351562 3094.414062 L 5112.265625 3101.289062 L 5118.554688 3107.539062 L 5125.46875 3114.375 L 5131.40625 3120.234375 L 5138.164062 3126.953125 L 5151.210938 3139.921875 L 5157.695312 3146.367188 L 5163.984375 3152.578125 L 5170.742188 3159.257812 L 5177.148438 3165.664062 L 5183.945312 3172.382812 L 5190.078125 3178.476562 L 5196.875 3185.195312 L 5203.359375 3191.640625 L 5209.84375 3198.046875 L 5216.601562 3204.765625 L 5222.8125 3210.9375 L 5229.21875 3217.265625 L 5236.25 3224.257812 L 5242.617188 3230.585938 L 5249.140625 3237.070312 L 5255.78125 3243.671875 L 5261.914062 3249.726562 L 5268.398438 3256.171875 L 5274.84375 3262.539062 L 5281.757812 3269.375 L 5287.851562 3275.46875 L 5294.882812 3282.421875 L 5301.210938 3288.710938 L 5307.5 3294.921875 L 5314.21875 3301.640625 L 5321.015625 3308.359375 L 5327.1875 3314.453125 L 5333.710938 3320.9375 L 5340.117188 3327.304688 L 5347.03125 3334.140625 L 5353.046875 3340.117188 L 5359.921875 3346.914062 L 5366.367188 3353.359375 L 5372.773438 3359.726562 L 5379.21875 3366.054688 L 5385.742188 3372.539062 L 5392.65625 3379.414062 L 5399.023438 3385.742188 L 5405.3125 3391.953125 L 5411.992188 3398.59375 L 5418.710938 3405.234375 L 5425.039062 3411.484375 " transform="matrix(0.1,0,0,-0.1,0,555)"/>
<g clip-path="url(#clip1)" clip-rule="nonzero">
<path style="fill:none;stroke-width:13.875;stroke-linecap:square;stroke-linejoin:miter;stroke:rgb(0%,0%,100%);stroke-opacity:1;stroke-miterlimit:10;" d="M 5390.3125 2131.5625 L 5418.085938 2159.296875 L 5445.820312 2131.5625 L 5418.085938 2103.828125 Z M 5390.3125 2131.5625 " transform="matrix(0.1,0,0,-0.1,0,555)"/>
</g>
<path style="fill:none;stroke-width:13.875;stroke-linecap:square;stroke-linejoin:miter;stroke:rgb(0%,0%,100%);stroke-opacity:1;stroke-miterlimit:10;" d="M 4093.046875 2131.5625 L 4120.78125 2159.296875 L 4148.554688 2131.5625 L 4120.78125 2103.828125 Z M 4093.046875 2131.5625 " transform="matrix(0.1,0,0,-0.1,0,555)"/>
<path style="fill:none;stroke-width:13.875;stroke-linecap:square;stroke-linejoin:miter;stroke:rgb(0%,0%,100%);stroke-opacity:1;stroke-miterlimit:10;" d="M 1498.476562 2131.5625 L 1526.210938 2159.296875 L 1553.984375 2131.5625 L 1526.210938 2103.828125 Z M 1498.476562 2131.5625 " transform="matrix(0.1,0,0,-0.1,0,555)"/>
<g clip-path="url(#clip2)" clip-rule="nonzero">
<path style="fill:none;stroke-width:13.875;stroke-linecap:square;stroke-linejoin:miter;stroke:rgb(0%,0%,100%);stroke-opacity:1;stroke-miterlimit:10;" d="M 201.171875 2131.5625 L 228.945312 2159.296875 L 256.679688 2131.5625 L 228.945312 2103.828125 Z M 201.171875 2131.5625 " transform="matrix(0.1,0,0,-0.1,0,555)"/>
</g>
<path style="fill:none;stroke-width:13.875;stroke-linecap:square;stroke-linejoin:miter;stroke:rgb(0%,0%,100%);stroke-opacity:1;stroke-miterlimit:10;" d="M 2795.742188 2131.5625 L 2823.515625 2159.296875 L 2851.25 2131.5625 L 2823.515625 2103.828125 Z M 2795.742188 2131.5625 " transform="matrix(0.1,0,0,-0.1,0,555)"/>
<path style="fill:none;stroke-width:13.875;stroke-linecap:butt;stroke-linejoin:round;stroke:rgb(0%,0%,0%);stroke-opacity:1;stroke-miterlimit:10;" d="M 235.859375 2122.890625 L 5425.039062 2122.890625 " transform="matrix(0.1,0,0,-0.1,0,555)"/>
<path style=" stroke:none;fill-rule:nonzero;fill:rgb(0%,0%,0%);fill-opacity:1;" d="M 412.4375 386.078125 C 412.726562 386.382812 412.945312 386.6875 413.089844 386.996094 C 413.195312 387.203125 413.371094 387.761719 413.609375 388.660156 L 414.386719 387.496094 C 414.589844 387.214844 414.839844 386.945312 415.132812 386.691406 C 415.425781 386.4375 415.683594 386.261719 415.910156 386.164062 C 416.050781 386.109375 416.203125 386.078125 416.375 386.078125 C 416.628906 386.078125 416.828125 386.148438 416.980469 386.28125 C 417.128906 386.414062 417.203125 386.582031 417.203125 386.773438 C 417.203125 386.996094 417.160156 387.148438 417.070312 387.230469 C 416.90625 387.378906 416.71875 387.453125 416.507812 387.453125 C 416.386719 387.453125 416.253906 387.425781 416.109375 387.371094 C 415.835938 387.277344 415.652344 387.230469 415.554688 387.230469 C 415.414062 387.230469 415.246094 387.316406 415.054688 387.480469 C 414.691406 387.785156 414.257812 388.375 413.75 389.25 L 414.472656 392.28125 C 414.585938 392.742188 414.679688 393.019531 414.753906 393.113281 C 414.828125 393.203125 414.90625 393.246094 414.984375 393.246094 C 415.105469 393.246094 415.25 393.179688 415.414062 393.046875 C 415.738281 392.773438 416.015625 392.421875 416.242188 391.988281 L 416.550781 392.144531 C 416.183594 392.839844 415.710938 393.414062 415.144531 393.875 C 414.820312 394.132812 414.546875 394.261719 414.324219 394.261719 C 413.992188 394.261719 413.734375 394.078125 413.539062 393.707031 C 413.417969 393.476562 413.160156 392.492188 412.773438 390.746094 C 411.855469 392.339844 411.121094 393.363281 410.570312 393.820312 C 410.214844 394.113281 409.867188 394.261719 409.53125 394.261719 C 409.296875 394.261719 409.085938 394.175781 408.890625 394.003906 C 408.746094 393.878906 408.679688 393.703125 408.679688 393.484375 C 408.679688 393.292969 408.742188 393.128906 408.871094 393 C 409 392.871094 409.160156 392.808594 409.347656 392.808594 C 409.535156 392.808594 409.734375 392.902344 409.945312 393.089844 C 410.097656 393.226562 410.214844 393.292969 410.296875 393.292969 C 410.367188 393.292969 410.460938 393.246094 410.570312 393.152344 C 410.847656 392.925781 411.222656 392.445312 411.699219 391.707031 C 412.175781 390.96875 412.484375 390.433594 412.632812 390.105469 C 412.269531 388.675781 412.070312 387.921875 412.042969 387.839844 C 411.90625 387.457031 411.730469 387.1875 411.511719 387.027344 C 411.296875 386.871094 410.976562 386.792969 410.554688 386.792969 C 410.417969 386.792969 410.261719 386.796875 410.085938 386.808594 L 410.085938 386.492188 "/>
<path style="fill:none;stroke-width:13.875;stroke-linecap:square;stroke-linejoin:miter;stroke:rgb(0%,0%,0%);stroke-opacity:1;stroke-miterlimit:10;" d="M 235.859375 2122.890625 L 235.859375 2067.382812 " transform="matrix(0.1,0,0,-0.1,0,555)"/>
<g clip-path="url(#clip3)" clip-rule="nonzero">
<path style=" stroke:none;fill-rule:nonzero;fill:rgb(0%,0%,0%);fill-opacity:1;" d="M 14.871094 364.371094 L 29.527344 364.371094 L 29.527344 363.222656 L 14.871094 363.222656 Z M 14.871094 364.371094 "/>
</g>
<path style=" stroke:none;fill-rule:nonzero;fill:rgb(0%,0%,0%);fill-opacity:1;" d="M 36.539062 367.632812 L 35.511719 370.460938 L 26.839844 370.460938 L 26.839844 370.058594 C 29.390625 367.734375 31.1875 365.835938 32.226562 364.359375 C 33.269531 362.886719 33.789062 361.535156 33.789062 360.316406 C 33.789062 359.382812 33.503906 358.617188 32.929688 358.019531 C 32.359375 357.417969 31.675781 357.117188 30.882812 357.117188 C 30.160156 357.117188 29.511719 357.328125 28.9375 357.753906 C 28.363281 358.175781 27.9375 358.796875 27.664062 359.609375 L 27.261719 359.609375 C 27.441406 358.273438 27.90625 357.246094 28.65625 356.53125 C 29.402344 355.816406 30.335938 355.460938 31.457031 355.460938 C 32.648438 355.460938 33.644531 355.84375 34.445312 356.609375 C 35.242188 357.375 35.640625 358.277344 35.640625 359.316406 C 35.640625 360.0625 35.46875 360.808594 35.121094 361.550781 C 34.585938 362.722656 33.71875 363.960938 32.519531 365.269531 C 30.71875 367.234375 29.597656 368.421875 29.148438 368.824219 L 32.984375 368.824219 C 33.765625 368.824219 34.3125 368.796875 34.628906 368.738281 C 34.941406 368.679688 35.226562 368.5625 35.480469 368.386719 C 35.730469 368.210938 35.953125 367.957031 36.140625 367.632812 "/>
<path style="fill:none;stroke-width:13.875;stroke-linecap:square;stroke-linejoin:miter;stroke:rgb(0%,0%,0%);stroke-opacity:1;stroke-miterlimit:10;" d="M 1526.25 2122.890625 L 1526.25 2067.382812 " transform="matrix(0.1,0,0,-0.1,0,555)"/>
<g clip-path="url(#clip4)" clip-rule="nonzero">
<path style=" stroke:none;fill-rule:nonzero;fill:rgb(0%,0%,0%);fill-opacity:1;" d="M 143.910156 364.371094 L 158.566406 364.371094 L 158.566406 363.222656 L 143.910156 363.222656 Z M 143.910156 364.371094 "/>
</g>
<path style=" stroke:none;fill-rule:nonzero;fill:rgb(0%,0%,0%);fill-opacity:1;" d="M 158.003906 357.203125 L 161.578125 355.460938 L 161.933594 355.460938 L 161.933594 367.871094 C 161.933594 368.695312 161.96875 369.207031 162.039062 369.410156 C 162.105469 369.613281 162.25 369.769531 162.464844 369.878906 C 162.683594 369.984375 163.125 370.046875 163.789062 370.058594 L 163.789062 370.460938 L 158.261719 370.460938 L 158.261719 370.058594 C 158.953125 370.046875 159.402344 369.988281 159.605469 369.882812 C 159.808594 369.777344 159.949219 369.636719 160.027344 369.460938 C 160.109375 369.28125 160.144531 368.753906 160.144531 367.871094 L 160.144531 359.9375 C 160.144531 358.867188 160.109375 358.179688 160.039062 357.878906 C 159.988281 357.644531 159.894531 357.476562 159.761719 357.367188 C 159.628906 357.257812 159.46875 357.203125 159.277344 357.203125 C 159.011719 357.203125 158.640625 357.316406 158.164062 357.539062 "/>
<path style="fill:none;stroke-width:13.875;stroke-linecap:square;stroke-linejoin:miter;stroke:rgb(0%,0%,0%);stroke-opacity:1;stroke-miterlimit:10;" d="M 2830.507812 2122.890625 L 2830.507812 2067.382812 " transform="matrix(0.1,0,0,-0.1,0,555)"/>
<path style=" stroke:none;fill-rule:nonzero;fill:rgb(0%,0%,0%);fill-opacity:1;" d="M 276.914062 363.199219 C 276.914062 361.523438 277.167969 360.078125 277.671875 358.867188 C 278.179688 357.660156 278.851562 356.757812 279.6875 356.164062 C 280.339844 355.695312 281.011719 355.460938 281.703125 355.460938 C 282.832031 355.460938 283.84375 356.035156 284.738281 357.183594 C 285.859375 358.605469 286.421875 360.535156 286.421875 362.972656 C 286.421875 364.675781 286.175781 366.128906 285.683594 367.316406 C 285.191406 368.511719 284.566406 369.375 283.804688 369.914062 C 283.039062 370.453125 282.304688 370.722656 281.597656 370.722656 C 280.195312 370.722656 279.027344 369.894531 278.09375 368.238281 C 277.308594 366.84375 276.914062 365.164062 276.914062 363.199219 Z M 279.039062 363.46875 C 279.039062 365.492188 279.289062 367.144531 279.785156 368.425781 C 280.199219 369.5 280.8125 370.039062 281.628906 370.039062 C 282.019531 370.039062 282.425781 369.863281 282.84375 369.511719 C 283.261719 369.160156 283.578125 368.574219 283.796875 367.75 C 284.128906 366.507812 284.296875 364.757812 284.296875 362.492188 C 284.296875 360.816406 284.121094 359.421875 283.777344 358.300781 C 283.515625 357.46875 283.179688 356.878906 282.765625 356.53125 C 282.472656 356.296875 282.113281 356.175781 281.695312 356.175781 C 281.203125 356.175781 280.765625 356.394531 280.382812 356.835938 C 279.863281 357.4375 279.507812 358.378906 279.320312 359.664062 C 279.132812 360.949219 279.039062 362.21875 279.039062 363.46875 "/>
<path style="fill:none;stroke-width:13.875;stroke-linecap:square;stroke-linejoin:miter;stroke:rgb(0%,0%,0%);stroke-opacity:1;stroke-miterlimit:10;" d="M 4120.898438 2122.890625 L 4120.898438 2067.382812 " transform="matrix(0.1,0,0,-0.1,0,555)"/>
<path style=" stroke:none;fill-rule:nonzero;fill:rgb(0%,0%,0%);fill-opacity:1;" d="M 409.140625 357.203125 L 412.714844 355.460938 L 413.074219 355.460938 L 413.074219 367.871094 C 413.074219 368.695312 413.105469 369.207031 413.175781 369.410156 C 413.246094 369.613281 413.386719 369.769531 413.605469 369.878906 C 413.820312 369.984375 414.261719 370.046875 414.925781 370.058594 L 414.925781 370.460938 L 409.398438 370.460938 L 409.398438 370.058594 C 410.09375 370.046875 410.539062 369.988281 410.742188 369.882812 C 410.945312 369.777344 411.085938 369.636719 411.164062 369.460938 C 411.246094 369.28125 411.285156 368.753906 411.285156 367.871094 L 411.285156 359.9375 C 411.285156 358.867188 411.246094 358.179688 411.175781 357.878906 C 411.125 357.644531 411.03125 357.476562 410.898438 357.367188 C 410.765625 357.257812 410.605469 357.203125 410.417969 357.203125 C 410.148438 357.203125 409.777344 357.316406 409.300781 357.539062 "/>
<path style="fill:none;stroke-width:13.875;stroke-linecap:square;stroke-linejoin:miter;stroke:rgb(0%,0%,0%);stroke-opacity:1;stroke-miterlimit:10;" d="M 5425.117188 2122.890625 L 5425.117188 2067.382812 " transform="matrix(0.1,0,0,-0.1,0,555)"/>
<path style=" stroke:none;fill-rule:nonzero;fill:rgb(0%,0%,0%);fill-opacity:1;" d="M 545.753906 367.632812 L 544.722656 370.460938 L 536.050781 370.460938 L 536.050781 370.058594 C 538.601562 367.734375 540.398438 365.835938 541.4375 364.359375 C 542.480469 362.886719 543 361.535156 543 360.316406 C 543 359.382812 542.714844 358.617188 542.144531 358.019531 C 541.570312 357.417969 540.890625 357.117188 540.09375 357.117188 C 539.371094 357.117188 538.722656 357.328125 538.148438 357.753906 C 537.574219 358.175781 537.148438 358.796875 536.875 359.609375 L 536.472656 359.609375 C 536.65625 358.273438 537.117188 357.246094 537.867188 356.53125 C 538.613281 355.816406 539.550781 355.460938 540.667969 355.460938 C 541.863281 355.460938 542.855469 355.84375 543.65625 356.609375 C 544.453125 357.375 544.851562 358.277344 544.851562 359.316406 C 544.851562 360.0625 544.679688 360.808594 544.332031 361.550781 C 543.800781 362.722656 542.933594 363.960938 541.730469 365.269531 C 539.933594 367.234375 538.808594 368.421875 538.359375 368.824219 L 542.199219 368.824219 C 542.976562 368.824219 543.523438 368.796875 543.839844 368.738281 C 544.152344 368.679688 544.4375 368.5625 544.691406 368.386719 C 544.941406 368.210938 545.164062 367.957031 545.351562 367.632812 "/>
<path style="fill:none;stroke-width:13.875;stroke-linecap:square;stroke-linejoin:miter;stroke:rgb(0%,0%,0%);stroke-opacity:1;stroke-miterlimit:10;" d="M 888.007812 2122.890625 L 888.007812 2095.117188 " transform="matrix(0.1,0,0,-0.1,0,555)"/>
<path style="fill:none;stroke-width:13.875;stroke-linecap:square;stroke-linejoin:miter;stroke:rgb(0%,0%,0%);stroke-opacity:1;stroke-miterlimit:10;" d="M 2178.398438 2122.890625 L 2178.398438 2095.117188 " transform="matrix(0.1,0,0,-0.1,0,555)"/>
<path style="fill:none;stroke-width:13.875;stroke-linecap:square;stroke-linejoin:miter;stroke:rgb(0%,0%,0%);stroke-opacity:1;stroke-miterlimit:10;" d="M 3482.617188 2122.890625 L 3482.617188 2095.117188 " transform="matrix(0.1,0,0,-0.1,0,555)"/>
<path style="fill:none;stroke-width:13.875;stroke-linecap:square;stroke-linejoin:miter;stroke:rgb(0%,0%,0%);stroke-opacity:1;stroke-miterlimit:10;" d="M 4773.007812 2122.890625 L 4773.007812 2095.117188 " transform="matrix(0.1,0,0,-0.1,0,555)"/>
<path style="fill:none;stroke-width:13.875;stroke-linecap:butt;stroke-linejoin:round;stroke:rgb(0%,0%,0%);stroke-opacity:1;stroke-miterlimit:10;" d="M 2830.507812 2124.648438 L 2830.507812 3411.484375 " transform="matrix(0.1,0,0,-0.1,0,555)"/>
<path style="fill:none;stroke-width:13.875;stroke-linecap:square;stroke-linejoin:miter;stroke:rgb(0%,0%,0%);stroke-opacity:1;stroke-miterlimit:10;" d="M 2830.507812 2122.890625 L 2775 2122.890625 " transform="matrix(0.1,0,0,-0.1,0,555)"/>
<path style="fill:none;stroke-width:13.875;stroke-linecap:square;stroke-linejoin:miter;stroke:rgb(0%,0%,0%);stroke-opacity:1;stroke-miterlimit:10;" d="M 2830.507812 2386.484375 L 2775 2386.484375 " transform="matrix(0.1,0,0,-0.1,0,555)"/>
<path style=" stroke:none;fill-rule:nonzero;fill:rgb(0%,0%,0%);fill-opacity:1;" d="M 243.613281 317.410156 C 243.613281 315.734375 243.867188 314.289062 244.371094 313.082031 C 244.878906 311.871094 245.550781 310.96875 246.390625 310.378906 C 247.039062 309.90625 247.710938 309.671875 248.40625 309.671875 C 249.53125 309.671875 250.542969 310.246094 251.441406 311.394531 C 252.5625 312.820312 253.121094 314.75 253.121094 317.183594 C 253.121094 318.890625 252.875 320.339844 252.382812 321.53125 C 251.890625 322.722656 251.265625 323.589844 250.503906 324.128906 C 249.738281 324.664062 249.003906 324.933594 248.296875 324.933594 C 246.894531 324.933594 245.726562 324.105469 244.796875 322.453125 C 244.007812 321.058594 243.613281 319.378906 243.613281 317.410156 Z M 245.738281 317.683594 C 245.738281 319.707031 245.988281 321.355469 246.488281 322.636719 C 246.898438 323.714844 247.511719 324.253906 248.328125 324.253906 C 248.71875 324.253906 249.125 324.078125 249.542969 323.726562 C 249.960938 323.375 250.28125 322.789062 250.496094 321.964844 C 250.828125 320.722656 250.996094 318.96875 250.996094 316.707031 C 250.996094 315.03125 250.824219 313.632812 250.476562 312.511719 C 250.214844 311.679688 249.878906 311.089844 249.46875 310.746094 C 249.171875 310.507812 248.8125 310.386719 248.394531 310.386719 C 247.902344 310.386719 247.464844 310.609375 247.082031 311.046875 C 246.5625 311.648438 246.207031 312.589844 246.019531 313.878906 C 245.832031 315.164062 245.738281 316.433594 245.738281 317.683594 Z M 256.6875 322.570312 C 257.027344 322.570312 257.3125 322.6875 257.542969 322.925781 C 257.773438 323.160156 257.890625 323.441406 257.890625 323.773438 C 257.890625 324.105469 257.773438 324.390625 257.539062 324.625 C 257.304688 324.859375 257.019531 324.976562 256.6875 324.976562 C 256.355469 324.976562 256.070312 324.859375 255.835938 324.625 C 255.601562 324.390625 255.484375 324.105469 255.484375 323.773438 C 255.484375 323.433594 255.601562 323.148438 255.835938 322.917969 C 256.070312 322.6875 256.355469 322.570312 256.6875 322.570312 Z M 269.640625 321.84375 L 268.609375 324.675781 L 259.9375 324.675781 L 259.9375 324.273438 C 262.488281 321.945312 264.285156 320.046875 265.324219 318.570312 C 266.367188 317.097656 266.886719 315.75 266.886719 314.527344 C 266.886719 313.597656 266.601562 312.828125 266.03125 312.230469 C 265.460938 311.632812 264.777344 311.328125 263.980469 311.328125 C 263.261719 311.328125 262.609375 311.542969 262.035156 311.964844 C 261.460938 312.386719 261.039062 313.007812 260.761719 313.824219 L 260.363281 313.824219 C 260.542969 312.488281 261.007812 311.460938 261.753906 310.746094 C 262.503906 310.03125 263.4375 309.671875 264.554688 309.671875 C 265.75 309.671875 266.742188 310.054688 267.542969 310.820312 C 268.339844 311.585938 268.742188 312.488281 268.742188 313.53125 C 268.742188 314.277344 268.566406 315.019531 268.21875 315.765625 C 267.6875 316.933594 266.820312 318.175781 265.617188 319.480469 C 263.820312 321.449219 262.695312 322.632812 262.246094 323.039062 L 266.085938 323.039062 C 266.863281 323.039062 267.414062 323.007812 267.726562 322.949219 C 268.039062 322.894531 268.324219 322.773438 268.578125 322.597656 C 268.832031 322.421875 269.050781 322.171875 269.238281 321.84375 "/>
<path style="fill:none;stroke-width:13.875;stroke-linecap:square;stroke-linejoin:miter;stroke:rgb(0%,0%,0%);stroke-opacity:1;stroke-miterlimit:10;" d="M 2830.507812 2636.25 L 2775 2636.25 " transform="matrix(0.1,0,0,-0.1,0,555)"/>
<path style="fill:none;stroke-width:13.875;stroke-linecap:square;stroke-linejoin:miter;stroke:rgb(0%,0%,0%);stroke-opacity:1;stroke-miterlimit:10;" d="M 2830.507812 2899.882812 L 2775 2899.882812 " transform="matrix(0.1,0,0,-0.1,0,555)"/>
<path style=" stroke:none;fill-rule:nonzero;fill:rgb(0%,0%,0%);fill-opacity:1;" d="M 243.613281 266.074219 C 243.613281 264.398438 243.867188 262.953125 244.371094 261.742188 C 244.878906 260.535156 245.550781 259.632812 246.390625 259.039062 C 247.039062 258.570312 247.710938 258.335938 248.40625 258.335938 C 249.53125 258.335938 250.542969 258.910156 251.441406 260.058594 C 252.5625 261.480469 253.121094 263.410156 253.121094 265.847656 C 253.121094 267.550781 252.875 269.003906 252.382812 270.191406 C 251.890625 271.386719 251.265625 272.25 250.503906 272.789062 C 249.738281 273.328125 249.003906 273.597656 248.296875 273.597656 C 246.894531 273.597656 245.726562 272.769531 244.796875 271.113281 C 244.007812 269.71875 243.613281 268.039062 243.613281 266.074219 Z M 245.738281 266.34375 C 245.738281 268.367188 245.988281 270.019531 246.488281 271.300781 C 246.898438 272.375 247.511719 272.914062 248.328125 272.914062 C 248.71875 272.914062 249.125 272.738281 249.542969 272.386719 C 249.960938 272.035156 250.28125 271.449219 250.496094 270.625 C 250.828125 269.382812 250.996094 267.632812 250.996094 265.367188 C 250.996094 263.691406 250.824219 262.296875 250.476562 261.175781 C 250.214844 260.34375 249.878906 259.753906 249.46875 259.40625 C 249.171875 259.171875 248.8125 259.050781 248.394531 259.050781 C 247.902344 259.050781 247.464844 259.269531 247.082031 259.710938 C 246.5625 260.3125 246.207031 261.253906 246.019531 262.539062 C 245.832031 263.824219 245.738281 265.09375 245.738281 266.34375 Z M 256.6875 271.234375 C 257.027344 271.234375 257.3125 271.351562 257.542969 271.585938 C 257.773438 271.820312 257.890625 272.105469 257.890625 272.4375 C 257.890625 272.769531 257.773438 273.054688 257.539062 273.285156 C 257.304688 273.523438 257.019531 273.640625 256.6875 273.640625 C 256.355469 273.640625 256.070312 273.523438 255.835938 273.285156 C 255.601562 273.054688 255.484375 272.769531 255.484375 272.4375 C 255.484375 272.097656 255.601562 271.8125 255.835938 271.582031 C 256.070312 271.347656 256.355469 271.234375 256.6875 271.234375 Z M 269.410156 258.335938 L 269.410156 258.734375 C 268.460938 258.828125 267.679688 259.019531 267.078125 259.304688 C 266.472656 259.589844 265.878906 260.027344 265.289062 260.609375 C 264.699219 261.195312 264.210938 261.847656 263.824219 262.566406 C 263.4375 263.285156 263.113281 264.140625 262.855469 265.128906 C 263.894531 264.414062 264.9375 264.058594 265.988281 264.058594 C 266.992188 264.058594 267.863281 264.464844 268.597656 265.273438 C 269.339844 266.082031 269.703125 267.121094 269.703125 268.394531 C 269.703125 269.621094 269.332031 270.742188 268.589844 271.753906 C 267.691406 272.980469 266.507812 273.597656 265.03125 273.597656 C 264.027344 273.597656 263.175781 273.265625 262.476562 272.597656 C 261.101562 271.304688 260.414062 269.628906 260.414062 267.570312 C 260.414062 266.253906 260.679688 265.003906 261.207031 263.820312 C 261.734375 262.632812 262.488281 261.582031 263.46875 260.664062 C 264.445312 259.746094 265.382812 259.128906 266.28125 258.8125 C 267.175781 258.492188 268.011719 258.335938 268.785156 258.335938 Z M 262.671875 265.921875 C 262.539062 266.898438 262.476562 267.6875 262.476562 268.285156 C 262.476562 268.980469 262.605469 269.734375 262.859375 270.546875 C 263.117188 271.359375 263.496094 272.003906 264.003906 272.480469 C 264.371094 272.820312 264.820312 272.992188 265.347656 272.992188 C 265.976562 272.992188 266.539062 272.695312 267.035156 272.101562 C 267.527344 271.507812 267.777344 270.660156 267.777344 269.566406 C 267.777344 268.328125 267.53125 267.257812 267.039062 266.355469 C 266.546875 265.453125 265.851562 265.003906 264.945312 265.003906 C 264.671875 265.003906 264.378906 265.058594 264.0625 265.175781 C 263.746094 265.289062 263.285156 265.539062 262.671875 265.921875 "/>
<path style="fill:none;stroke-width:13.875;stroke-linecap:square;stroke-linejoin:miter;stroke:rgb(0%,0%,0%);stroke-opacity:1;stroke-miterlimit:10;" d="M 2830.507812 3149.648438 L 2775 3149.648438 " transform="matrix(0.1,0,0,-0.1,0,555)"/>
<path style="fill:none;stroke-width:13.875;stroke-linecap:square;stroke-linejoin:miter;stroke:rgb(0%,0%,0%);stroke-opacity:1;stroke-miterlimit:10;" d="M 2830.507812 3413.242188 L 2775 3413.242188 " transform="matrix(0.1,0,0,-0.1,0,555)"/>
<path style=" stroke:none;fill-rule:nonzero;fill:rgb(0%,0%,0%);fill-opacity:1;" d="M 263.453125 208.742188 L 267.027344 206.996094 L 267.386719 206.996094 L 267.386719 219.40625 C 267.386719 220.230469 267.421875 220.746094 267.488281 220.949219 C 267.558594 221.152344 267.699219 221.304688 267.914062 221.414062 C 268.132812 221.523438 268.574219 221.585938 269.238281 221.597656 L 269.238281 222 L 263.710938 222 L 263.710938 221.597656 C 264.40625 221.585938 264.851562 221.523438 265.054688 221.421875 C 265.257812 221.3125 265.398438 221.171875 265.476562 220.996094 C 265.558594 220.820312 265.597656 220.289062 265.597656 219.40625 L 265.597656 211.476562 C 265.597656 210.40625 265.5625 209.71875 265.488281 209.414062 C 265.4375 209.183594 265.347656 209.011719 265.214844 208.90625 C 265.078125 208.796875 264.917969 208.742188 264.730469 208.742188 C 264.464844 208.742188 264.089844 208.855469 263.613281 209.078125 "/>
<path style="fill:none;stroke-width:13.875;stroke-linecap:square;stroke-linejoin:miter;stroke:rgb(0%,0%,0%);stroke-opacity:1;stroke-miterlimit:10;" d="M 2830.507812 2247.734375 L 2802.734375 2247.734375 " transform="matrix(0.1,0,0,-0.1,0,555)"/>
<path style="fill:none;stroke-width:13.875;stroke-linecap:square;stroke-linejoin:miter;stroke:rgb(0%,0%,0%);stroke-opacity:1;stroke-miterlimit:10;" d="M 2830.507812 2511.367188 L 2802.734375 2511.367188 " transform="matrix(0.1,0,0,-0.1,0,555)"/>
<path style="fill:none;stroke-width:13.875;stroke-linecap:square;stroke-linejoin:miter;stroke:rgb(0%,0%,0%);stroke-opacity:1;stroke-miterlimit:10;" d="M 2830.507812 2761.132812 L 2802.734375 2761.132812 " transform="matrix(0.1,0,0,-0.1,0,555)"/>
<path style="fill:none;stroke-width:13.875;stroke-linecap:square;stroke-linejoin:miter;stroke:rgb(0%,0%,0%);stroke-opacity:1;stroke-miterlimit:10;" d="M 2830.507812 3024.765625 L 2802.734375 3024.765625 " transform="matrix(0.1,0,0,-0.1,0,555)"/>
<path style="fill:none;stroke-width:13.875;stroke-linecap:square;stroke-linejoin:miter;stroke:rgb(0%,0%,0%);stroke-opacity:1;stroke-miterlimit:10;" d="M 2830.507812 3288.398438 L 2802.734375 3288.398438 " transform="matrix(0.1,0,0,-0.1,0,555)"/>
</g>
</svg>
