<?xml version="1.0" encoding="UTF-8"?>
<svg xmlns="http://www.w3.org/2000/svg" xmlns:xlink="http://www.w3.org/1999/xlink" width="555pt" height="555pt" viewBox="0 0 555 555" version="1.1">
<defs>
<clipPath id="clip1">
  <path d="M 10 275 L 281 275 L 281 546.699219 L 10 546.699219 Z M 10 275 "/>
</clipPath>
<clipPath id="clip2">
  <path d="M 278 275 L 549.5 275 L 549.5 546.699219 L 278 546.699219 Z M 278 275 "/>
</clipPath>
</defs>
<g id="surface1">
<rect x="0" y="0" width="555" height="555" style="fill:rgb(100%,100%,100%);fill-opacity:1;stroke:none;"/>
<g clip-path="url(#clip1)" clip-rule="nonzero">
<path style="fill:none;stroke-width:20.8125;stroke-linecap:butt;stroke-linejoin:round;stroke:rgb(0%,0%,0%);stroke-opacity:1;stroke-miterlimit:10;" d="M 111.015625 97.109375 L 2795.820312 97.109375 L 1453.398438 2781.953125 L 111.015625 97.109375 " transform="matrix(0.1,0,0,-0.1,0,555)"/>
</g>
<g clip-path="url(#clip2)" clip-rule="nonzero">
<path style="fill:none;stroke-width:20.8125;stroke-linecap:butt;stroke-linejoin:round;stroke:rgb(0%,0%,0%);stroke-opacity:1;stroke-miterlimit:10;" d="M 2795.820312 97.109375 L 5480.625 97.109375 L 4138.203125 2781.953125 L 2795.820312 97.109375 " transform="matrix(0.1,0,0,-0.1,0,555)"/>
</g>
<path style="fill:none;stroke-width:20.8125;stroke-linecap:butt;stroke-linejoin:round;stroke:rgb(0%,0%,0%);stroke-opacity:1;stroke-miterlimit:10;" d="M 1453.398438 2781.953125 L 4138.203125 2781.953125 L 2795.820312 5466.757812 L 1453.398438 2781.953125 " transform="matrix(0.1,0,0,-0.1,0,555)"/>
</g>
</svg>
