<?xml version="1.0" encoding="UTF-8"?>
<svg xmlns="http://www.w3.org/2000/svg" xmlns:xlink="http://www.w3.org/1999/xlink" width="167pt" height="156pt" viewBox="0 0 167 156" version="1.1">
<g id="surface1">
<rect x="0" y="0" width="167" height="156" style="fill:rgb(100%,100%,100%);fill-opacity:1;stroke:none;"/>
<path style="fill:none;stroke-width:25;stroke-linecap:round;stroke-linejoin:round;stroke:rgb(30.200195%,30.200195%,30.200195%);stroke-opacity:1;stroke-miterlimit:10;" d="M 831.015625 1549.179688 L 997.617188 928.125 " transform="matrix(0.1,0,0,-0.1,0,156)"/>
<path style="fill:none;stroke-width:25;stroke-linecap:round;stroke-linejoin:round;stroke:rgb(30.200195%,30.200195%,30.200195%);stroke-opacity:1;stroke-miterlimit:10;" d="M 997.617188 928.125 L 1639.765625 961.5625 " transform="matrix(0.1,0,0,-0.1,0,156)"/>
<path style="fill:none;stroke-width:25;stroke-linecap:round;stroke-linejoin:round;stroke:rgb(30.200195%,30.200195%,30.200195%);stroke-opacity:1;stroke-miterlimit:10;" d="M 1639.765625 961.5625 L 1100.585938 611.210938 " transform="matrix(0.1,0,0,-0.1,0,156)"/>
<path style="fill:none;stroke-width:25;stroke-linecap:round;stroke-linejoin:round;stroke:rgb(30.200195%,30.200195%,30.200195%);stroke-opacity:1;stroke-miterlimit:10;" d="M 1100.585938 611.210938 L 1330.859375 10.820312 " transform="matrix(0.1,0,0,-0.1,0,156)"/>
<path style="fill:none;stroke-width:25;stroke-linecap:round;stroke-linejoin:round;stroke:rgb(30.200195%,30.200195%,30.200195%);stroke-opacity:1;stroke-miterlimit:10;" d="M 1330.859375 10.820312 L 831.015625 415.3125 " transform="matrix(0.1,0,0,-0.1,0,156)"/>
<path style="fill:none;stroke-width:25;stroke-linecap:round;stroke-linejoin:round;stroke:rgb(30.200195%,30.200195%,30.200195%);stroke-opacity:1;stroke-miterlimit:10;" d="M 831.015625 415.3125 L 331.171875 10.820312 " transform="matrix(0.1,0,0,-0.1,0,156)"/>
<path style="fill:none;stroke-width:25;stroke-linecap:round;stroke-linejoin:round;stroke:rgb(30.200195%,30.200195%,30.200195%);stroke-opacity:1;stroke-miterlimit:10;" d="M 331.171875 10.820312 L 561.40625 611.210938 " transform="matrix(0.1,0,0,-0.1,0,156)"/>
<path style="fill:none;stroke-width:25;stroke-linecap:round;stroke-linejoin:round;stroke:rgb(30.200195%,30.200195%,30.200195%);stroke-opacity:1;stroke-miterlimit:10;" d="M 561.40625 611.210938 L 22.226562 961.5625 " transform="matrix(0.1,0,0,-0.1,0,156)"/>
<path style="fill:none;stroke-width:25;stroke-linecap:round;stroke-linejoin:round;stroke:rgb(30.200195%,30.200195%,30.200195%);stroke-opacity:1;stroke-miterlimit:10;" d="M 22.226562 961.5625 L 664.375 928.125 " transform="matrix(0.1,0,0,-0.1,0,156)"/>
<path style="fill:none;stroke-width:25;stroke-linecap:round;stroke-linejoin:round;stroke:rgb(30.200195%,30.200195%,30.200195%);stroke-opacity:1;stroke-miterlimit:10;" d="M 664.375 928.125 L 831.015625 1549.179688 " transform="matrix(0.1,0,0,-0.1,0,156)"/>
</g>
</svg>
