<?xml version="1.0" encoding="UTF-8"?>
<svg xmlns="http://www.w3.org/2000/svg" xmlns:xlink="http://www.w3.org/1999/xlink" width="555pt" height="555pt" viewBox="0 0 555 555" version="1.1">
<defs>
<clipPath id="clip1">
  <path d="M 66.601562 17 L 70 17 L 70 537.65625 L 66.601562 537.65625 Z M 66.601562 17 "/>
</clipPath>
<clipPath id="clip2">
  <path d="M 41 536 L 47.175781 536 L 47.175781 538 L 41 538 Z M 41 536 "/>
</clipPath>
<clipPath id="clip3">
  <path d="M 28 407 L 33.300781 407 L 33.300781 409 L 28 409 Z M 28 407 "/>
</clipPath>
</defs>
<g id="surface1">
<rect x="0" y="0" width="555" height="555" style="fill:rgb(100%,100%,100%);fill-opacity:1;stroke:none;"/>
<g clip-path="url(#clip1)" clip-rule="nonzero">
<path style="fill:none;stroke-width:20.8125;stroke-linecap:butt;stroke-linejoin:round;stroke:rgb(0%,0%,100%);stroke-opacity:1;stroke-miterlimit:10;" d="M 679.882812 187.304688 L 679.882812 5369.414062 " transform="matrix(0.1,0,0,-0.1,0,555)"/>
</g>
<path style="fill:none;stroke-width:27.75;stroke-linecap:butt;stroke-linejoin:round;stroke:rgb(0%,0%,100%);stroke-opacity:1;stroke-miterlimit:10;" d="M 680.664062 406.523438 L 681.445312 4948.164062 L 682.226562 1186.289062 L 683.007812 5056.835938 L 683.789062 196.210938 L 684.570312 3620.078125 L 685.3125 4510.859375 L 686.09375 4104.414062 L 686.875 872.265625 L 687.65625 871.914062 L 688.4375 3765.195312 L 689.21875 222.695312 L 690 2548.164062 L 690.78125 5197.617188 L 691.5625 1545.3125 L 692.34375 2090.664062 L 693.125 2476.484375 L 693.90625 405.507812 L 694.6875 2508.125 L 695.46875 3819.296875 L 696.25 4642.578125 L 697.03125 3281.367188 L 697.8125 4512.5 L 698.59375 4755.625 L 699.375 187.65625 L 700.15625 5366.835938 L 700.9375 971.5625 L 701.71875 1310.429688 L 702.5 4262.890625 L 703.28125 5290.15625 L 704.0625 5369.179688 L 704.804688 5346.054688 L 705.507812 3262.734375 L 706.171875 268.320312 L 706.875 2588.554688 L 707.539062 5232.539062 L 708.203125 697.03125 L 708.90625 3191.796875 L 709.570312 3866.679688 L 710.234375 814.140625 L 710.9375 5123.203125 L 711.601562 314.335938 L 712.265625 5232.890625 L 712.96875 463.671875 L 713.632812 4714.84375 L 714.335938 1604.84375 L 715 2749.960938 L 715.664062 4225.859375 L 716.367188 303.828125 L 717.03125 5093.164062 L 717.695312 2130.546875 L 718.398438 1148.984375 L 719.0625 5351.210938 L 719.726562 1840.234375 L 720.429688 955.703125 L 721.09375 5138.203125 L 721.796875 3123.046875 L 722.460938 200.117188 L 723.125 3483.90625 L 723.828125 5166.71875 L 724.492188 1607.109375 L 725.15625 493.164062 L 725.859375 3941.484375 L 726.523438 5169.570312 L 727.304688 1626.210938 L 728.046875 473.554688 L 728.828125 3879.0625 L 729.570312 5207.03125 L 730.351562 2192.539062 L 731.09375 191.5625 L 731.875 2379.375 L 732.617188 5158.984375 L 733.398438 4436.835938 L 734.140625 1421.054688 L 734.921875 234.921875 L 735.703125 2262.382812 L 736.445312 4879.960938 L 737.226562 5062.96875 L 737.96875 2759.726562 L 738.75 510.820312 L 739.492188 538.085938 L 740.273438 2677.304688 L 741.015625 4872.773438 L 741.796875 5232.382812 L 742.539062 3571.914062 L 743.320312 1317.148438 L 744.0625 196.210938 L 744.84375 945.664062 L 745.585938 2939.140625 L 746.367188 4792.460938 L 747.148438 5347.8125 L 747.890625 4346.992188 L 748.632812 2459.0625 L 749.414062 780.703125 L 750.195312 190.546875 L 750.9375 926.40625 L 751.71875 2564.882812 L 752.460938 4275.820312 L 753.242188 5275.15625 L 754.023438 5165.546875 L 754.765625 4055.234375 L 755.546875 2448.828125 L 756.328125 998.125 L 757.070312 236.914062 L 757.851562 401.328125 L 758.632812 1384.296875 L 759.375 2814.257812 L 760.15625 4208.4375 L 760.9375 5137.734375 L 761.679688 5349.726562 L 762.460938 4821.015625 L 763.242188 3736.523438 L 763.984375 2414.492188 L 764.765625 1207.890625 L 765.546875 410.9375 L 766.289062 194.375 L 767.070312 579.335938 L 767.851562 1449.726562 L 768.59375 2593.164062 L 769.375 3757.070312 L 770.15625 4705 L 770.898438 5261.992188 L 771.679688 5341.445312 L 772.460938 4951.484375 L 773.203125 4183.4375 L 773.984375 3186.796875 L 774.765625 2137.695312 L 775.507812 1207.34375 L 776.289062 537.617188 L 777.03125 212.265625 L 777.8125 262.96875 L 778.554688 665.664062 L 779.335938 1349.84375 L 780.117188 2212.539062 L 780.859375 3135.15625 L 781.640625 4000.195312 L 782.382812 4705.507812 L 783.164062 5175.234375 L 783.90625 5365.898438 L 784.6875 5268.203125 L 785.46875 4904.84375 L 786.210938 4324.921875 L 786.992188 3596.40625 L 787.734375 2797.304688 L 788.515625 2007.265625 L 789.257812 1299.6875 L 790.039062 735.46875 L 790.820312 358.710938 L 791.5625 194.21875 L 792.34375 247.34375 L 793.085938 505.195312 L 793.867188 939.21875 L 794.609375 1509.0625 L 795.390625 2166.601562 L 796.132812 2860.390625 L 796.914062 3539.492188 L 797.695312 4157.265625 L 798.4375 4674.21875 L 799.21875 5060.039062 L 799.960938 5294.765625 L 800.703125 5369.296875 L 801.40625 5306.875 L 802.109375 5115.3125 L 802.8125 4808.75 L 803.515625 4406.09375 L 804.21875 3929.921875 L 804.921875 3405.195312 L 805.625 2857.539062 L 806.367188 2312.382812 L 807.070312 1793.632812 L 807.773438 1322.734375 L 808.476562 917.890625 L 809.179688 593.632812 L 809.882812 360.429688 L 810.585938 224.570312 L 811.328125 188.203125 L 812.03125 249.492188 L 812.734375 403.085938 L 813.4375 640.625 L 814.140625 950.976562 L 814.84375 1321.171875 L 815.546875 1736.796875 L 816.289062 2182.578125 L 817.695312 3103.28125 L 818.398438 3548.671875 L 819.101562 3966.09375 L 819.804688 4343.90625 L 820.507812 4672.109375 L 821.210938 4942.734375 L 821.953125 5149.84375 L 822.65625 5289.609375 L 823.398438 5361.328125 L 824.101562 5359.101562 L 824.84375 5285.117188 L 825.585938 5143.632812 L 826.328125 4940.351562 L 827.070312 4682.539062 L 827.773438 4378.398438 L 828.515625 4037.03125 L 829.257812 3667.890625 L 830 3280.898438 L 830.703125 2885.664062 L 831.445312 2491.757812 L 832.1875 2108.125 L 832.929688 1743.203125 L 833.671875 1404.414062 L 834.375 1098.398438 L 835.859375 606.015625 L 837.304688 297.695312 L 838.046875 217.617188 L 838.789062 187.578125 L 839.53125 206.796875 L 840.273438 273.476562 L 841.71875 538.671875 L 843.203125 955.15625 L 843.945312 1209.0625 L 844.648438 1486.875 L 845.390625 1783.320312 L 846.132812 2093.164062 L 846.875 2422.03125 L 847.65625 2753.867188 L 848.398438 3083.125 L 849.179688 3404.570312 L 849.921875 3713.359375 L 850.664062 4004.960938 L 851.445312 4275.46875 L 852.1875 4521.289062 L 853.710938 4927.617188 L 855.234375 5206.601562 L 856.757812 5349.453125 L 858.28125 5355.390625 L 859.765625 5230.9375 L 861.289062 4988.59375 L 862.8125 4645.703125 L 864.335938 4222.96875 L 865.859375 3743.085938 L 867.382812 3229.492188 L 868.90625 2705.3125 L 869.648438 2446.132812 L 870.390625 2192.34375 L 871.914062 1711.601562 L 873.4375 1278.28125 L 874.960938 906.09375 L 876.445312 605.507812 L 879.492188 244.375 L 882.5 214.414062 L 884.023438 317.421875 L 885.546875 491.210938 L 887.03125 727.773438 L 888.554688 1017.734375 L 890.078125 1350.9375 L 891.601562 1716.757812 L 893.085938 2104.375 L 894.609375 2503.28125 L 896.171875 2914.570312 L 897.734375 3316.71875 L 899.296875 3700.273438 L 900.820312 4056.992188 L 902.382812 4379.726562 L 903.945312 4662.734375 L 905.507812 4901.484375 L 907.070312 5092.695312 L 910.15625 5325.625 L 913.28125 5358.789062 L 916.40625 5205.078125 L 919.492188 4889.21875 L 922.265625 4502.8125 L 925 4041.640625 L 926.367188 3791.289062 L 927.734375 3532.1875 L 929.101562 3267.5 L 930.46875 3000.351562 L 931.835938 2733.789062 L 933.203125 2470.546875 L 934.570312 2213.242188 L 935.9375 1964.335938 L 938.710938 1500.3125 L 941.445312 1093.4375 L 944.53125 717.734375 L 947.617188 439.257812 L 950.703125 263.242188 L 953.789062 189.960938 L 959.960938 332.578125 L 966.132812 799.492188 L 969.21875 1125.976562 L 972.304688 1495.898438 L 975.429688 1895.546875 L 978.515625 2311.679688 L 981.601562 2731.875 L 984.726562 3144.804688 L 987.8125 3540.429688 L 990.898438 3910.117188 L 993.90625 4235.15625 L 996.875 4524.375 L 999.882812 4773.90625 L 1002.851562 4981.054688 L 1008.828125 5262.773438 L 1014.804688 5368.203125 L 1020.234375 5320.273438 L 1025.664062 5150.78125 L 1031.054688 4878.59375 L 1036.484375 4524.804688 L 1039.726562 4284.765625 L 1042.929688 4028.125 L 1046.171875 3759.335938 L 1049.375 3482.539062 L 1052.617188 3201.796875 L 1055.859375 2920.742188 L 1059.0625 2642.773438 L 1062.304688 2371.054688 L 1067.734375 1932.34375 L 1073.203125 1530.390625 L 1078.671875 1173.867188 L 1084.140625 868.867188 L 1096.835938 376.484375 L 1109.570312 190.273438 L 1120.820312 257.851562 L 1132.070312 506.523438 L 1138.242188 704.648438 L 1144.414062 937.1875 L 1150.585938 1197.109375 L 1156.757812 1477.578125 L 1162.617188 1757.890625 L 1168.515625 2045.9375 L 1174.375 2336.992188 L 1180.234375 2626.914062 L 1186.367188 2924.21875 L 1192.5 3212.578125 L 1198.632812 3488.90625 L 1204.765625 3750.585938 L 1216.054688 4186.40625 L 1227.304688 4556.953125 L 1239.453125 4878.007812 L 1251.601562 5116.09375 L 1264.21875 5277.8125 L 1276.835938 5357.734375 L 1279.570312 5364.960938 L 1282.304688 5368.75 L 1285.078125 5369.179688 L 1287.8125 5366.367188 L 1293.28125 5351.25 L 1298.789062 5324.179688 L 1310.664062 5228.515625 L 1322.539062 5088.28125 L 1347.03125 4689.296875 L 1371.015625 4203.984375 L 1382.617188 3950.15625 L 1394.21875 3690.195312 L 1407.109375 3399.21875 L 1419.960938 3110.195312 L 1431.523438 2855.273438 L 1443.125 2607.382812 L 1467.8125 2109.6875 L 1490.195312 1704.257812 L 1514.726562 1317.109375 L 1537.734375 1008.789062 L 1561.796875 744.140625 L 1585.351562 540.273438 L 1610 381.09375 L 1633.75 275.898438 L 1645.898438 238.828125 L 1658.007812 212.226562 L 1664.023438 202.734375 L 1670.039062 195.585938 L 1676.054688 190.664062 L 1682.109375 187.96875 L 1687.617188 187.34375 L 1693.164062 188.4375 L 1698.671875 191.210938 L 1704.21875 195.625 L 1716.875 211.445312 L 1729.570312 234.882812 L 1752.265625 293.632812 L 1776.445312 377.03125 L 1799.570312 473.554688 L 1825.273438 596.328125 L 1847.5 713.320312 L 1872.773438 855.429688 L 1895.78125 991.523438 L 1920.976562 1145.507812 L 1942.695312 1281.289062 L 1967.421875 1437.734375 L 1991.328125 1589.53125 L 2015.195312 1740.9375 L 2038.984375 1890.546875 L 2061.875 2032.539062 L 2086.5625 2183.4375 L 2110.117188 2324.375 L 2134.921875 2469.21875 L 2157.34375 2596.953125 L 2182.148438 2734.179688 L 2205.898438 2861.523438 L 2229.609375 2984.492188 L 2254.335938 3108.554688 L 2277.148438 3218.75 L 2300.507812 3327.578125 L 2326.25 3443.046875 L 2349.609375 3543.359375 L 2373.476562 3641.875 L 2397.734375 3737.851562 L 2420.039062 3822.5 L 2443.828125 3908.945312 L 2467.421875 3991.015625 L 2492.695312 4074.804688 L 2514.960938 4145.46875 L 2540.664062 4223.164062 L 2563.867188 4290 L 2586.796875 4353.085938 L 2611.484375 4417.695312 L 2636.289062 4479.335938 L 2658.828125 4532.695312 L 2682.773438 4586.601562 L 2706.132812 4636.640625 L 2731.484375 4688.046875 L 2753.398438 4730.3125 L 2778.554688 4776.328125 L 2802.226562 4817.304688 L 2825.664062 4855.703125 L 2849.101562 4892.148438 L 2873.046875 4927.304688 L 2898.398438 4962.421875 L 2921.640625 4992.8125 L 2944.609375 5021.171875 L 2969.140625 5049.726562 L 2993.59375 5076.523438 L 3015.585938 5099.179688 L 3041.601562 5124.375 L 3063.398438 5144.179688 L 3088.867188 5165.898438 L 3113.164062 5185.234375 L 3134.882812 5201.445312 L 3159.296875 5218.476562 L 3183.867188 5234.375 L 3208.320312 5249.101562 L 3231.015625 5261.796875 L 3254.492188 5273.945312 L 3278.75 5285.585938 L 3302.96875 5296.25 L 3327.851562 5306.289062 L 3349.804688 5314.375 L 3374.453125 5322.695312 L 3399.257812 5330.234375 L 3423.164062 5336.757812 L 3444.84375 5342.070312 L 3470.625 5347.695312 L 3492.5 5351.914062 L 3517.890625 5356.132812 L 3540.390625 5359.375 L 3565.117188 5362.34375 L 3588.59375 5364.648438 L 3613.125 5366.5625 L 3635.664062 5367.851562 L 3659.960938 5368.828125 L 3685.15625 5369.335938 L 3707.148438 5369.375 L 3730.898438 5369.101562 L 3755.390625 5368.398438 L 3779.375 5367.34375 L 3802.539062 5366.015625 L 3828.320312 5364.140625 L 3851.445312 5362.1875 L 3876.171875 5359.765625 L 3898.554688 5357.34375 L 3923.046875 5354.414062 L 3946.09375 5351.40625 L 3970.195312 5348.007812 L 3993.710938 5344.453125 L 4018.359375 5340.546875 L 4042.109375 5336.523438 L 4066.367188 5332.226562 L 4090.46875 5327.773438 L 4112.578125 5323.554688 L 4137.929688 5318.476562 L 4160.585938 5313.828125 L 4184.804688 5308.671875 L 4207.929688 5303.632812 L 4233.632812 5297.851562 L 4255.859375 5292.734375 L 4281.132812 5286.835938 L 4304.140625 5281.328125 L 4329.335938 5275.15625 L 4351.054688 5269.765625 L 4375.78125 5263.515625 L 4399.6875 5257.382812 L 4423.554688 5251.132812 L 4447.34375 5244.882812 L 4470.234375 5238.789062 L 4494.921875 5232.109375 L 4518.476562 5225.703125 L 4543.28125 5218.867188 L 4565.703125 5212.617188 L 4590.507812 5205.664062 L 4614.257812 5198.984375 L 4637.96875 5192.226562 L 4662.695312 5185.15625 L 4685.507812 5178.59375 L 4708.828125 5171.835938 L 4734.609375 5164.335938 L 4757.96875 5157.539062 L 4781.835938 5150.546875 L 4806.09375 5143.398438 L 4828.398438 5136.796875 L 4852.1875 5129.726562 L 4875.78125 5122.734375 L 4901.054688 5115.195312 L 4923.320312 5108.554688 L 4949.023438 5100.898438 L 4972.226562 5093.945312 L 5019.84375 5079.6875 L 5161.757812 5037.109375 L 5234.023438 5015.429688 L 5257.460938 5008.4375 L 5281.40625 5001.289062 L 5306.757812 4993.710938 L 5330 4986.796875 L 5352.96875 4980 L 5377.5 4972.695312 L 5401.953125 4965.46875 L 5425.039062 4958.632812 " transform="matrix(0.1,0,0,-0.1,0,555)"/>
<path style="fill:none;stroke-width:13.875;stroke-linecap:butt;stroke-linejoin:round;stroke:rgb(0%,0%,0%);stroke-opacity:1;stroke-miterlimit:10;" d="M 679.882812 2778.359375 L 5425.039062 2778.359375 " transform="matrix(0.1,0,0,-0.1,0,555)"/>
<path style=" stroke:none;fill-rule:nonzero;fill:rgb(0%,0%,0%);fill-opacity:1;" d="M 304.210938 315.308594 C 304.496094 315.613281 304.714844 315.921875 304.859375 316.238281 C 304.976562 316.441406 305.148438 316.992188 305.378906 317.890625 L 306.160156 316.738281 C 306.363281 316.449219 306.609375 316.179688 306.90625 315.925781 C 307.203125 315.675781 307.460938 315.496094 307.679688 315.394531 C 307.820312 315.335938 307.980469 315.308594 308.152344 315.308594 C 308.398438 315.308594 308.601562 315.378906 308.75 315.515625 C 308.902344 315.652344 308.976562 315.8125 308.976562 316.003906 C 308.976562 316.234375 308.933594 316.394531 308.847656 316.480469 C 308.6875 316.621094 308.5 316.695312 308.285156 316.695312 C 308.152344 316.695312 308.023438 316.667969 307.894531 316.609375 C 307.621094 316.523438 307.429688 316.480469 307.332031 316.480469 C 307.1875 316.480469 307.019531 316.558594 306.832031 316.71875 C 306.472656 317.019531 306.035156 317.613281 305.53125 318.496094 L 306.246094 321.507812 C 306.363281 321.972656 306.457031 322.25 306.527344 322.34375 C 306.601562 322.4375 306.679688 322.484375 306.765625 322.484375 C 306.882812 322.484375 307.027344 322.421875 307.199219 322.289062 C 307.519531 322.015625 307.792969 321.660156 308.023438 321.226562 L 308.328125 321.378906 C 307.953125 322.074219 307.480469 322.652344 306.917969 323.113281 C 306.601562 323.371094 306.328125 323.503906 306.09375 323.503906 C 305.761719 323.503906 305.503906 323.316406 305.3125 322.941406 C 305.183594 322.710938 304.929688 321.726562 304.554688 319.992188 C 303.632812 321.582031 302.894531 322.601562 302.34375 323.050781 C 301.980469 323.351562 301.636719 323.503906 301.304688 323.503906 C 301.070312 323.503906 300.855469 323.414062 300.652344 323.242188 C 300.523438 323.113281 300.457031 322.941406 300.457031 322.722656 C 300.457031 322.535156 300.523438 322.375 300.652344 322.246094 C 300.785156 322.117188 300.941406 322.050781 301.128906 322.050781 C 301.316406 322.050781 301.515625 322.144531 301.714844 322.332031 C 301.875 322.464844 301.996094 322.527344 302.085938 322.527344 C 302.140625 322.527344 302.226562 322.484375 302.34375 322.398438 C 302.617188 322.164062 302.996094 321.683594 303.472656 320.945312 C 303.949219 320.210938 304.257812 319.671875 304.402344 319.339844 C 304.042969 317.910156 303.847656 317.160156 303.816406 317.085938 C 303.6875 316.695312 303.515625 316.421875 303.296875 316.261719 C 303.082031 316.101562 302.757812 316.023438 302.320312 316.023438 C 302.191406 316.023438 302.039062 316.03125 301.867188 316.046875 L 301.867188 315.71875 L 304.210938 315.308594 "/>
<path style="fill:none;stroke-width:1.2;stroke-linecap:butt;stroke-linejoin:round;stroke:rgb(0%,0%,0%);stroke-opacity:1;stroke-miterlimit:10;" d="M 679.882812 2778.359375 L 679.882812 2722.851562 " transform="matrix(0.1,0,0,-0.1,0,555)"/>
<path style="fill:none;stroke-width:1.2;stroke-linecap:butt;stroke-linejoin:round;stroke:rgb(0%,0%,0%);stroke-opacity:1;stroke-miterlimit:10;" d="M 1628.90625 2778.359375 L 1628.90625 2722.851562 " transform="matrix(0.1,0,0,-0.1,0,555)"/>
<path style=" stroke:none;fill-rule:nonzero;fill:rgb(0%,0%,0%);fill-opacity:1;" d="M 151.886719 295.191406 C 151.886719 293.832031 152.09375 292.65625 152.507812 291.664062 C 152.914062 290.675781 153.464844 289.941406 154.140625 289.46875 C 154.675781 289.089844 155.226562 288.902344 155.789062 288.902344 C 156.699219 288.902344 157.515625 289.367188 158.238281 290.289062 C 159.148438 291.445312 159.605469 293.015625 159.605469 294.996094 C 159.605469 296.382812 159.40625 297.5625 159.007812 298.527344 C 158.613281 299.496094 158.101562 300.203125 157.480469 300.640625 C 156.859375 301.082031 156.265625 301.304688 155.703125 301.304688 C 154.5625 301.304688 153.605469 300.632812 152.839844 299.289062 C 152.203125 298.144531 151.886719 296.777344 151.886719 295.191406 Z M 153.621094 295.40625 C 153.621094 297.054688 153.824219 298.398438 154.230469 299.4375 C 154.5625 300.304688 155.058594 300.742188 155.726562 300.742188 C 156.042969 300.742188 156.371094 300.597656 156.710938 300.316406 C 157.050781 300.035156 157.308594 299.554688 157.480469 298.875 C 157.753906 297.878906 157.890625 296.453125 157.890625 294.605469 C 157.890625 293.246094 157.746094 292.113281 157.460938 291.203125 C 157.257812 290.519531 156.980469 290.046875 156.636719 289.769531 C 156.40625 289.582031 156.113281 289.488281 155.769531 289.488281 C 155.378906 289.488281 155.023438 289.660156 154.707031 290.007812 C 154.285156 290.5 154.003906 291.269531 153.847656 292.316406 C 153.699219 293.363281 153.621094 294.394531 153.621094 295.40625 Z M 162.511719 299.375 C 162.785156 299.375 163.015625 299.472656 163.203125 299.667969 C 163.390625 299.863281 163.484375 300.089844 163.484375 300.347656 C 163.484375 300.625 163.390625 300.855469 163.203125 301.042969 C 163.015625 301.230469 162.785156 301.324219 162.511719 301.324219 C 162.234375 301.324219 162.003906 301.230469 161.816406 301.042969 C 161.628906 300.855469 161.535156 300.625 161.535156 300.347656 C 161.535156 300.074219 161.628906 299.84375 161.816406 299.65625 C 162.003906 299.46875 162.234375 299.375 162.511719 299.375 Z M 173.023438 298.789062 L 172.199219 301.085938 L 165.15625 301.085938 L 165.15625 300.761719 C 167.222656 298.867188 168.679688 297.320312 169.523438 296.121094 C 170.371094 294.921875 170.789062 293.832031 170.789062 292.847656 C 170.789062 292.082031 170.5625 291.457031 170.097656 290.972656 C 169.636719 290.488281 169.078125 290.246094 168.429688 290.246094 C 167.851562 290.246094 167.328125 290.414062 166.855469 290.757812 C 166.386719 291.097656 166.042969 291.597656 165.828125 292.261719 L 165.503906 292.261719 C 165.648438 291.179688 166.023438 290.347656 166.628906 289.769531 C 167.238281 289.191406 167.996094 288.902344 168.90625 288.902344 C 169.875 288.902344 170.683594 289.214844 171.335938 289.835938 C 171.984375 290.457031 172.308594 291.1875 172.308594 292.023438 C 172.308594 292.632812 172.164062 293.238281 171.878906 293.847656 C 171.441406 294.800781 170.742188 295.804688 169.773438 296.859375 C 168.3125 298.464844 167.394531 299.433594 167.019531 299.765625 L 170.140625 299.765625 C 170.777344 299.765625 171.222656 299.738281 171.472656 299.6875 C 171.726562 299.636719 171.960938 299.539062 172.167969 299.394531 C 172.378906 299.253906 172.554688 299.050781 172.699219 298.789062 L 173.023438 298.789062 "/>
<path style="fill:none;stroke-width:1.2;stroke-linecap:butt;stroke-linejoin:round;stroke:rgb(0%,0%,0%);stroke-opacity:1;stroke-miterlimit:10;" d="M 2577.929688 2778.359375 L 2577.929688 2722.851562 " transform="matrix(0.1,0,0,-0.1,0,555)"/>
<path style=" stroke:none;fill-rule:nonzero;fill:rgb(0%,0%,0%);fill-opacity:1;" d="M 246.238281 295.191406 C 246.238281 293.832031 246.445312 292.65625 246.855469 291.664062 C 247.265625 290.675781 247.8125 289.941406 248.492188 289.46875 C 249.027344 289.089844 249.578125 288.902344 250.140625 288.902344 C 251.050781 288.902344 251.867188 289.367188 252.589844 290.289062 C 253.5 291.445312 253.953125 293.015625 253.953125 294.996094 C 253.953125 296.382812 253.757812 297.5625 253.359375 298.527344 C 252.960938 299.496094 252.453125 300.203125 251.832031 300.640625 C 251.210938 301.082031 250.617188 301.304688 250.050781 301.304688 C 248.910156 301.304688 247.957031 300.632812 247.191406 299.289062 C 246.554688 298.144531 246.238281 296.777344 246.238281 295.191406 Z M 247.972656 295.40625 C 247.972656 297.054688 248.175781 298.398438 248.578125 299.4375 C 248.910156 300.304688 249.410156 300.742188 250.074219 300.742188 C 250.394531 300.742188 250.722656 300.597656 251.0625 300.316406 C 251.402344 300.035156 251.65625 299.554688 251.832031 298.875 C 252.105469 297.878906 252.242188 296.453125 252.242188 294.605469 C 252.242188 293.246094 252.097656 292.113281 251.808594 291.203125 C 251.605469 290.519531 251.332031 290.046875 250.984375 289.769531 C 250.753906 289.582031 250.464844 289.488281 250.117188 289.488281 C 249.726562 289.488281 249.375 289.660156 249.054688 290.007812 C 248.636719 290.5 248.351562 291.269531 248.199219 292.316406 C 248.046875 293.363281 247.972656 294.394531 247.972656 295.40625 Z M 256.859375 299.375 C 257.132812 299.375 257.367188 299.472656 257.554688 299.667969 C 257.742188 299.863281 257.835938 300.089844 257.835938 300.347656 C 257.835938 300.625 257.742188 300.855469 257.554688 301.042969 C 257.367188 301.230469 257.132812 301.324219 256.859375 301.324219 C 256.585938 301.324219 256.355469 301.230469 256.167969 301.042969 C 255.980469 300.855469 255.882812 300.625 255.882812 300.347656 C 255.882812 300.074219 255.980469 299.84375 256.167969 299.65625 C 256.355469 299.46875 256.585938 299.375 256.859375 299.375 Z M 267.503906 296.6875 L 267.503906 297.941406 L 265.898438 297.941406 L 265.898438 301.085938 L 264.449219 301.085938 L 264.449219 297.941406 L 259.398438 297.941406 L 259.398438 296.816406 L 264.945312 288.902344 L 265.898438 288.902344 L 265.898438 296.6875 Z M 264.449219 296.6875 L 264.449219 290.746094 L 260.265625 296.6875 L 264.449219 296.6875 "/>
<path style="fill:none;stroke-width:1.2;stroke-linecap:butt;stroke-linejoin:round;stroke:rgb(0%,0%,0%);stroke-opacity:1;stroke-miterlimit:10;" d="M 3526.953125 2778.359375 L 3526.953125 2722.851562 " transform="matrix(0.1,0,0,-0.1,0,555)"/>
<path style=" stroke:none;fill-rule:nonzero;fill:rgb(0%,0%,0%);fill-opacity:1;" d="M 341.972656 295.191406 C 341.972656 293.832031 342.179688 292.65625 342.59375 291.664062 C 343.003906 290.675781 343.550781 289.941406 344.230469 289.46875 C 344.765625 289.089844 345.3125 288.902344 345.878906 288.902344 C 346.789062 288.902344 347.605469 289.367188 348.324219 290.289062 C 349.238281 291.445312 349.691406 293.015625 349.691406 294.996094 C 349.691406 296.382812 349.496094 297.5625 349.097656 298.527344 C 348.699219 299.496094 348.1875 300.203125 347.570312 300.640625 C 346.945312 301.082031 346.355469 301.304688 345.789062 301.304688 C 344.648438 301.304688 343.695312 300.632812 342.929688 299.289062 C 342.292969 298.144531 341.972656 296.777344 341.972656 295.191406 Z M 343.710938 295.40625 C 343.710938 297.054688 343.910156 298.398438 344.316406 299.4375 C 344.648438 300.304688 345.148438 300.742188 345.8125 300.742188 C 346.128906 300.742188 346.460938 300.597656 346.800781 300.316406 C 347.140625 300.035156 347.394531 299.554688 347.570312 298.875 C 347.84375 297.878906 347.980469 296.453125 347.980469 294.605469 C 347.980469 293.246094 347.835938 292.113281 347.546875 291.203125 C 347.34375 290.519531 347.070312 290.046875 346.722656 289.769531 C 346.492188 289.582031 346.203125 289.488281 345.855469 289.488281 C 345.464844 289.488281 345.109375 289.660156 344.792969 290.007812 C 344.371094 290.5 344.089844 291.269531 343.9375 292.316406 C 343.785156 293.363281 343.710938 294.394531 343.710938 295.40625 Z M 352.597656 299.375 C 352.871094 299.375 353.105469 299.472656 353.292969 299.667969 C 353.480469 299.863281 353.574219 300.089844 353.574219 300.347656 C 353.574219 300.625 353.480469 300.855469 353.292969 301.042969 C 353.105469 301.230469 352.871094 301.324219 352.597656 301.324219 C 352.324219 301.324219 352.09375 301.230469 351.90625 301.042969 C 351.714844 300.855469 351.621094 300.625 351.621094 300.347656 C 351.621094 300.074219 351.714844 299.84375 351.90625 299.65625 C 352.09375 299.46875 352.324219 299.375 352.597656 299.375 Z M 362.9375 288.902344 L 362.9375 289.230469 C 362.15625 289.300781 361.523438 289.453125 361.03125 289.683594 C 360.539062 289.914062 360.054688 290.269531 359.578125 290.746094 C 359.101562 291.222656 358.707031 291.753906 358.398438 292.339844 C 358.085938 292.925781 357.820312 293.613281 357.605469 294.410156 C 358.460938 293.832031 359.3125 293.542969 360.164062 293.542969 C 360.972656 293.542969 361.679688 293.871094 362.277344 294.527344 C 362.878906 295.1875 363.179688 296.035156 363.179688 297.074219 C 363.179688 298.074219 362.875 298.984375 362.265625 299.808594 C 361.542969 300.804688 360.585938 301.304688 359.382812 301.304688 C 358.558594 301.304688 357.863281 301.027344 357.300781 300.480469 C 356.1875 299.4375 355.632812 298.082031 355.632812 296.40625 C 355.632812 295.335938 355.847656 294.320312 356.273438 293.359375 C 356.699219 292.398438 357.308594 291.539062 358.105469 290.789062 C 358.898438 290.035156 359.660156 289.535156 360.390625 289.28125 C 361.121094 289.027344 361.796875 288.902344 362.417969 288.902344 Z M 357.453125 295.058594 C 357.355469 295.855469 357.300781 296.496094 357.300781 296.988281 C 357.300781 297.554688 357.40625 298.164062 357.617188 298.820312 C 357.828125 299.480469 358.132812 300.003906 358.539062 300.394531 C 358.84375 300.667969 359.210938 300.804688 359.644531 300.804688 C 360.148438 300.804688 360.605469 300.5625 361.007812 300.078125 C 361.414062 299.59375 361.617188 298.910156 361.617188 298.027344 C 361.617188 297.019531 361.414062 296.148438 361.007812 295.417969 C 360.605469 294.6875 360.039062 294.324219 359.316406 294.324219 C 359.089844 294.324219 358.84375 294.367188 358.59375 294.464844 C 358.339844 294.558594 357.960938 294.757812 357.453125 295.058594 "/>
<path style="fill:none;stroke-width:1.2;stroke-linecap:butt;stroke-linejoin:round;stroke:rgb(0%,0%,0%);stroke-opacity:1;stroke-miterlimit:10;" d="M 4476.015625 2778.359375 L 4476.015625 2722.851562 " transform="matrix(0.1,0,0,-0.1,0,555)"/>
<path style=" stroke:none;fill-rule:nonzero;fill:rgb(0%,0%,0%);fill-opacity:1;" d="M 436.324219 295.191406 C 436.324219 293.832031 436.53125 292.65625 436.941406 291.664062 C 437.355469 290.675781 437.898438 289.941406 438.578125 289.46875 C 439.113281 289.089844 439.664062 288.902344 440.226562 288.902344 C 441.136719 288.902344 441.953125 289.367188 442.675781 290.289062 C 443.589844 291.445312 444.042969 293.015625 444.042969 294.996094 C 444.042969 296.382812 443.84375 297.5625 443.445312 298.527344 C 443.050781 299.496094 442.539062 300.203125 441.917969 300.640625 C 441.296875 301.082031 440.703125 301.304688 440.140625 301.304688 C 438.996094 301.304688 438.046875 300.632812 437.277344 299.289062 C 436.640625 298.144531 436.324219 296.777344 436.324219 295.191406 Z M 438.058594 295.40625 C 438.058594 297.054688 438.261719 298.398438 438.664062 299.4375 C 438.996094 300.304688 439.496094 300.742188 440.160156 300.742188 C 440.480469 300.742188 440.808594 300.597656 441.148438 300.316406 C 441.488281 300.035156 441.746094 299.554688 441.917969 298.875 C 442.191406 297.878906 442.328125 296.453125 442.328125 294.605469 C 442.328125 293.246094 442.183594 292.113281 441.894531 291.203125 C 441.695312 290.519531 441.417969 290.046875 441.070312 289.769531 C 440.84375 289.582031 440.550781 289.488281 440.203125 289.488281 C 439.816406 289.488281 439.460938 289.660156 439.144531 290.007812 C 438.722656 290.5 438.4375 291.269531 438.285156 292.316406 C 438.136719 293.363281 438.058594 294.394531 438.058594 295.40625 Z M 446.949219 299.375 C 447.222656 299.375 447.453125 299.472656 447.640625 299.667969 C 447.828125 299.863281 447.925781 300.089844 447.925781 300.347656 C 447.925781 300.625 447.828125 300.855469 447.640625 301.042969 C 447.453125 301.230469 447.222656 301.324219 446.949219 301.324219 C 446.675781 301.324219 446.441406 301.230469 446.253906 301.042969 C 446.066406 300.855469 445.972656 300.625 445.972656 300.347656 C 445.972656 300.074219 446.066406 299.84375 446.253906 299.65625 C 446.441406 299.46875 446.675781 299.375 446.949219 299.375 Z M 452.671875 295.082031 C 451.71875 294.300781 451.101562 293.675781 450.828125 293.207031 C 450.554688 292.734375 450.417969 292.25 450.417969 291.742188 C 450.417969 290.964844 450.71875 290.292969 451.316406 289.738281 C 451.914062 289.179688 452.714844 288.902344 453.714844 288.902344 C 454.679688 288.902344 455.457031 289.164062 456.042969 289.683594 C 456.628906 290.203125 456.921875 290.796875 456.921875 291.460938 C 456.921875 291.910156 456.761719 292.363281 456.441406 292.824219 C 456.125 293.289062 455.46875 293.839844 454.46875 294.476562 C 455.496094 295.269531 456.175781 295.898438 456.507812 296.359375 C 456.957031 296.953125 457.179688 297.582031 457.179688 298.246094 C 457.179688 299.085938 456.863281 299.804688 456.226562 300.402344 C 455.589844 301.003906 454.753906 301.304688 453.714844 301.304688 C 452.570312 301.304688 451.679688 300.949219 451.046875 300.242188 C 450.539062 299.664062 450.285156 299.035156 450.285156 298.355469 C 450.285156 297.835938 450.46875 297.316406 450.828125 296.796875 C 451.191406 296.273438 451.804688 295.703125 452.671875 295.082031 Z M 454.035156 294.128906 C 454.746094 293.492188 455.191406 292.988281 455.382812 292.621094 C 455.570312 292.253906 455.664062 291.835938 455.664062 291.375 C 455.664062 290.765625 455.488281 290.285156 455.144531 289.933594 C 454.796875 289.578125 454.324219 289.402344 453.734375 289.402344 C 453.128906 289.402344 452.636719 289.574219 452.261719 289.921875 C 451.882812 290.269531 451.695312 290.671875 451.695312 291.136719 C 451.695312 291.4375 451.773438 291.746094 451.933594 292.058594 C 452.09375 292.367188 452.316406 292.660156 452.605469 292.9375 Z M 453.082031 295.40625 C 452.589844 295.8125 452.230469 296.257812 452 296.742188 C 451.769531 297.226562 451.652344 297.746094 451.652344 298.3125 C 451.652344 299.078125 451.859375 299.6875 452.269531 300.144531 C 452.683594 300.597656 453.207031 300.828125 453.839844 300.828125 C 454.480469 300.828125 454.988281 300.644531 455.371094 300.285156 C 455.753906 299.921875 455.945312 299.492188 455.945312 298.984375 C 455.945312 298.566406 455.828125 298.183594 455.597656 297.835938 C 455.191406 297.214844 454.355469 296.40625 453.082031 295.40625 "/>
<path style="fill:none;stroke-width:1.2;stroke-linecap:butt;stroke-linejoin:round;stroke:rgb(0%,0%,0%);stroke-opacity:1;stroke-miterlimit:10;" d="M 5425.039062 2778.359375 L 5425.039062 2722.851562 " transform="matrix(0.1,0,0,-0.1,0,555)"/>
<path style=" stroke:none;fill-rule:nonzero;fill:rgb(0%,0%,0%);fill-opacity:1;" d="M 539.085938 290.3125 L 541.992188 288.902344 L 542.273438 288.902344 L 542.273438 298.984375 C 542.273438 299.648438 542.304688 300.066406 542.359375 300.230469 C 542.417969 300.394531 542.53125 300.523438 542.707031 300.609375 C 542.878906 300.695312 543.234375 300.746094 543.769531 300.761719 L 543.769531 301.085938 L 539.28125 301.085938 L 539.28125 300.761719 C 539.847656 300.746094 540.210938 300.695312 540.375 300.609375 C 540.542969 300.523438 540.660156 300.40625 540.722656 300.261719 C 540.789062 300.117188 540.820312 299.691406 540.820312 298.984375 L 540.820312 292.546875 C 540.820312 291.664062 540.792969 291.101562 540.734375 290.855469 C 540.691406 290.664062 540.613281 290.527344 540.507812 290.441406 C 540.398438 290.355469 540.265625 290.3125 540.105469 290.3125 C 539.890625 290.3125 539.59375 290.40625 539.21875 290.59375 L 539.085938 290.3125 "/>
<path style="fill:none;stroke-width:1.2;stroke-linecap:butt;stroke-linejoin:round;stroke:rgb(0%,0%,0%);stroke-opacity:1;stroke-miterlimit:10;" d="M 1154.375 2778.359375 L 1154.375 2750.625 " transform="matrix(0.1,0,0,-0.1,0,555)"/>
<path style="fill:none;stroke-width:1.2;stroke-linecap:butt;stroke-linejoin:round;stroke:rgb(0%,0%,0%);stroke-opacity:1;stroke-miterlimit:10;" d="M 2103.4375 2778.359375 L 2103.4375 2750.625 " transform="matrix(0.1,0,0,-0.1,0,555)"/>
<path style="fill:none;stroke-width:1.2;stroke-linecap:butt;stroke-linejoin:round;stroke:rgb(0%,0%,0%);stroke-opacity:1;stroke-miterlimit:10;" d="M 3052.460938 2778.359375 L 3052.460938 2750.625 " transform="matrix(0.1,0,0,-0.1,0,555)"/>
<path style="fill:none;stroke-width:1.2;stroke-linecap:butt;stroke-linejoin:round;stroke:rgb(0%,0%,0%);stroke-opacity:1;stroke-miterlimit:10;" d="M 4001.484375 2778.359375 L 4001.484375 2750.625 " transform="matrix(0.1,0,0,-0.1,0,555)"/>
<path style="fill:none;stroke-width:1.2;stroke-linecap:butt;stroke-linejoin:round;stroke:rgb(0%,0%,0%);stroke-opacity:1;stroke-miterlimit:10;" d="M 4950.546875 2778.359375 L 4950.546875 2750.625 " transform="matrix(0.1,0,0,-0.1,0,555)"/>
<path style="fill:none;stroke-width:13.875;stroke-linecap:butt;stroke-linejoin:round;stroke:rgb(0%,0%,0%);stroke-opacity:1;stroke-miterlimit:10;" d="M 679.882812 187.304688 L 679.882812 5369.414062 " transform="matrix(0.1,0,0,-0.1,0,555)"/>
<path style="fill:none;stroke-width:1.2;stroke-linecap:butt;stroke-linejoin:round;stroke:rgb(0%,0%,0%);stroke-opacity:1;stroke-miterlimit:10;" d="M 679.882812 187.304688 L 624.375 187.304688 " transform="matrix(0.1,0,0,-0.1,0,555)"/>
<g clip-path="url(#clip2)" clip-rule="nonzero">
<path style=" stroke:none;fill-rule:nonzero;fill:rgb(0%,0%,0%);fill-opacity:1;" d="M 41.90625 537.570312 L 53.832031 537.570312 L 53.832031 536.636719 L 41.90625 536.636719 Z M 41.90625 537.570312 "/>
</g>
<path style=" stroke:none;fill-rule:nonzero;fill:rgb(0%,0%,0%);fill-opacity:1;" d="M 52.074219 531.738281 L 54.980469 530.328125 L 55.261719 530.328125 L 55.261719 540.410156 C 55.261719 541.074219 55.289062 541.488281 55.347656 541.65625 C 55.40625 541.820312 55.523438 541.949219 55.695312 542.035156 C 55.867188 542.121094 56.222656 542.171875 56.757812 542.1875 L 56.757812 542.511719 L 52.269531 542.511719 L 52.269531 542.1875 C 52.832031 542.171875 53.199219 542.121094 53.363281 542.035156 C 53.53125 541.949219 53.648438 541.832031 53.710938 541.6875 C 53.777344 541.542969 53.808594 541.117188 53.808594 540.410156 L 53.808594 533.96875 C 53.808594 533.089844 53.78125 532.527344 53.722656 532.28125 C 53.679688 532.089844 53.601562 531.953125 53.496094 531.867188 C 53.386719 531.78125 53.253906 531.738281 53.09375 531.738281 C 52.875 531.738281 52.582031 531.832031 52.203125 532.019531 L 52.074219 531.738281 "/>
<path style="fill:none;stroke-width:1.2;stroke-linecap:butt;stroke-linejoin:round;stroke:rgb(0%,0%,0%);stroke-opacity:1;stroke-miterlimit:10;" d="M 679.882812 1482.851562 L 624.375 1482.851562 " transform="matrix(0.1,0,0,-0.1,0,555)"/>
<g clip-path="url(#clip3)" clip-rule="nonzero">
<path style=" stroke:none;fill-rule:nonzero;fill:rgb(0%,0%,0%);fill-opacity:1;" d="M 28.03125 408.53125 L 39.957031 408.53125 L 39.957031 407.597656 L 28.03125 407.597656 Z M 28.03125 408.53125 "/>
</g>
<path style=" stroke:none;fill-rule:nonzero;fill:rgb(0%,0%,0%);fill-opacity:1;" d="M 36.726562 407.578125 C 36.726562 406.21875 36.929688 405.046875 37.34375 404.054688 C 37.753906 403.0625 38.300781 402.328125 38.980469 401.855469 C 39.515625 401.480469 40.0625 401.289062 40.628906 401.289062 C 41.539062 401.289062 42.355469 401.753906 43.078125 402.675781 C 43.988281 403.835938 44.445312 405.402344 44.445312 407.382812 C 44.445312 408.769531 44.246094 409.949219 43.847656 410.914062 C 43.449219 411.886719 42.941406 412.589844 42.320312 413.03125 C 41.699219 413.472656 41.105469 413.691406 40.539062 413.691406 C 39.398438 413.691406 38.445312 413.019531 37.679688 411.675781 C 37.042969 410.535156 36.726562 409.167969 36.726562 407.578125 Z M 38.460938 407.796875 C 38.460938 409.441406 38.660156 410.785156 39.066406 411.828125 C 39.398438 412.695312 39.898438 413.128906 40.5625 413.128906 C 40.878906 413.128906 41.210938 412.988281 41.550781 412.703125 C 41.890625 412.421875 42.144531 411.941406 42.320312 411.261719 C 42.59375 410.265625 42.730469 408.84375 42.730469 406.992188 C 42.730469 405.632812 42.585938 404.5 42.296875 403.589844 C 42.09375 402.910156 41.820312 402.433594 41.472656 402.15625 C 41.242188 401.96875 40.953125 401.875 40.605469 401.875 C 40.214844 401.875 39.863281 402.050781 39.542969 402.394531 C 39.125 402.886719 38.839844 403.65625 38.6875 404.703125 C 38.535156 405.753906 38.460938 406.78125 38.460938 407.796875 Z M 47.347656 411.761719 C 47.621094 411.761719 47.855469 411.859375 48.042969 412.054688 C 48.230469 412.25 48.324219 412.476562 48.324219 412.738281 C 48.324219 413.011719 48.230469 413.242188 48.042969 413.429688 C 47.855469 413.617188 47.621094 413.710938 47.347656 413.710938 C 47.074219 413.710938 46.84375 413.617188 46.65625 413.429688 C 46.46875 413.242188 46.371094 413.011719 46.371094 412.738281 C 46.371094 412.460938 46.46875 412.230469 46.65625 412.042969 C 46.84375 411.855469 47.074219 411.761719 47.347656 411.761719 Z M 57.429688 401.527344 L 56.734375 403.023438 L 53.160156 403.023438 L 52.378906 404.628906 C 53.925781 404.859375 55.152344 405.4375 56.0625 406.363281 C 56.84375 407.15625 57.234375 408.097656 57.234375 409.183594 C 57.234375 409.816406 57.109375 410.402344 56.855469 410.9375 C 56.601562 411.472656 56.28125 411.929688 55.890625 412.304688 C 55.5 412.679688 55.066406 412.976562 54.589844 413.191406 C 53.925781 413.523438 53.230469 413.691406 52.507812 413.691406 C 51.800781 413.691406 51.28125 413.566406 50.957031 413.320312 C 50.632812 413.078125 50.46875 412.808594 50.46875 412.519531 C 50.46875 412.347656 50.539062 412.199219 50.675781 412.078125 C 50.8125 411.953125 50.984375 411.890625 51.183594 411.890625 C 51.332031 411.890625 51.460938 411.914062 51.574219 411.957031 C 51.691406 412 51.886719 412.121094 52.160156 412.324219 C 52.609375 412.628906 53.058594 412.78125 53.503906 412.78125 C 54.199219 412.78125 54.800781 412.519531 55.316406 412 C 55.828125 411.480469 56.085938 410.84375 56.085938 410.09375 C 56.085938 409.371094 55.855469 408.699219 55.390625 408.074219 C 54.929688 407.453125 54.292969 406.96875 53.484375 406.621094 C 52.832031 406.363281 51.960938 406.210938 50.859375 406.167969 L 53.160156 401.527344 L 57.429688 401.527344 "/>
<path style="fill:none;stroke-width:1.2;stroke-linecap:butt;stroke-linejoin:round;stroke:rgb(0%,0%,0%);stroke-opacity:1;stroke-miterlimit:10;" d="M 679.882812 2778.359375 L 624.375 2778.359375 " transform="matrix(0.1,0,0,-0.1,0,555)"/>
<path style=" stroke:none;fill-rule:nonzero;fill:rgb(0%,0%,0%);fill-opacity:1;" d="M 50.601562 277.152344 C 50.601562 275.792969 50.804688 274.621094 51.21875 273.628906 C 51.628906 272.640625 52.175781 271.90625 52.855469 271.429688 C 53.390625 271.054688 53.9375 270.863281 54.503906 270.863281 C 55.414062 270.863281 56.230469 271.328125 56.953125 272.253906 C 57.863281 273.410156 58.320312 274.976562 58.320312 276.957031 C 58.320312 278.34375 58.121094 279.523438 57.722656 280.492188 C 57.324219 281.460938 56.816406 282.164062 56.195312 282.605469 C 55.574219 283.046875 54.980469 283.265625 54.414062 283.265625 C 53.273438 283.265625 52.320312 282.59375 51.554688 281.25 C 50.917969 280.109375 50.601562 278.742188 50.601562 277.152344 Z M 52.335938 277.371094 C 52.335938 279.015625 52.535156 280.359375 52.941406 281.402344 C 53.273438 282.269531 53.773438 282.703125 54.4375 282.703125 C 54.753906 282.703125 55.085938 282.5625 55.425781 282.28125 C 55.765625 281.996094 56.019531 281.515625 56.195312 280.839844 C 56.46875 279.839844 56.605469 278.417969 56.605469 276.566406 C 56.605469 275.210938 56.460938 274.074219 56.171875 273.164062 C 55.96875 272.484375 55.695312 272.007812 55.347656 271.730469 C 55.117188 271.546875 54.828125 271.449219 54.480469 271.449219 C 54.089844 271.449219 53.738281 271.625 53.417969 271.972656 C 53 272.460938 52.714844 273.230469 52.5625 274.28125 C 52.410156 275.328125 52.335938 276.359375 52.335938 277.371094 "/>
<path style="fill:none;stroke-width:1.2;stroke-linecap:butt;stroke-linejoin:round;stroke:rgb(0%,0%,0%);stroke-opacity:1;stroke-miterlimit:10;" d="M 679.882812 4073.90625 L 624.375 4073.90625 " transform="matrix(0.1,0,0,-0.1,0,555)"/>
<path style=" stroke:none;fill-rule:nonzero;fill:rgb(0%,0%,0%);fill-opacity:1;" d="M 36.726562 148.117188 C 36.726562 146.757812 36.929688 145.582031 37.34375 144.589844 C 37.753906 143.601562 38.300781 142.867188 38.980469 142.390625 C 39.515625 142.015625 40.0625 141.828125 40.628906 141.828125 C 41.539062 141.828125 42.355469 142.289062 43.078125 143.214844 C 43.988281 144.371094 44.445312 145.941406 44.445312 147.921875 C 44.445312 149.308594 44.246094 150.484375 43.847656 151.453125 C 43.449219 152.421875 42.941406 153.128906 42.320312 153.566406 C 41.699219 154.007812 41.105469 154.230469 40.539062 154.230469 C 39.398438 154.230469 38.445312 153.554688 37.679688 152.214844 C 37.042969 151.070312 36.726562 149.703125 36.726562 148.117188 Z M 38.460938 148.332031 C 38.460938 149.980469 38.660156 151.324219 39.066406 152.363281 C 39.398438 153.230469 39.898438 153.664062 40.5625 153.664062 C 40.878906 153.664062 41.210938 153.523438 41.550781 153.242188 C 41.890625 152.960938 42.144531 152.480469 42.320312 151.800781 C 42.59375 150.804688 42.730469 149.378906 42.730469 147.53125 C 42.730469 146.171875 42.585938 145.035156 42.296875 144.128906 C 42.09375 143.445312 41.820312 142.96875 41.472656 142.695312 C 41.242188 142.507812 40.953125 142.414062 40.605469 142.414062 C 40.214844 142.414062 39.863281 142.585938 39.542969 142.933594 C 39.125 143.425781 38.839844 144.195312 38.6875 145.242188 C 38.535156 146.289062 38.460938 147.320312 38.460938 148.332031 Z M 47.347656 152.300781 C 47.621094 152.300781 47.855469 152.394531 48.042969 152.59375 C 48.230469 152.785156 48.324219 153.015625 48.324219 153.273438 C 48.324219 153.550781 48.230469 153.78125 48.042969 153.96875 C 47.855469 154.15625 47.621094 154.25 47.347656 154.25 C 47.074219 154.25 46.84375 154.15625 46.65625 153.96875 C 46.46875 153.78125 46.371094 153.550781 46.371094 153.273438 C 46.371094 153 46.46875 152.769531 46.65625 152.578125 C 46.84375 152.394531 47.074219 152.300781 47.347656 152.300781 Z M 57.429688 142.066406 L 56.734375 143.5625 L 53.160156 143.5625 L 52.378906 145.167969 C 53.925781 145.398438 55.152344 145.976562 56.0625 146.902344 C 56.84375 147.695312 57.234375 148.636719 57.234375 149.71875 C 57.234375 150.355469 57.109375 150.941406 56.855469 151.476562 C 56.601562 152.011719 56.28125 152.464844 55.890625 152.839844 C 55.5 153.21875 55.066406 153.511719 54.589844 153.730469 C 53.925781 154.0625 53.230469 154.230469 52.507812 154.230469 C 51.800781 154.230469 51.28125 154.105469 50.957031 153.859375 C 50.632812 153.613281 50.46875 153.347656 50.46875 153.058594 C 50.46875 152.882812 50.539062 152.734375 50.675781 152.613281 C 50.8125 152.488281 50.984375 152.429688 51.183594 152.429688 C 51.332031 152.429688 51.460938 152.453125 51.574219 152.496094 C 51.691406 152.535156 51.886719 152.660156 52.160156 152.863281 C 52.609375 153.164062 53.058594 153.320312 53.503906 153.320312 C 54.199219 153.320312 54.800781 153.058594 55.316406 152.535156 C 55.828125 152.015625 56.085938 151.382812 56.085938 150.628906 C 56.085938 149.90625 55.855469 149.234375 55.390625 148.613281 C 54.929688 147.992188 54.292969 147.507812 53.484375 147.160156 C 52.832031 146.902344 51.960938 146.75 50.859375 146.707031 L 53.160156 142.066406 L 57.429688 142.066406 "/>
<path style="fill:none;stroke-width:1.2;stroke-linecap:butt;stroke-linejoin:round;stroke:rgb(0%,0%,0%);stroke-opacity:1;stroke-miterlimit:10;" d="M 679.882812 5369.414062 L 624.375 5369.414062 " transform="matrix(0.1,0,0,-0.1,0,555)"/>
<path style=" stroke:none;fill-rule:nonzero;fill:rgb(0%,0%,0%);fill-opacity:1;" d="M 52.074219 14.199219 L 54.980469 12.789062 L 55.261719 12.789062 L 55.261719 22.871094 C 55.261719 23.535156 55.289062 23.953125 55.347656 24.117188 C 55.40625 24.285156 55.523438 24.410156 55.695312 24.496094 C 55.867188 24.585938 56.222656 24.636719 56.757812 24.648438 L 56.757812 24.976562 L 52.269531 24.976562 L 52.269531 24.648438 C 52.832031 24.636719 53.199219 24.585938 53.363281 24.496094 C 53.53125 24.410156 53.648438 24.296875 53.710938 24.152344 C 53.777344 24.007812 53.808594 23.578125 53.808594 22.871094 L 53.808594 16.433594 C 53.808594 15.550781 53.78125 14.988281 53.722656 14.742188 C 53.679688 14.554688 53.601562 14.417969 53.496094 14.328125 C 53.386719 14.242188 53.253906 14.199219 53.09375 14.199219 C 52.875 14.199219 52.582031 14.292969 52.203125 14.480469 L 52.074219 14.199219 "/>
<path style="fill:none;stroke-width:1.2;stroke-linecap:butt;stroke-linejoin:round;stroke:rgb(0%,0%,0%);stroke-opacity:1;stroke-miterlimit:10;" d="M 679.882812 446.445312 L 652.109375 446.445312 " transform="matrix(0.1,0,0,-0.1,0,555)"/>
<path style="fill:none;stroke-width:1.2;stroke-linecap:butt;stroke-linejoin:round;stroke:rgb(0%,0%,0%);stroke-opacity:1;stroke-miterlimit:10;" d="M 679.882812 705.546875 L 652.109375 705.546875 " transform="matrix(0.1,0,0,-0.1,0,555)"/>
<path style="fill:none;stroke-width:1.2;stroke-linecap:butt;stroke-linejoin:round;stroke:rgb(0%,0%,0%);stroke-opacity:1;stroke-miterlimit:10;" d="M 679.882812 964.648438 L 652.109375 964.648438 " transform="matrix(0.1,0,0,-0.1,0,555)"/>
<path style="fill:none;stroke-width:1.2;stroke-linecap:butt;stroke-linejoin:round;stroke:rgb(0%,0%,0%);stroke-opacity:1;stroke-miterlimit:10;" d="M 679.882812 1223.710938 L 652.109375 1223.710938 " transform="matrix(0.1,0,0,-0.1,0,555)"/>
<path style="fill:none;stroke-width:1.2;stroke-linecap:butt;stroke-linejoin:round;stroke:rgb(0%,0%,0%);stroke-opacity:1;stroke-miterlimit:10;" d="M 679.882812 1741.953125 L 652.109375 1741.953125 " transform="matrix(0.1,0,0,-0.1,0,555)"/>
<path style="fill:none;stroke-width:1.2;stroke-linecap:butt;stroke-linejoin:round;stroke:rgb(0%,0%,0%);stroke-opacity:1;stroke-miterlimit:10;" d="M 679.882812 2001.054688 L 652.109375 2001.054688 " transform="matrix(0.1,0,0,-0.1,0,555)"/>
<path style="fill:none;stroke-width:1.2;stroke-linecap:butt;stroke-linejoin:round;stroke:rgb(0%,0%,0%);stroke-opacity:1;stroke-miterlimit:10;" d="M 679.882812 2260.15625 L 652.109375 2260.15625 " transform="matrix(0.1,0,0,-0.1,0,555)"/>
<path style="fill:none;stroke-width:1.2;stroke-linecap:butt;stroke-linejoin:round;stroke:rgb(0%,0%,0%);stroke-opacity:1;stroke-miterlimit:10;" d="M 679.882812 2519.257812 L 652.109375 2519.257812 " transform="matrix(0.1,0,0,-0.1,0,555)"/>
<path style="fill:none;stroke-width:1.2;stroke-linecap:butt;stroke-linejoin:round;stroke:rgb(0%,0%,0%);stroke-opacity:1;stroke-miterlimit:10;" d="M 679.882812 3037.460938 L 652.109375 3037.460938 " transform="matrix(0.1,0,0,-0.1,0,555)"/>
<path style="fill:none;stroke-width:1.2;stroke-linecap:butt;stroke-linejoin:round;stroke:rgb(0%,0%,0%);stroke-opacity:1;stroke-miterlimit:10;" d="M 679.882812 3296.5625 L 652.109375 3296.5625 " transform="matrix(0.1,0,0,-0.1,0,555)"/>
<path style="fill:none;stroke-width:1.2;stroke-linecap:butt;stroke-linejoin:round;stroke:rgb(0%,0%,0%);stroke-opacity:1;stroke-miterlimit:10;" d="M 679.882812 3555.664062 L 652.109375 3555.664062 " transform="matrix(0.1,0,0,-0.1,0,555)"/>
<path style="fill:none;stroke-width:1.2;stroke-linecap:butt;stroke-linejoin:round;stroke:rgb(0%,0%,0%);stroke-opacity:1;stroke-miterlimit:10;" d="M 679.882812 3814.765625 L 652.109375 3814.765625 " transform="matrix(0.1,0,0,-0.1,0,555)"/>
<path style="fill:none;stroke-width:1.2;stroke-linecap:butt;stroke-linejoin:round;stroke:rgb(0%,0%,0%);stroke-opacity:1;stroke-miterlimit:10;" d="M 679.882812 4333.007812 L 652.109375 4333.007812 " transform="matrix(0.1,0,0,-0.1,0,555)"/>
<path style="fill:none;stroke-width:1.2;stroke-linecap:butt;stroke-linejoin:round;stroke:rgb(0%,0%,0%);stroke-opacity:1;stroke-miterlimit:10;" d="M 679.882812 4592.109375 L 652.109375 4592.109375 " transform="matrix(0.1,0,0,-0.1,0,555)"/>
<path style="fill:none;stroke-width:1.2;stroke-linecap:butt;stroke-linejoin:round;stroke:rgb(0%,0%,0%);stroke-opacity:1;stroke-miterlimit:10;" d="M 679.882812 4851.210938 L 652.109375 4851.210938 " transform="matrix(0.1,0,0,-0.1,0,555)"/>
<path style="fill:none;stroke-width:1.2;stroke-linecap:butt;stroke-linejoin:round;stroke:rgb(0%,0%,0%);stroke-opacity:1;stroke-miterlimit:10;" d="M 679.882812 5110.3125 L 652.109375 5110.3125 " transform="matrix(0.1,0,0,-0.1,0,555)"/>
</g>
</svg>
